<?xml version="1.0" encoding="utf-8"?>
<!-- Generator: Adobe Illustrator 22.0.1, SVG Export Plug-In . SVG Version: 6.00 Build 0)  -->
<svg version="1.1" id="Layer_1" xmlns="http://www.w3.org/2000/svg" xmlns:xlink="http://www.w3.org/1999/xlink" x="0px" y="0px"
	 viewBox="0 0 195 170.2" style="enable-background:new 0 0 195 170.2;" xml:space="preserve">
<style type="text/css">
	.st0{fill:#D8FEFF;}
	.st1{fill:#21B0BE;}
	.st2{fill:#7CE5E5;}
</style>
<g id="outline-stroke_3_">
	<g id="blue-keyboard_x5F_rounded">
		<g>
			<path id="keyboard_1_" class="st0" d="M179.9,168L5.7,82.4c-2-1-2.8-3.4-1.8-5.4L69.8-57.1c1-2,3.4-2.8,5.4-1.8l174.2,85.6
				c2,1,2.8,3.4,1.8,5.4l-65.9,134.1C184.4,168.2,182,169,179.9,168z"/>
			<path class="st1" d="M179.7,168.7C179.7,168.6,179.7,168.6,179.7,168.7L5.4,83c-2.3-1.1-3.3-4-2.2-6.3l66-134.1
				c0.5-1.1,1.5-2,2.7-2.4s2.5-0.3,3.6,0.2l0,0L249.8,26c2.3,1.1,3.3,4,2.2,6.3l-66,134.2c-0.5,1.1-1.5,2-2.7,2.4
				C182.1,169.3,180.8,169.2,179.7,168.7z M180.2,167.4L180.2,167.4c0.8,0.4,1.7,0.4,2.6,0.2c0.8-0.3,1.5-0.9,1.9-1.7l65.9-134.1
				c0.8-1.7,0.1-3.7-1.5-4.5L74.9-58.3l0,0c-0.8-0.4-1.7-0.4-2.6-0.2c-0.8,0.3-1.5,0.9-1.9,1.7L4.5,77.3C3.6,79,4.3,81,6,81.8
				L180.2,167.4z"/>
		</g>
		<g id="keyboard_6_">
			<g>
				<path class="st2" d="M132.4,3.6L127.1,1c-0.9-0.4-1.3-1.5-0.8-2.4l3.1-6.4c0.4-0.9,1.5-1.3,2.4-0.8l5.3,2.6
					c0.9,0.4,1.3,1.5,0.8,2.4l-3.1,6.4C134.4,3.7,133.3,4.1,132.4,3.6z"/>
				<path class="st1" d="M132.1,4.2L132.1,4.2L132.1,4.2l-5.3-2.6c-0.6-0.3-1-0.8-1.2-1.4s-0.2-1.3,0.1-1.9l3.1-6.4
					c0.6-1.2,2.1-1.7,3.3-1.1l0,0l5.3,2.6c1.2,0.6,1.7,2.1,1.1,3.3l-3.1,6.4C134.8,4.3,133.4,4.8,132.1,4.2z M132.7,3L132.7,3
					c0.6,0.3,1.2,0.1,1.5-0.5l3.1-6.4c0.3-0.6,0.1-1.2-0.5-1.5L131.6-8l0,0c-0.3-0.1-0.6-0.1-0.9-0.1c-0.3,0.1-0.5,0.3-0.7,0.6
					l-3.1,6.4c-0.1,0.3-0.1,0.6-0.1,0.9c0.1,0.3,0.3,0.5,0.6,0.7L132.7,3z"/>
			</g>
			<g>
				<path class="st2" d="M143.6,9.1l-5.3-2.6c-0.9-0.4-1.3-1.5-0.8-2.4l3.1-6.4c0.4-0.9,1.5-1.3,2.4-0.8l5.3,2.6
					c0.9,0.4,1.3,1.5,0.8,2.4L146,8.3C145.6,9.2,144.5,9.6,143.6,9.1z"/>
				<path class="st1" d="M143.3,9.7L143.3,9.7L143.3,9.7L138,7.1c-0.6-0.3-1-0.8-1.2-1.4s-0.2-1.3,0.1-1.9l3.1-6.4
					c0.3-0.6,0.8-1,1.4-1.2c0.6-0.2,1.3-0.2,1.9,0.1l0,0l5.3,2.6c1.2,0.6,1.7,2.1,1.1,3.3l-3.1,6.4C146,9.8,144.6,10.3,143.3,9.7z
					 M143.9,8.5L143.9,8.5c0.6,0.3,1.2,0.1,1.5-0.5l3.1-6.4c0.3-0.6,0.1-1.2-0.5-1.5l-5.3-2.6l0,0c-0.3-0.1-0.6-0.1-0.9-0.1
					c-0.3,0.1-0.5,0.3-0.7,0.6L138,4.4c0,0.2,0,0.5,0,0.8c0.1,0.3,0.3,0.5,0.6,0.7L143.9,8.5z"/>
			</g>
			<g>
				<path class="st2" d="M155.2,14.8l-5.3-2.6c-0.9-0.4-1.3-1.5-0.8-2.4l3.1-6.4c0.4-0.9,1.5-1.3,2.4-0.8l5.3,2.6
					c0.9,0.4,1.3,1.5,0.8,2.4l-3.1,6.4C157.2,14.9,156.1,15.2,155.2,14.8z"/>
				<path class="st1" d="M154.9,15.4L154.9,15.4L154.9,15.4l-5.3-2.6c-0.6-0.3-1-0.8-1.2-1.4c-0.2-0.6-0.2-1.3,0.1-1.9l3.1-6.4
					c0.6-1.2,2.1-1.7,3.3-1.1l0,0l5.3,2.6c1.2,0.6,1.7,2.1,1.1,3.3l-3.1,6.4C157.6,15.5,156.1,16,154.9,15.4z M155.5,14.2
					L155.5,14.2c0.6,0.3,1.2,0.1,1.5-0.5l3.1-6.4c0.3-0.6,0.1-1.2-0.5-1.5l-5.3-2.6l0,0c-0.6-0.3-1.2-0.1-1.5,0.5l-3.1,6.4
					c-0.1,0.3-0.1,0.6-0.1,0.9c0.1,0.3,0.3,0.5,0.6,0.7L155.5,14.2z"/>
			</g>
			<g>
				<path class="st2" d="M166.4,20.3l-5.3-2.6c-0.9-0.4-1.3-1.5-0.8-2.4l3.1-6.4c0.4-0.9,1.5-1.3,2.4-0.8l5.3,2.6
					c0.9,0.4,1.3,1.5,0.8,2.4l-3.1,6.4C168.4,20.3,167.3,20.7,166.4,20.3z"/>
				<path class="st1" d="M166.1,20.9L166.1,20.9L166.1,20.9l-5.3-2.6c-0.6-0.3-1-0.8-1.2-1.4s-0.2-1.3,0.1-1.9l3.1-6.4
					c0.3-0.6,0.8-1,1.4-1.2c0.6-0.2,1.3-0.2,1.9,0.1l0,0l5.3,2.6c1.2,0.6,1.7,2.1,1.1,3.3l-3.1,6.4C168.8,21,167.3,21.5,166.1,20.9z
					 M166.7,19.7L166.7,19.7c0.6,0.3,1.2,0.1,1.5-0.5l3.1-6.4c0.3-0.6,0.1-1.2-0.5-1.5l-5.3-2.6l0,0c-0.3-0.1-0.6-0.1-0.9-0.1
					c-0.3,0.1-0.5,0.3-0.7,0.6l-3.1,6.4c-0.1,0.3-0.1,0.6-0.1,0.9c0.1,0.3,0.3,0.5,0.6,0.7L166.7,19.7z"/>
			</g>
			<g>
				<path class="st2" d="M178,26l-5.3-2.6c-0.9-0.4-1.3-1.5-0.8-2.4l3.1-6.4c0.4-0.9,1.5-1.3,2.4-0.8l5.3,2.6
					c0.9,0.4,1.3,1.5,0.8,2.4l-3.1,6.4C180,26,178.9,26.4,178,26z"/>
				<path class="st1" d="M177.7,26.6L177.7,26.6L177.7,26.6l-5.3-2.6c-0.6-0.3-1-0.8-1.2-1.4s-0.2-1.3,0.1-1.9l3.1-6.4
					c0.3-0.6,0.8-1,1.4-1.2c0.6-0.2,1.3-0.2,1.9,0.1l0,0l5.3,2.6c0.6,0.3,1,0.8,1.2,1.4s0.2,1.3-0.1,1.9l-3.1,6.4
					C180.4,26.6,178.9,27.1,177.7,26.6z M178.3,25.4L178.3,25.4c0.6,0.3,1.2,0.1,1.5-0.5l3.1-6.4c0.1-0.3,0.1-0.6,0.1-0.9
					c-0.1-0.3-0.3-0.5-0.6-0.7l-5.3-2.6l0,0c-0.3-0.1-0.6-0.1-0.9-0.1c-0.3,0.1-0.5,0.3-0.7,0.6l-3.1,6.4c-0.1,0.3-0.1,0.6-0.1,0.9
					c0.1,0.3,0.3,0.5,0.6,0.7L178.3,25.4z"/>
			</g>
			<g>
				<path class="st2" d="M189.6,31.6l-5.3-2.6c-0.9-0.4-1.3-1.5-0.8-2.4l3.1-6.4c0.4-0.9,1.5-1.3,2.4-0.8l5.3,2.6
					c0.9,0.4,1.3,1.5,0.8,2.4l-3.1,6.4C191.6,31.7,190.5,32.1,189.6,31.6z"/>
				<path class="st1" d="M189.3,32.2L189.3,32.2L189.3,32.2l-5.3-2.6c-1.2-0.6-1.7-2.1-1.1-3.3l3.1-6.4c0.6-1.2,2.1-1.7,3.3-1.1l0,0
					l5.3,2.6c1.2,0.6,1.7,2.1,1.1,3.3l-3.1,6.4C192,32.3,190.5,32.8,189.3,32.2z M189.9,31L189.9,31c0.6,0.3,1.2,0.1,1.5-0.5
					l3.1-6.4c0.3-0.6,0.1-1.2-0.5-1.5l-5.3-2.6l0,0c-0.3-0.1-0.6-0.1-0.9-0.1c-0.3,0.1-0.5,0.3-0.7,0.6l-3.1,6.4
					c-0.3,0.6-0.1,1.2,0.5,1.5L189.9,31z"/>
			</g>
			<g>
				<path class="st2" d="M200.8,37.1l-5.3-2.6c-0.9-0.4-1.3-1.5-0.8-2.4l3.1-6.4c0.4-0.9,1.5-1.3,2.4-0.8l5.3,2.6
					c0.9,0.4,1.3,1.5,0.8,2.4l-3.1,6.4C202.7,37.2,201.7,37.5,200.8,37.1z"/>
				<path class="st1" d="M200.5,37.7L200.5,37.7L200.5,37.7l-5.3-2.6c-1.2-0.6-1.7-2.1-1.1-3.3l3.1-6.4c0.6-1.2,2.1-1.7,3.3-1.1l0,0
					l5.3,2.6c1.2,0.6,1.7,2.1,1.1,3.3l-3.1,6.4C203.2,37.8,201.7,38.3,200.5,37.7z M201.1,36.5L201.1,36.5c0.6,0.3,1.2,0.1,1.5-0.5
					l3.1-6.4c0.3-0.6,0.1-1.2-0.5-1.5l-5.3-2.6l0,0c-0.3-0.1-0.6-0.1-0.9-0.1c-0.3,0.1-0.5,0.3-0.7,0.6l-3.1,6.4
					c-0.3,0.6-0.1,1.2,0.5,1.5L201.1,36.5z"/>
			</g>
			<g>
				<path class="st2" d="M98,2.1l-5.3-2.6c-0.9-0.4-1.3-1.5-0.8-2.4L95-9.3c0.4-0.9,1.5-1.3,2.4-0.8l5.3,2.6
					c0.9,0.4,1.3,1.5,0.8,2.4l-3.1,6.4C99.9,2.2,98.9,2.6,98,2.1z"/>
				<path class="st1" d="M97.7,2.7L97.7,2.7l-5.3-2.6c-0.6-0.3-1-0.8-1.2-1.4S91-2.5,91.3-3.1l3.1-6.4c0.3-0.6,0.8-1,1.4-1.2
					s1.3-0.2,1.9,0.1l0,0L103-8c1.2,0.6,1.7,2.1,1.1,3.3L101,1.7c-0.3,0.6-0.8,1-1.4,1.2C98.9,3.1,98.3,3,97.7,2.7z M97.1-9.5
					c-0.3-0.1-0.6-0.1-0.9-0.1C96-9.4,95.7-9.2,95.6-9l-3.1,6.4c-0.1,0.3-0.1,0.6-0.1,0.9C92.5-1.4,92.7-1.2,93-1l5.3,2.6l0,0l0,0
					c0.3,0.1,0.6,0.1,0.9,0.1c0.3-0.1,0.5-0.3,0.7-0.6l3.1-6.4c0.3-0.6,0.1-1.2-0.5-1.5L97.1-9.5L97.1-9.5z"/>
			</g>
			<g>
				<path class="st2" d="M109.2,7.6L103.9,5c-0.9-0.4-1.3-1.5-0.8-2.4l3.1-6.4c0.4-0.9,1.5-1.3,2.4-0.8l5.3,2.6
					c0.9,0.4,1.3,1.5,0.8,2.4l-3.1,6.4C111.1,7.7,110.1,8,109.2,7.6z"/>
				<path class="st1" d="M108.9,8.2L108.9,8.2l-5.3-2.6c-0.6-0.3-1-0.8-1.2-1.4s-0.2-1.3,0.1-1.9l3.1-6.4c0.3-0.6,0.8-1,1.4-1.2
					s1.3-0.2,1.9,0.1l0,0l5.3,2.6c1.2,0.6,1.7,2.1,1.1,3.3l-3.1,6.4c-0.3,0.6-0.8,1-1.4,1.2C110.2,8.6,109.5,8.5,108.9,8.2z
					 M108.3-4c-0.3-0.1-0.6-0.1-0.9-0.1c-0.3,0.1-0.5,0.3-0.7,0.6l-3.1,6.4c-0.1,0.3-0.1,0.6-0.1,0.9c0.1,0.3,0.3,0.5,0.6,0.7
					l5.3,2.6l0,0l0,0c0.3,0.1,0.6,0.1,0.9,0.1c0.3-0.1,0.5-0.3,0.7-0.6l3.1-6.4c0.3-0.6,0.1-1.2-0.5-1.5L108.3-4L108.3-4z"/>
			</g>
			<g>
				<path class="st2" d="M120.8,13.3l-5.3-2.6c-0.9-0.4-1.3-1.5-0.8-2.4l3.1-6.4c0.4-0.9,1.5-1.3,2.4-0.8l5.3,2.6
					c0.9,0.4,1.3,1.5,0.8,2.4l-3.1,6.4C122.7,13.3,121.7,13.7,120.8,13.3z"/>
				<path class="st1" d="M120.5,13.9L120.5,13.9l-5.3-2.6c-1.2-0.6-1.7-2.1-1.1-3.3l3.1-6.4c0.3-0.6,0.8-1,1.4-1.2s1.3-0.2,1.9,0.1
					l0,0l5.3,2.6c0.6,0.3,1,0.8,1.2,1.4s0.2,1.3-0.1,1.9l-3.1,6.4c-0.3,0.6-0.8,1-1.4,1.2C121.7,14.3,121.1,14.2,120.5,13.9z
					 M119.9,1.7c-0.3-0.1-0.6-0.1-0.9-0.1c-0.3,0.1-0.5,0.3-0.7,0.6l-3.1,6.4c-0.3,0.6-0.1,1.2,0.5,1.5l5.3,2.6l0,0l0,0
					c0.3,0.1,0.6,0.1,0.9,0.1c0.3-0.1,0.5-0.3,0.7-0.6l3.1-6.4c0.1-0.3,0.1-0.6,0.1-0.9c-0.1-0.3-0.3-0.5-0.6-0.7L119.9,1.7
					L119.9,1.7z"/>
			</g>
			<g>
				<path class="st2" d="M132.4,19l-5.3-2.6c-0.9-0.4-1.3-1.5-0.8-2.4l3.1-6.4c0.4-0.9,1.5-1.3,2.4-0.8l5.3,2.6
					c0.9,0.4,1.3,1.5,0.8,2.4l-3.1,6.4C134.4,19,133.2,19.4,132.4,19z"/>
				<path class="st1" d="M132.1,19.6L132.1,19.6l-5.3-2.6c-1.2-0.6-1.7-2.1-1.1-3.3l3.1-6.4c0.3-0.6,0.8-1,1.4-1.2
					c0.6-0.2,1.3-0.2,1.9,0.1l0,0l5.3,2.6c1.2,0.6,1.7,2.1,1.1,3.3l-3.1,6.4c-0.3,0.6-0.8,1-1.4,1.2
					C133.3,19.9,132.7,19.8,132.1,19.6z M131.5,7.4c-0.3-0.1-0.6-0.1-0.9-0.1c-0.3,0.1-0.5,0.3-0.7,0.6l-3.1,6.4
					c-0.3,0.6-0.1,1.2,0.5,1.5l5.3,2.6l0,0l0,0c0.3,0.1,0.6,0.1,0.9,0.1c0.3-0.1,0.5-0.3,0.7-0.6l3.1-6.4c0.3-0.6,0.1-1.2-0.5-1.5
					L131.5,7.4L131.5,7.4z"/>
			</g>
			<g>
				<path class="st2" d="M143.6,24.4l-5.3-2.6c-0.9-0.4-1.3-1.5-0.8-2.4l3.1-6.4c0.4-0.9,1.5-1.3,2.4-0.8l5.3,2.6
					c0.9,0.4,1.3,1.5,0.8,2.4l-3.1,6.4C145.5,24.5,144.4,24.9,143.6,24.4z"/>
				<path class="st1" d="M143.3,25L143.3,25l-5.3-2.6c-0.6-0.3-1-0.8-1.2-1.4s-0.2-1.3,0.1-1.9l3.1-6.4c0.3-0.6,0.8-1,1.4-1.2
					c0.6-0.2,1.3-0.2,1.9,0.1l0,0l5.3,2.6c1.2,0.6,1.7,2.1,1.1,3.3l-3.1,6.4c-0.3,0.6-0.8,1-1.4,1.2C144.5,25.4,143.9,25.3,143.3,25
					z M142.7,12.8c-0.3-0.1-0.6-0.1-0.9-0.1c-0.3,0.1-0.5,0.3-0.7,0.6l-3.1,6.4c-0.1,0.3-0.1,0.6-0.1,0.9s0.3,0.5,0.6,0.7l5.3,2.6
					l0,0l0,0c0.3,0.1,0.6,0.1,0.9,0.1c0.3-0.1,0.5-0.3,0.7-0.6l3.1-6.4c0.3-0.6,0.1-1.2-0.5-1.5L142.7,12.8L142.7,12.8z"/>
			</g>
			<g>
				<path class="st2" d="M154.8,29.9l-5.3-2.6c-0.9-0.4-1.3-1.5-0.8-2.4l3.1-6.4c0.4-0.9,1.5-1.3,2.4-0.8l5.3,2.6
					c0.9,0.4,1.3,1.5,0.8,2.4l-3.1,6.4C156.7,30,155.6,30.3,154.8,29.9z"/>
				<path class="st1" d="M154.5,30.5L154.5,30.5l-5.3-2.6c-0.6-0.3-1-0.8-1.2-1.4s-0.2-1.3,0.1-1.9l3.1-6.4c0.3-0.6,0.8-1,1.4-1.2
					c0.6-0.2,1.3-0.2,1.9,0.1l0,0l5.3,2.6c1.2,0.6,1.7,2.1,1.1,3.3l-3.1,6.4c-0.3,0.6-0.8,1-1.4,1.2
					C155.7,30.9,155.1,30.8,154.5,30.5z M153.9,18.3c-0.3-0.1-0.6-0.1-0.9-0.1c-0.3,0.1-0.5,0.3-0.7,0.6l-3.1,6.4
					c-0.1,0.3-0.1,0.6-0.1,0.9c0.1,0.3,0.3,0.5,0.6,0.7l5.3,2.6l0,0l0,0c0.3,0.1,0.6,0.1,0.9,0.1c0.3-0.1,0.5-0.3,0.7-0.6l3.1-6.4
					c0.3-0.6,0.1-1.2-0.5-1.5L153.9,18.3L153.9,18.3z"/>
			</g>
			<g>
				<path class="st2" d="M165.9,35.4l-5.3-2.6c-0.9-0.4-1.3-1.5-0.8-2.4l3.1-6.4c0.4-0.9,1.5-1.3,2.4-0.8l5.3,2.6
					c0.9,0.4,1.3,1.5,0.8,2.4l-3.1,6.4C167.9,35.5,166.9,35.8,165.9,35.4z"/>
				<path class="st1" d="M165.7,36L165.7,36l-5.3-2.6c-0.6-0.3-1-0.8-1.2-1.4c-0.2-0.6-0.2-1.3,0.1-1.9l3.1-6.4
					c0.3-0.6,0.8-1,1.4-1.2c0.6-0.2,1.3-0.2,1.9,0.1l0,0l5.3,2.6c1.2,0.6,1.7,2.1,1.1,3.3l-3.1,6.4c-0.3,0.6-0.8,1-1.4,1.2
					C166.9,36.4,166.2,36.3,165.7,36z M165.1,23.8c-0.3-0.1-0.6-0.1-0.9-0.1c-0.3,0.1-0.5,0.3-0.7,0.6l-3.1,6.4
					c-0.1,0.3-0.1,0.6-0.1,0.9c0.1,0.3,0.3,0.5,0.6,0.7l5.3,2.6l0,0l0,0c0.3,0.1,0.6,0.1,0.9,0.1c0.3-0.1,0.5-0.3,0.7-0.6l3.1-6.4
					c0.3-0.6,0.1-1.2-0.5-1.5L165.1,23.8L165.1,23.8z"/>
			</g>
			<g>
				<path class="st2" d="M177.5,41.1l-5.3-2.6c-0.9-0.4-1.3-1.5-0.8-2.4l3.1-6.4c0.4-0.9,1.5-1.3,2.4-0.8l5.3,2.6
					c0.9,0.4,1.3,1.5,0.8,2.4l-3.1,6.4C179.5,41.2,178.4,41.5,177.5,41.1z"/>
				<path class="st1" d="M177.2,41.7L177.2,41.7l-5.3-2.6c-0.6-0.3-1-0.8-1.2-1.4c-0.2-0.6-0.2-1.3,0.1-1.9l3.1-6.4
					c0.3-0.6,0.8-1,1.4-1.2c0.6-0.2,1.3-0.2,1.9,0.1l0,0l5.3,2.6c1.2,0.6,1.7,2.1,1.1,3.3l-3.1,6.4c-0.3,0.6-0.8,1-1.4,1.2
					C178.5,42,177.8,42,177.2,41.7z M176.6,29.5c-0.3-0.1-0.6-0.1-0.9-0.1c-0.3,0.1-0.5,0.3-0.7,0.6l-3.1,6.4
					c-0.1,0.3-0.1,0.6-0.1,0.9c0.1,0.3,0.3,0.5,0.6,0.7l5.3,2.6l0,0l0,0c0.3,0.1,0.6,0.1,0.9,0.1c0.3-0.1,0.5-0.3,0.7-0.6l3.1-6.4
					c0.3-0.6,0.1-1.2-0.5-1.5L176.6,29.5L176.6,29.5z"/>
			</g>
			<g>
				<path class="st2" d="M189.1,46.7l-5.3-2.6c-0.9-0.4-1.3-1.5-0.8-2.4l3.1-6.4c0.4-0.9,1.5-1.3,2.4-0.8l5.3,2.6
					c0.9,0.4,1.3,1.5,0.8,2.4l-3.1,6.4C191.1,46.8,190,47.2,189.1,46.7z"/>
				<path class="st1" d="M188.8,47.3L188.8,47.3l-5.3-2.6c-0.6-0.3-1-0.8-1.2-1.4c-0.2-0.6-0.2-1.3,0.1-1.9l3.1-6.4
					c0.6-1.2,2.1-1.7,3.3-1.1l0,0l5.3,2.6c1.2,0.6,1.7,2.1,1.1,3.3l-3.1,6.4c-0.3,0.6-0.8,1-1.4,1.2
					C190.1,47.7,189.4,47.6,188.8,47.3z M188.2,35.1c-0.6-0.3-1.2-0.1-1.5,0.5l-3.1,6.4c-0.1,0.3-0.1,0.6-0.1,0.9
					c0.1,0.3,0.3,0.5,0.6,0.7l5.3,2.6l0,0l0,0c0.3,0.1,0.6,0.1,0.9,0.1c0.3-0.1,0.5-0.3,0.7-0.6l3.1-6.4c0.3-0.6,0.1-1.2-0.5-1.5
					L188.2,35.1L188.2,35.1z"/>
			</g>
			<g>
				<path class="st2" d="M199.9,52l-5.3-2.6c-0.9-0.4-1.3-1.5-0.8-2.4l3.1-6.4c0.4-0.9,1.5-1.3,2.4-0.8l5.3,2.6
					c0.9,0.4,1.3,1.5,0.8,2.4l-3.1,6.4C201.9,52.1,200.8,52.5,199.9,52z"/>
				<path class="st1" d="M199.6,52.6L199.6,52.6l-5.3-2.6c-0.6-0.3-1-0.8-1.2-1.4c-0.2-0.6-0.2-1.3,0.1-1.9l3.1-6.4
					c0.3-0.6,0.8-1,1.4-1.2c0.6-0.2,1.3-0.2,1.9,0.1l0,0l5.3,2.6c1.2,0.6,1.7,2.1,1.1,3.3l-3.1,6.4
					C202.3,52.8,200.9,53.2,199.6,52.6z M199,40.4c-0.3-0.1-0.6-0.1-0.9-0.1c-0.3,0.1-0.5,0.3-0.7,0.6l-3.1,6.4
					c-0.1,0.3-0.1,0.6-0.1,0.9c0.1,0.3,0.3,0.5,0.6,0.7l5.3,2.6l0,0l0,0c0.6,0.3,1.2,0.1,1.5-0.5l3.1-6.4c0.3-0.6,0.1-1.2-0.5-1.5
					L199,40.4L199,40.4z"/>
			</g>
			<g>
				<path class="st2" d="M94.1,16.1l-5.3-2.6c-0.9-0.4-1.3-1.5-0.8-2.4l3.1-6.4c0.4-0.9,1.5-1.3,2.4-0.8l5.3,2.6
					c0.9,0.4,1.3,1.5,0.8,2.4l-3.1,6.4C96.1,16.2,95,16.6,94.1,16.1z"/>
				<path class="st1" d="M93.8,16.7L93.8,16.7l-5.3-2.6c-0.6-0.3-1-0.8-1.2-1.4c-0.2-0.6-0.2-1.3,0.1-1.9l3.1-6.4
					c0.3-0.6,0.8-1,1.4-1.2s1.3-0.2,1.9,0.1l0,0L99.1,6c0.6,0.3,1,0.8,1.2,1.4s0.2,1.3-0.1,1.9l-3.1,6.4c-0.3,0.6-0.8,1-1.4,1.2
					C95.1,17.1,94.4,17,93.8,16.7z M93.2,4.5c-0.3-0.1-0.6-0.1-0.9-0.1C92,4.5,91.8,4.7,91.6,5l-3.1,6.4c-0.1,0.3-0.1,0.6-0.1,0.9
					c0.1,0.3,0.3,0.5,0.6,0.7l5.3,2.6l0,0l0,0c0.3,0.1,0.6,0.1,0.9,0.1c0.3-0.1,0.5-0.3,0.7-0.6L99,8.6c0.1-0.3,0.1-0.6,0.1-0.9
					C99,7.4,98.8,7.2,98.5,7L93.2,4.5L93.2,4.5z"/>
			</g>
			<g>
				<path class="st2" d="M82.9,10.6L77.6,8c-0.9-0.4-1.3-1.5-0.8-2.4l3.1-6.4c0.4-0.9,1.5-1.3,2.4-0.8L87.6,1
					c0.9,0.4,1.3,1.5,0.8,2.4l-3.1,6.4C84.9,10.7,83.8,11.1,82.9,10.6z"/>
				<path class="st1" d="M82.6,11.2L82.6,11.2l-5.3-2.6c-0.6-0.3-1-0.8-1.2-1.4s-0.2-1.3,0.1-1.9L79.3-1c0.3-0.6,0.8-1,1.4-1.2
					s1.3-0.2,1.9,0.1l0,0l5.3,2.6c0.6,0.3,1,0.8,1.2,1.4s0.2,1.3-0.1,1.9l-3.1,6.4c-0.3,0.6-0.8,1-1.4,1.2
					C83.9,11.6,83.2,11.5,82.6,11.2z M82.1-1c-0.3-0.1-0.6-0.1-0.9-0.1c-0.3,0.1-0.5,0.3-0.7,0.6l-3.1,6.4c-0.1,0.3-0.1,0.6-0.1,0.9
					c0.1,0.3,0.3,0.5,0.6,0.7l5.3,2.6l0,0l0,0c0.3,0.1,0.6,0.1,0.9,0.1c0.3-0.1,0.5-0.3,0.7-0.6l3.1-6.4c0.1-0.3,0.1-0.6,0-0.9
					s-0.3-0.5-0.6-0.7L82.1-1L82.1-1z"/>
			</g>
			<g>
				<path class="st2" d="M71.8,5.2l-14-6.8C57-2.1,56.6-3.2,57-4.1l3.1-6.4c0.4-0.9,1.5-1.3,2.4-0.8l13.9,6.8c1,0.5,1.4,1.6,0.9,2.5
					l-3.1,6.4C73.8,5.3,72.7,5.6,71.8,5.2z"/>
				<path class="st1" d="M71.5,5.8L71.5,5.8L71.5,5.8L57.5-1c-0.6-0.3-1-0.8-1.2-1.4s-0.2-1.3,0.1-1.9l3.1-6.4
					c0.3-0.6,0.8-1,1.4-1.2s1.3-0.2,1.9,0.1l0,0L76.7-5c1.2,0.6,1.7,2.1,1.1,3.3l-3.1,6.4c-0.3,0.6-0.8,1-1.4,1.2
					C72.8,6.1,72.1,6.1,71.5,5.8z M72.1,4.6L72.1,4.6c0.3,0.1,0.6,0.1,0.9,0.1c0.3-0.1,0.5-0.3,0.7-0.6l3.1-6.4
					c0.3-0.6,0.1-1.2-0.5-1.5l-13.9-6.8l0,0c-0.3-0.1-0.6-0.1-0.9-0.1c-0.3,0.1-0.5,0.3-0.7,0.6l-3.1,6.4c-0.1,0.3-0.1,0.6-0.1,0.9
					c0.1,0.3,0.3,0.5,0.6,0.7L72.1,4.6z"/>
			</g>
			<g>
				<path class="st2" d="M105.3,21.6L100,19c-0.9-0.4-1.3-1.5-0.8-2.4l3.1-6.4c0.4-0.9,1.5-1.3,2.4-0.8L110,12
					c0.9,0.4,1.3,1.5,0.8,2.4l-3.1,6.4C107.3,21.7,106.2,22,105.3,21.6z"/>
				<path class="st1" d="M105,22.2L105,22.2l-5.3-2.6c-0.6-0.3-1-0.8-1.2-1.4s-0.2-1.3,0.1-1.9l3.1-6.4c0.3-0.6,0.8-1,1.4-1.2
					s1.3-0.2,1.9,0.1l0,0l5.3,2.6c0.6,0.3,1,0.8,1.2,1.4c0.2,0.6,0.2,1.3-0.1,1.9l-3.1,6.4C107.7,22.3,106.2,22.8,105,22.2z
					 M104.4,10c-0.3-0.1-0.6-0.1-0.9-0.1c-0.3,0.1-0.5,0.3-0.7,0.6l-3.1,6.4c-0.1,0.3-0.1,0.6-0.1,0.9c0.1,0.3,0.3,0.5,0.6,0.7
					l5.3,2.6l0,0l0,0c0.6,0.3,1.2,0.1,1.5-0.5l3.1-6.4c0.1-0.3,0.1-0.6,0.1-0.9c-0.1-0.3-0.3-0.5-0.6-0.7L104.4,10L104.4,10z"/>
			</g>
			<g>
				<path class="st2" d="M116.9,27.3l-5.3-2.6c-0.9-0.4-1.3-1.5-0.8-2.4l3.1-6.4c0.4-0.9,1.5-1.3,2.4-0.8l5.3,2.6
					c0.9,0.4,1.3,1.5,0.8,2.4l-3.1,6.4C118.9,27.4,117.8,27.7,116.9,27.3z"/>
				<path class="st1" d="M116.6,27.9L116.6,27.9l-5.3-2.6c-0.6-0.3-1-0.8-1.2-1.4s-0.2-1.3,0.1-1.9l3.1-6.4c0.6-1.2,2.1-1.7,3.3-1.1
					l0,0l5.3,2.6c0.6,0.3,1,0.8,1.2,1.4s0.2,1.3-0.1,1.9l-3.1,6.4c-0.3,0.6-0.8,1-1.4,1.2S117.2,28.2,116.6,27.9z M116,15.6
					c-0.6-0.3-1.2-0.1-1.5,0.5l-3.1,6.4c-0.1,0.3-0.1,0.6-0.1,0.9c0.1,0.3,0.3,0.5,0.6,0.7l5.3,2.6l0,0l0,0c0.3,0.1,0.6,0.1,0.9,0.1
					c0.3-0.1,0.5-0.3,0.7-0.6l3.1-6.4c0.1-0.3,0.1-0.6,0.1-0.9c-0.1-0.3-0.3-0.5-0.6-0.7L116,15.6L116,15.6z"/>
			</g>
			<g>
				<path class="st2" d="M128.5,33l-5.3-2.6c-0.9-0.4-1.3-1.5-0.8-2.4l3.1-6.4c0.4-0.9,1.5-1.3,2.4-0.8l5.3,2.6
					c0.9,0.4,1.3,1.5,0.8,2.4l-3.1,6.4C130.5,33,129.4,33.4,128.5,33z"/>
				<path class="st1" d="M128.2,33.6L128.2,33.6l-5.3-2.6c-0.6-0.3-1-0.8-1.2-1.4s-0.2-1.3,0.1-1.9l3.1-6.4c0.3-0.6,0.8-1,1.4-1.2
					s1.3-0.2,1.9,0.1l0,0l5.3,2.6c0.6,0.3,1,0.8,1.2,1.4s0.2,1.3-0.1,1.9l-3.1,6.4c-0.3,0.6-0.8,1-1.4,1.2S128.8,33.8,128.2,33.6z
					 M127.6,21.3c-0.3-0.1-0.6-0.1-0.9-0.1c-0.3,0.1-0.5,0.3-0.7,0.6l-3.1,6.4c-0.1,0.3-0.1,0.6-0.1,0.9c0.1,0.3,0.3,0.5,0.6,0.7
					l5.3,2.6l0,0l0,0c0.3,0.1,0.6,0.1,0.9,0.1c0.3-0.1,0.5-0.3,0.7-0.6l3.1-6.4c0.1-0.3,0.1-0.6,0.1-0.9c-0.1-0.3-0.3-0.5-0.6-0.7
					L127.6,21.3L127.6,21.3z"/>
			</g>
			<g>
				<path class="st2" d="M139.7,38.4l-5.3-2.6c-0.9-0.4-1.3-1.5-0.8-2.4l3.1-6.4c0.4-0.9,1.5-1.3,2.4-0.8l5.3,2.6
					c0.9,0.4,1.3,1.5,0.8,2.4l-3.1,6.4C141.7,38.5,140.6,38.9,139.7,38.4z"/>
				<path class="st1" d="M139.4,39L139.4,39l-5.3-2.6c-0.6-0.3-1-0.8-1.2-1.4c-0.2-0.6-0.2-1.3,0.1-1.9l3.1-6.4
					c0.3-0.6,0.8-1,1.4-1.2c0.6-0.2,1.3-0.2,1.9,0.1l0,0l5.3,2.6c1.2,0.6,1.7,2.1,1.1,3.3l-3.1,6.4c-0.3,0.6-0.8,1-1.4,1.2
					C140.7,39.4,140,39.3,139.4,39z M138.8,26.8c-0.3-0.1-0.6-0.1-0.9-0.1c-0.3,0.1-0.5,0.3-0.7,0.6l-3.1,6.4
					c-0.1,0.3-0.1,0.6-0.1,0.9c0.1,0.3,0.3,0.5,0.6,0.7l5.3,2.6l0,0l0,0c0.3,0.1,0.6,0.1,0.9,0.1c0.3-0.1,0.5-0.3,0.7-0.6l3.1-6.4
					c0.3-0.6,0.1-1.2-0.5-1.5L138.8,26.8L138.8,26.8z"/>
			</g>
			<g>
				<path class="st2" d="M150.9,43.9l-5.3-2.6c-0.9-0.4-1.3-1.5-0.8-2.4l3.1-6.4c0.4-0.9,1.5-1.3,2.4-0.8l5.3,2.6
					c0.9,0.4,1.3,1.5,0.8,2.4l-3.1,6.4C152.8,44,151.8,44.4,150.9,43.9z"/>
				<path class="st1" d="M150.6,44.5L150.6,44.5l-5.3-2.6c-0.6-0.3-1-0.8-1.2-1.4c-0.2-0.6-0.2-1.3,0.1-1.9l3.1-6.4
					c0.3-0.6,0.8-1,1.4-1.2c0.6-0.2,1.3-0.2,1.9,0.1l0,0l5.3,2.6c0.6,0.3,1,0.8,1.2,1.4c0.2,0.6,0.2,1.3-0.1,1.9l-3.1,6.4
					c-0.3,0.6-0.8,1-1.4,1.2C151.8,44.8,151.2,44.8,150.6,44.5z M150,32.3c-0.3-0.1-0.6-0.1-0.9-0.1c-0.3,0.1-0.5,0.3-0.7,0.6
					l-3.1,6.4c-0.1,0.3-0.1,0.6-0.1,0.9c0.1,0.3,0.3,0.5,0.6,0.7l5.3,2.6l0,0l0,0c0.3,0.1,0.6,0.1,0.9,0.1c0.3-0.1,0.5-0.3,0.7-0.6
					l3.1-6.4c0.1-0.3,0.1-0.6,0.1-0.9c-0.1-0.3-0.3-0.5-0.6-0.7L150,32.3L150,32.3z"/>
			</g>
			<g>
				<path class="st2" d="M162.1,49.4l-5.3-2.6c-0.9-0.4-1.3-1.5-0.8-2.4l3-6.4c0.4-0.9,1.5-1.3,2.4-0.8l5.3,2.6
					c0.9,0.4,1.3,1.5,0.8,2.4l-3.1,6.4C164,49.5,163,49.8,162.1,49.4z"/>
				<path class="st1" d="M161.8,50L161.8,50l-5.3-2.6c-1.2-0.6-1.7-2.1-1.1-3.3l3.1-6.4c0.3-0.6,0.8-1,1.4-1.2
					c0.6-0.2,1.3-0.2,1.9,0.1l0,0l5.3,2.6c0.6,0.3,1,0.8,1.2,1.4c0.2,0.6,0.2,1.3-0.1,1.9l-3.1,6.4c-0.3,0.6-0.8,1-1.4,1.2
					C163,50.3,162.4,50.3,161.8,50z M161.2,37.8c-0.3-0.1-0.6-0.1-0.9-0.1c-0.3,0.1-0.5,0.3-0.7,0.6l-3.1,6.4
					c-0.3,0.6-0.1,1.2,0.5,1.5l5.3,2.6l0,0l0,0c0.3,0.1,0.6,0.1,0.9,0.1c0.3-0.1,0.5-0.3,0.7-0.6l3.1-6.4c0.1-0.3,0.1-0.6,0.1-0.9
					c-0.1-0.3-0.3-0.5-0.6-0.7L161.2,37.8L161.2,37.8z"/>
			</g>
			<g>
				<path class="st2" d="M173.6,55.1l-5.3-2.6c-0.9-0.4-1.3-1.5-0.8-2.4l3.1-6.4c0.4-0.9,1.5-1.3,2.4-0.8l5.3,2.6
					c0.9,0.4,1.3,1.5,0.8,2.4l-3.1,6.4C175.6,55.1,174.6,55.5,173.6,55.1z"/>
				<path class="st1" d="M173.4,55.7L173.4,55.7l-5.3-2.6c-1.2-0.6-1.7-2.1-1.1-3.3l3.1-6.4c0.3-0.6,0.8-1,1.4-1.2
					c0.6-0.2,1.3-0.2,1.9,0.1l0,0l5.3,2.6c1.2,0.6,1.7,2.1,1.1,3.3l-3.1,6.4c-0.3,0.6-0.8,1-1.4,1.2C174.6,56,173.9,56,173.4,55.7z
					 M172.8,43.4c-0.3-0.1-0.6-0.1-0.9-0.1c-0.3,0.1-0.5,0.3-0.7,0.6l-3.1,6.4c-0.3,0.6-0.1,1.2,0.5,1.5l5.3,2.6l0,0l0,0
					c0.3,0.1,0.6,0.1,0.9,0.1c0.3-0.1,0.5-0.3,0.7-0.6l3.1-6.4c0.3-0.6,0.1-1.2-0.5-1.5L172.8,43.4L172.8,43.4z"/>
			</g>
			<g>
				<path class="st2" d="M185.3,60.8l-5.3-2.6c-0.9-0.4-1.3-1.5-0.8-2.4l3.1-6.4c0.4-0.9,1.5-1.3,2.4-0.8l5.3,2.6
					c0.9,0.4,1.3,1.5,0.8,2.4l-3.1,6.4C187.2,60.8,186.1,61.2,185.3,60.8z"/>
				<path class="st1" d="M185,61.4L185,61.4l-5.3-2.6c-0.6-0.3-1-0.8-1.2-1.4c-0.2-0.6-0.2-1.3,0.1-1.9l3.1-6.4
					c0.3-0.6,0.8-1,1.4-1.2c0.6-0.2,1.3-0.2,1.9,0.1l0,0l5.3,2.6c0.6,0.3,1,0.8,1.2,1.4c0.2,0.6,0.2,1.3-0.1,1.9l-3.1,6.4
					c-0.3,0.6-0.8,1-1.4,1.2C186.2,61.7,185.5,61.6,185,61.4z M184.4,49.1c-0.3-0.1-0.6-0.1-0.9-0.1c-0.3,0.1-0.5,0.3-0.7,0.6
					l-3.1,6.4c-0.1,0.3-0.1,0.6-0.1,0.9c0.1,0.3,0.3,0.5,0.6,0.7l5.3,2.6l0,0l0,0c0.3,0.1,0.6,0.1,0.9,0.1c0.3-0.1,0.5-0.3,0.7-0.6
					l3.1-6.4c0.1-0.3,0.1-0.6,0.1-0.9c-0.1-0.3-0.3-0.5-0.6-0.7L184.4,49.1L184.4,49.1z"/>
			</g>
			<g>
				<path class="st2" d="M197.3,66.6L192,64c-0.9-0.4-1.3-1.5-0.8-2.4l3.1-6.4c0.4-0.9,1.5-1.3,2.4-0.8L202,57
					c0.9,0.4,1.3,1.5,0.8,2.4l-3.1,6.4C199.2,66.7,198.1,67.1,197.3,66.6z"/>
				<path class="st1" d="M197,67.2L197,67.2l-5.3-2.6c-0.6-0.3-1-0.8-1.2-1.4c-0.2-0.6-0.2-1.3,0.1-1.9l3.1-6.4
					c0.3-0.6,0.8-1,1.4-1.2c0.6-0.2,1.3-0.2,1.9,0.1l0,0l5.3,2.6c0.6,0.3,1,0.8,1.2,1.4c0.2,0.6,0.2,1.3-0.1,1.9l-3.1,6.4
					C199.6,67.3,198.2,67.8,197,67.2z M196.4,55c-0.3-0.1-0.6-0.1-0.9-0.1c-0.3,0.1-0.5,0.3-0.7,0.6l-3.1,6.4
					c-0.1,0.3-0.1,0.6-0.1,0.9c0.1,0.3,0.3,0.5,0.6,0.7l5.3,2.6l0,0l0,0c0.6,0.3,1.2,0.1,1.5-0.5l3.1-6.4c0.1-0.3,0.1-0.6,0.1-0.9
					c-0.1-0.3-0.3-0.5-0.6-0.7L196.4,55L196.4,55z"/>
			</g>
			<g>
				<path class="st2" d="M82.9,25.9l-5.3-2.6c-0.9-0.4-1.3-1.5-0.8-2.4l3.1-6.4c0.4-0.9,1.5-1.3,2.4-0.8l5.3,2.6
					c0.9,0.4,1.3,1.5,0.8,2.4l-3.1,6.4C84.9,26,83.8,26.4,82.9,25.9z"/>
				<path class="st1" d="M82.6,26.5L82.6,26.5l-5.3-2.6c-0.6-0.3-1-0.8-1.2-1.4s-0.2-1.3,0.1-1.9l3.1-6.4c0.3-0.6,0.8-1,1.4-1.2
					s1.3-0.2,1.9,0.1l5.3,2.6c0.6,0.3,1,0.8,1.2,1.4s0.2,1.3-0.1,1.9l-3.1,6.4c-0.3,0.6-0.8,1-1.4,1.2
					C83.9,26.9,83.2,26.8,82.6,26.5z M82,14.3c-0.3-0.1-0.6-0.1-0.9-0.1c-0.3,0.1-0.5,0.3-0.7,0.6l-3.1,6.4
					c-0.1,0.3-0.1,0.6-0.1,0.9c0.1,0.3,0.3,0.5,0.6,0.7l5.3,2.6l0,0l0,0c0.3,0.1,0.6,0.1,0.9,0.1c0.3-0.1,0.5-0.3,0.7-0.6l3.1-6.4
					c0.1-0.3,0.1-0.6,0.1-0.9c-0.1-0.3-0.3-0.5-0.6-0.7L82,14.3L82,14.3z"/>
			</g>
			<g>
				<path class="st2" d="M71.2,20.2l-19.4-9.6c-0.9-0.4-1.3-1.5-0.8-2.4l3.1-6.4C54.5,1,55.6,0.6,56.5,1l19.4,9.6
					c0.9,0.4,1.3,1.5,0.8,2.4l-3.1,6.4C73.2,20.3,72.1,20.7,71.2,20.2z"/>
				<path class="st1" d="M70.9,20.8L70.9,20.8L70.9,20.8l-19.4-9.6c-1.2-0.6-1.7-2.1-1.1-3.3l3.1-6.4c0.3-0.6,0.8-1,1.4-1.2
					c0.6-0.2,1.3-0.2,1.9,0.1l0,0L76.1,10c0.6,0.3,1,0.8,1.2,1.4c0.2,0.6,0.2,1.3-0.1,1.9l-3.1,6.4c-0.3,0.6-0.8,1-1.4,1.2
					C72.2,21.1,71.5,21.1,70.9,20.8z M71.5,19.6L71.5,19.6c0.6,0.3,1.2,0.1,1.5-0.5l3.1-6.4c0.1-0.3,0.1-0.6,0.1-0.9
					c-0.1-0.3-0.3-0.5-0.6-0.7L56.2,1.6l0,0c-0.3-0.1-0.6-0.1-0.9-0.1c-0.3,0.1-0.5,0.3-0.7,0.6l-3.1,6.4c-0.2,0.5,0,1.2,0.6,1.5
					L71.5,19.6z"/>
			</g>
			<g>
				<path class="st2" d="M94.1,31.4l-5.3-2.6c-0.9-0.4-1.3-1.5-0.8-2.4l3.1-6.4c0.4-0.9,1.5-1.3,2.4-0.8l5.3,2.6
					c0.9,0.4,1.3,1.5,0.8,2.4l-3.1,6.4C96.1,31.5,95,31.8,94.1,31.4z"/>
				<path class="st1" d="M93.8,32L93.8,32l-5.3-2.6c-0.6-0.3-1-0.8-1.2-1.4s-0.2-1.3,0.1-1.9l3.1-6.4c0.3-0.6,0.8-1,1.4-1.2
					s1.3-0.2,1.9,0.1l0,0l5.3,2.6c0.6,0.3,1,0.8,1.2,1.4s0.2,1.3-0.1,1.9l-3.1,6.4C96.5,32.1,95,32.6,93.8,32z M93.2,19.8
					c-0.3-0.1-0.6-0.1-0.9-0.1c-0.3,0.1-0.5,0.3-0.7,0.6l-3.1,6.4c-0.1,0.3-0.1,0.6-0.1,0.9c0.1,0.3,0.3,0.5,0.6,0.7l5.3,2.6l0,0
					l0,0c0.6,0.3,1.2,0.1,1.5-0.5l3.1-6.4c0.1-0.3,0.1-0.6,0.1-0.9c-0.1-0.3-0.3-0.5-0.6-0.7L93.2,19.8L93.2,19.8z"/>
			</g>
			<g>
				<path class="st2" d="M105.7,37.1l-5.3-2.6c-0.9-0.4-1.3-1.5-0.8-2.4l3.1-6.4c0.4-0.9,1.5-1.3,2.4-0.8l5.3,2.6
					c0.9,0.4,1.3,1.5,0.8,2.4l-3.1,6.4C107.7,37.2,106.6,37.5,105.7,37.1z"/>
				<path class="st1" d="M105.4,37.7L105.4,37.7l-5.3-2.6c-0.6-0.3-1-0.8-1.2-1.4c-0.2-0.6-0.2-1.3,0.1-1.9l3.1-6.4
					c0.6-1.2,2.1-1.7,3.3-1.1l0,0l5.3,2.6c0.6,0.3,1,0.8,1.2,1.4s0.2,1.3-0.1,1.9l-3.1,6.4c-0.3,0.6-0.8,1-1.4,1.2
					C106.7,38,106,38,105.4,37.7z M104.8,25.5c-0.6-0.3-1.2-0.1-1.5,0.5l-3.1,6.4c-0.1,0.3-0.1,0.6-0.1,0.9c0.1,0.3,0.3,0.5,0.6,0.7
					l5.3,2.6l0,0l0,0c0.3,0.1,0.6,0.1,0.9,0.1c0.3-0.1,0.5-0.3,0.7-0.6l3.1-6.4c0.1-0.3,0.1-0.6,0.1-0.9c-0.1-0.3-0.3-0.5-0.6-0.7
					L104.8,25.5L104.8,25.5z"/>
			</g>
			<g>
				<path class="st2" d="M117.3,42.8l-5.3-2.6c-0.9-0.4-1.3-1.5-0.8-2.4l3.1-6.4c0.4-0.9,1.5-1.3,2.4-0.8l5.3,2.6
					c0.9,0.4,1.3,1.5,0.8,2.4l-3.1,6.4C119.2,42.8,118.2,43.2,117.3,42.8z"/>
				<path class="st1" d="M117,43.4L117,43.4l-5.3-2.6c-0.6-0.3-1-0.8-1.2-1.4c-0.2-0.6-0.2-1.3,0.1-1.9l3.1-6.4
					c0.3-0.6,0.8-1,1.4-1.2s1.3-0.2,1.9,0.1l0,0l5.3,2.6c0.6,0.3,1,0.8,1.2,1.4c0.2,0.6,0.2,1.3-0.1,1.9l-3.1,6.4
					c-0.3,0.6-0.8,1-1.4,1.2C118.2,43.7,117.6,43.7,117,43.4z M116.4,31.1c-0.3-0.1-0.6-0.1-0.9-0.1c-0.3,0.1-0.5,0.3-0.7,0.6
					l-3.1,6.4c-0.1,0.3-0.1,0.6-0.1,0.9c0.1,0.3,0.3,0.5,0.6,0.7l5.3,2.6l0,0l0,0c0.3,0.1,0.6,0.1,0.9,0.1c0.3-0.1,0.5-0.3,0.7-0.6
					l3.1-6.4c0.1-0.3,0.1-0.6,0.1-0.9c-0.1-0.3-0.3-0.5-0.6-0.7L116.4,31.1L116.4,31.1z"/>
			</g>
			<g>
				<path class="st2" d="M128.5,48.2l-5.3-2.6c-0.9-0.4-1.3-1.5-0.8-2.4l3.1-6.4c0.4-0.9,1.5-1.3,2.4-0.8l5.3,2.6
					c0.9,0.4,1.3,1.5,0.8,2.4l-3.1,6.4C130.4,48.3,129.4,48.7,128.5,48.2z"/>
				<path class="st1" d="M128.2,48.8L128.2,48.8l-5.3-2.6c-0.6-0.3-1-0.8-1.2-1.4c-0.2-0.6-0.2-1.3,0.1-1.9l3.1-6.4
					c0.3-0.6,0.8-1,1.4-1.2s1.3-0.2,1.9,0.1l0,0l5.3,2.6c1.2,0.6,1.7,2.1,1.1,3.3l-3.1,6.4c-0.3,0.6-0.8,1-1.4,1.2
					C129.4,49.2,128.8,49.1,128.2,48.8z M127.6,36.6c-0.3-0.1-0.6-0.1-0.9-0.1c-0.3,0.1-0.5,0.3-0.7,0.6l-3.1,6.4
					c-0.1,0.3-0.1,0.6-0.1,0.9c0.1,0.3,0.3,0.5,0.6,0.7l5.3,2.6l0,0l0,0c0.3,0.1,0.6,0.1,0.9,0.1c0.3-0.1,0.5-0.3,0.7-0.6l3.1-6.4
					c0.3-0.6,0.1-1.2-0.5-1.5L127.6,36.6L127.6,36.6z"/>
			</g>
			<g>
				<path class="st2" d="M139.6,53.7l-5.3-2.6c-0.9-0.4-1.3-1.5-0.8-2.4l3.1-6.4c0.4-0.9,1.5-1.3,2.4-0.8l5.3,2.6
					c0.9,0.4,1.3,1.5,0.8,2.4l-3.1,6.4C141.6,53.8,140.6,54.2,139.6,53.7z"/>
				<path class="st1" d="M139.4,54.3L139.4,54.3l-5.3-2.6c-0.6-0.3-1-0.8-1.2-1.4c-0.2-0.6-0.2-1.3,0.1-1.9l3.1-6.4
					c0.3-0.6,0.8-1,1.4-1.2c0.6-0.2,1.3-0.2,1.9,0.1l0,0l5.3,2.6c0.6,0.3,1,0.8,1.2,1.4c0.2,0.6,0.2,1.3-0.1,1.9l-3.1,6.4
					c-0.3,0.6-0.8,1-1.4,1.2C140.6,54.6,139.9,54.6,139.4,54.3z M138.8,42.1c-0.3-0.1-0.6-0.1-0.9-0.1c-0.3,0.1-0.5,0.3-0.7,0.6
					l-3.1,6.4c-0.1,0.3-0.1,0.6-0.1,0.9c0.1,0.3,0.3,0.5,0.6,0.7l5.3,2.6l0,0l0,0c0.3,0.1,0.6,0.1,0.9,0.1c0.3-0.1,0.5-0.3,0.7-0.6
					l3.1-6.4c0.1-0.3,0.1-0.6,0.1-0.9c-0.1-0.3-0.3-0.5-0.6-0.7L138.8,42.1L138.8,42.1z"/>
			</g>
			<g>
				<path class="st2" d="M150.8,59.2l-5.3-2.6c-0.9-0.4-1.3-1.5-0.8-2.4l3.1-6.4c0.4-0.9,1.5-1.3,2.4-0.8l5.3,2.6
					c0.9,0.4,1.3,1.5,0.8,2.4l-3.1,6.4C152.8,59.3,151.8,59.6,150.8,59.2z"/>
				<path class="st1" d="M150.5,59.8L150.5,59.8l-5.3-2.6c-1.2-0.6-1.7-2.1-1.1-3.3l3.1-6.4c0.3-0.6,0.8-1,1.4-1.2
					c0.6-0.2,1.3-0.2,1.9,0.1l0,0l5.3,2.6c0.6,0.3,1,0.8,1.2,1.4c0.2,0.6,0.2,1.3-0.1,1.9l-3.1,6.4c-0.3,0.6-0.8,1-1.4,1.2
					C151.8,60.1,151.1,60.1,150.5,59.8z M150,47.6c-0.3-0.1-0.6-0.1-0.9-0.1c-0.3,0.1-0.5,0.3-0.7,0.6l-3.1,6.4
					c-0.3,0.6-0.1,1.2,0.5,1.5l5.3,2.6l0,0l0,0c0.3,0.1,0.6,0.1,0.9,0.1c0.3-0.1,0.5-0.3,0.7-0.6l3.1-6.4c0.1-0.3,0.1-0.6,0.1-0.9
					c-0.1-0.3-0.3-0.5-0.6-0.7L150,47.6L150,47.6z"/>
			</g>
			<g>
				<path class="st2" d="M162.4,64.9l-5.3-2.6c-0.9-0.4-1.3-1.5-0.8-2.4l3.1-6.4c0.4-0.9,1.5-1.3,2.4-0.8l5.3,2.6
					c0.9,0.4,1.3,1.5,0.8,2.4l-3.1,6.4C164.4,65,163.3,65.3,162.4,64.9z"/>
				<path class="st1" d="M162.2,65.5C162.1,65.5,162.1,65.5,162.2,65.5l-5.3-2.6c-1.2-0.6-1.7-2.1-1.1-3.3l3.1-6.4
					c0.3-0.6,0.8-1,1.4-1.2c0.6-0.2,1.3-0.2,1.9,0.1l0,0l5.3,2.6c1.2,0.6,1.7,2.1,1.1,3.3l-3.1,6.4c-0.3,0.6-0.8,1-1.4,1.2
					C163.4,65.8,162.7,65.8,162.2,65.5z M161.6,53.3c-0.3-0.1-0.6-0.1-0.9-0.1c-0.3,0.1-0.5,0.3-0.7,0.6l-3.1,6.4
					c-0.3,0.6-0.1,1.2,0.5,1.5l5.3,2.6l0,0l0,0c0.3,0.1,0.6,0.1,0.9,0.1c0.3-0.1,0.5-0.3,0.7-0.6l3.1-6.4c0.3-0.6,0.1-1.2-0.5-1.5
					L161.6,53.3L161.6,53.3z"/>
			</g>
			<g>
				<path class="st2" d="M174.1,70.6l-5.3-2.6c-0.9-0.4-1.3-1.5-0.8-2.4l3.1-6.4c0.4-0.9,1.5-1.3,2.4-0.8l5.3,2.6
					c0.9,0.4,1.3,1.5,0.8,2.4l-3.1,6.4C176,70.6,174.9,71,174.1,70.6z"/>
				<path class="st1" d="M173.8,71.2L173.8,71.2l-5.3-2.6c-0.6-0.3-1-0.8-1.2-1.4s-0.2-1.3,0.1-1.9l3.1-6.4c0.3-0.6,0.8-1,1.4-1.2
					c0.6-0.2,1.3-0.2,1.9,0.1l0,0l5.3,2.6c0.6,0.3,1,0.8,1.2,1.4c0.2,0.6,0.2,1.3-0.1,1.9L177,70c-0.3,0.6-0.8,1-1.4,1.2
					C175,71.5,174.3,71.4,173.8,71.2z M173.2,58.9c-0.3-0.1-0.6-0.1-0.9-0.1c-0.3,0.1-0.5,0.3-0.7,0.6l-3.1,6.4
					c-0.1,0.3-0.1,0.6-0.1,0.9c0.1,0.3,0.3,0.5,0.6,0.7l5.3,2.6l0,0l0,0c0.3,0.1,0.6,0.1,0.9,0.1c0.3-0.1,0.5-0.3,0.7-0.6L179,63
					c0.1-0.3,0.1-0.6,0.1-0.9c-0.1-0.3-0.3-0.5-0.6-0.7L173.2,58.9L173.2,58.9z"/>
			</g>
			<g>
				<path class="st2" d="M185.6,76.2l-5.3-2.6c-0.9-0.4-1.3-1.5-0.8-2.4l3.1-6.4c0.4-0.9,1.5-1.3,2.4-0.8l5.3,2.6
					c0.9,0.4,1.3,1.5,0.8,2.4l-3.1,6.4C187.6,76.3,186.5,76.7,185.6,76.2z"/>
				<path class="st1" d="M185.3,76.8L185.3,76.8l-5.3-2.6c-0.6-0.3-1-0.8-1.2-1.4s-0.2-1.3,0.1-1.9l3.1-6.4c0.3-0.6,0.8-1,1.4-1.2
					c0.6-0.2,1.3-0.2,1.9,0.1l5.3,2.6c0.6,0.3,1,0.8,1.2,1.4s0.2,1.3-0.1,1.9l-3.1,6.4C188,76.9,186.5,77.4,185.3,76.8z M184.8,64.6
					c-0.3-0.1-0.6-0.1-0.9-0.1c-0.3,0.1-0.5,0.3-0.7,0.6l-3.1,6.4c-0.1,0.3-0.1,0.6-0.1,0.9c0.1,0.3,0.3,0.5,0.6,0.7l5.3,2.6l0,0
					l0,0c0.6,0.3,1.2,0.1,1.5-0.5l3.1-6.4c0.1-0.3,0.1-0.6,0.1-0.9c-0.1-0.3-0.3-0.5-0.6-0.7L184.8,64.6L184.8,64.6z"/>
			</g>
			<g>
				<path class="st2" d="M210.8,88.6l-19.7-9.7c-0.9-0.4-1.3-1.5-0.8-2.4l3.1-6.4c0.4-0.9,1.5-1.3,2.4-0.8l19.7,9.7
					c0.9,0.4,1.3,1.5,0.8,2.4l-3.1,6.4C212.8,88.6,211.7,89,210.8,88.6z"/>
				<path class="st1" d="M210.6,89.2L210.6,89.2L210.6,89.2l-19.7-9.7c-0.6-0.3-1-0.8-1.2-1.4s-0.2-1.3,0.1-1.9l3.1-6.4
					c0.3-0.6,0.8-1,1.4-1.2c0.6-0.2,1.3-0.2,1.9,0.1l0,0l19.7,9.7c1.2,0.6,1.7,2.1,1.1,3.3l-3.1,6.4
					C213.2,89.3,211.7,89.8,210.6,89.2z M211.1,88L211.1,88c0.6,0.3,1.2,0.1,1.5-0.5l3.1-6.4c0.3-0.6,0.1-1.2-0.5-1.5l-19.7-9.7l0,0
					c-0.3-0.1-0.6-0.1-0.9-0.1c-0.3,0.1-0.5,0.3-0.7,0.6l-3.1,6.4c-0.1,0.3-0.1,0.6-0.1,0.9c0.1,0.3,0.3,0.5,0.6,0.7L211.1,88z"/>
			</g>
			<g>
				<path class="st2" d="M73.7,36.7l-5.3-2.6c-0.9-0.4-1.3-1.5-0.8-2.4l3.1-6.4c0.4-0.9,1.5-1.3,2.4-0.8l5.3,2.6
					c0.9,0.4,1.3,1.5,0.8,2.4l-3.1,6.4C75.7,36.8,74.5,37.2,73.7,36.7z"/>
				<path class="st1" d="M73.4,37.3L73.4,37.3l-5.3-2.6c-0.6-0.3-1-0.8-1.2-1.4c-0.2-0.6-0.2-1.3,0.1-1.9l3.1-6.4
					c0.3-0.6,0.8-1,1.4-1.2s1.3-0.2,1.9,0.1l0,0l5.3,2.6c0.6,0.3,1,0.8,1.2,1.4s0.2,1.3-0.1,1.9l-3.1,6.4c-0.3,0.6-0.8,1-1.4,1.2
					C74.6,37.6,74,37.6,73.4,37.3z M72.8,25.1C72.5,25,72.2,25,71.9,25c-0.3,0.1-0.5,0.3-0.7,0.6l-3,6.4c-0.1,0.3-0.1,0.6-0.1,0.9
					c0.1,0.3,0.3,0.5,0.6,0.7l5.3,2.6l0,0l0,0c0.3,0.1,0.6,0.1,0.9,0.1c0.3-0.1,0.5-0.3,0.7-0.6l3.1-6.4c0.1-0.3,0.1-0.6,0.1-0.9
					c-0.1-0.3-0.3-0.5-0.6-0.7L72.8,25.1L72.8,25.1z"/>
			</g>
			<g>
				<path class="st2" d="M87.6,43.6l-7.7-3.8c-0.9-0.4-1.3-1.5-0.8-2.4l3.1-6.4c0.4-0.9,1.5-1.3,2.4-0.8l7.7,3.8
					c0.9,0.4,1.3,1.5,0.8,2.4L90,42.8C89.6,43.6,88.5,44,87.6,43.6z"/>
				<path class="st1" d="M87.4,44.2L87.4,44.2L87.4,44.2l-7.7-3.8c-0.6-0.3-1-0.8-1.2-1.4c-0.2-0.6-0.2-1.3,0.1-1.9l3.1-6.4
					c0.3-0.6,0.8-1,1.4-1.2s1.3-0.2,1.9,0.1l0,0l7.7,3.8c0.6,0.3,1,0.8,1.2,1.4c0.2,0.6,0.2,1.3-0.1,1.9L90.6,43
					C90.1,44.3,88.6,44.8,87.4,44.2z M87.9,43L87.9,43c0.6,0.3,1.2,0.1,1.5-0.5l3.1-6.4c0.1-0.3,0.1-0.6,0.1-0.9
					c-0.1-0.3-0.3-0.5-0.6-0.7l-7.7-3.8l0,0c-0.3-0.1-0.6-0.1-0.9-0.1c-0.3,0.1-0.5,0.3-0.7,0.6l-3.1,6.4c-0.1,0.3-0.1,0.6-0.1,0.9
					c0.1,0.3,0.3,0.5,0.6,0.7L87.9,43z"/>
			</g>
			<g>
				<path class="st2" d="M51,25.6L45.7,23c-0.9-0.4-1.3-1.5-0.8-2.4l3.1-6.4c0.4-0.9,1.5-1.3,2.4-0.8l5.3,2.6
					c0.9,0.4,1.3,1.5,0.8,2.4l-3.1,6.4C53,25.7,51.8,26,51,25.6z"/>
				<path class="st1" d="M50.7,26.2L50.7,26.2l-5.3-2.6c-0.6-0.3-1-0.8-1.2-1.4s-0.2-1.3,0.1-1.9l3.1-6.4c0.3-0.6,0.8-1,1.4-1.2
					c0.6-0.2,1.3-0.2,1.9,0.1l0,0l5.3,2.6c0.6,0.3,1,0.8,1.2,1.4s0.2,1.3-0.1,1.9L54,25.1c-0.3,0.6-0.8,1-1.4,1.2
					C51.9,26.5,51.3,26.5,50.7,26.2z M50.1,14c-0.3-0.1-0.6-0.1-0.9-0.1c-0.3,0.1-0.5,0.3-0.7,0.6l-3.1,6.4
					c-0.1,0.3-0.1,0.6-0.1,0.9c0.1,0.3,0.3,0.5,0.6,0.7l5.3,2.6l0,0l0,0c0.3,0.1,0.6,0.1,0.9,0.1c0.3-0.1,0.5-0.3,0.7-0.6l3.1-6.4
					c0.1-0.3,0.1-0.6,0.1-0.9c-0.1-0.3-0.3-0.5-0.6-0.7L50.1,14L50.1,14z"/>
			</g>
			<g>
				<path class="st2" d="M62.6,31.3l-5.3-2.6c-0.9-0.4-1.3-1.5-0.8-2.4l3.1-6.4c0.4-0.9,1.5-1.3,2.4-0.8l5.3,2.6
					c0.9,0.4,1.3,1.5,0.8,2.4L65,30.5C64.5,31.4,63.4,31.7,62.6,31.3z"/>
				<path class="st1" d="M62.3,31.9L62.3,31.9L57,29.3c-0.6-0.3-1-0.8-1.2-1.4s-0.2-1.3,0.1-1.9l3.1-6.4c0.3-0.6,0.8-1,1.4-1.2
					c0.6-0.2,1.3-0.2,1.9,0.1l0,0l5.3,2.6c0.6,0.3,1,0.8,1.2,1.4s0.2,1.3-0.1,1.9l-3.1,6.4C65,32,63.5,32.5,62.3,31.9z M61.7,19.7
					c-0.3-0.1-0.6-0.1-0.9-0.1c-0.3,0.1-0.5,0.3-0.7,0.6L57,26.5c-0.1,0.3-0.1,0.6-0.1,0.9c0.1,0.3,0.3,0.5,0.6,0.7l5.3,2.6l0,0l0,0
					c0.6,0.3,1.2,0.1,1.5-0.5l3.1-6.4c0.1-0.3,0.1-0.6,0.1-0.9c-0.1-0.3-0.3-0.5-0.6-0.7L61.7,19.7L61.7,19.7z"/>
			</g>
			<g>
				<path class="st2" d="M144.4,71.4L94,46.6c-0.9-0.4-1.3-1.5-0.8-2.4l3.1-6.4c0.4-0.9,1.5-1.3,2.4-0.8l50.4,24.8
					c0.9,0.4,1.3,1.5,0.8,2.4l-3.1,6.4C146.4,71.5,145.3,71.8,144.4,71.4z"/>
				<path class="st1" d="M144.1,72L144.1,72L144.1,72L93.7,47.2c-1.2-0.6-1.7-2.1-1.1-3.3l3.1-6.4c0.6-1.2,2.1-1.7,3.3-1.1l0,0
					l50.4,24.8c1.2,0.6,1.7,2.1,1.1,3.3l-3.1,6.4C146.8,72.1,145.3,72.6,144.1,72z M144.7,70.8L144.7,70.8c0.6,0.3,1.2,0.1,1.5-0.5
					l3.1-6.4c0.3-0.6,0.1-1.2-0.5-1.5L98.4,37.6l0,0c-0.6-0.3-1.2-0.1-1.5,0.5l-3.1,6.4c-0.3,0.6-0.1,1.2,0.5,1.5L144.7,70.8z"/>
			</g>
			<g>
				<path class="st2" d="M181.9,89.7l-5.3-2.6c-0.9-0.4-1.3-1.5-0.8-2.4l3.1-6.4c0.4-0.9,1.5-1.3,2.4-0.8l5.3,2.6
					c0.9,0.4,1.3,1.5,0.8,2.4l-3.1,6.4C183.8,89.8,182.8,90.1,181.9,89.7z"/>
				<path class="st1" d="M181.6,90.3L181.6,90.3l-5.3-2.6c-1.2-0.6-1.7-2.1-1.1-3.3l3.1-6.4c0.3-0.6,0.8-1,1.4-1.2
					c0.6-0.2,1.3-0.2,1.9,0.1l0,0l5.3,2.6c1.2,0.6,1.7,2.1,1.1,3.3l-3.1,6.4c-0.3,0.6-0.8,1-1.4,1.2
					C182.8,90.6,182.2,90.6,181.6,90.3z M181,78.1c-0.3-0.1-0.6-0.1-0.9-0.1c-0.3,0.1-0.5,0.3-0.7,0.6l-3.1,6.4
					c-0.3,0.6-0.1,1.2,0.5,1.5l5.3,2.6l0,0l0,0c0.3,0.1,0.6,0.1,0.9,0.1c0.3-0.1,0.5-0.3,0.7-0.6l3.1-6.4c0.3-0.6,0.1-1.2-0.5-1.5
					L181,78.1L181,78.1z"/>
			</g>
			<g>
				<path class="st2" d="M193.5,95.4l-5.3-2.6c-0.9-0.4-1.3-1.5-0.8-2.4l3.1-6.4c0.4-0.9,1.5-1.3,2.4-0.8l5.3,2.6
					c0.9,0.4,1.3,1.5,0.8,2.4l-3.1,6.4C195.4,95.5,194.4,95.8,193.5,95.4z"/>
				<path class="st1" d="M193.2,96L193.2,96l-5.3-2.6c-0.6-0.3-1-0.8-1.2-1.4s-0.2-1.3,0.1-1.9l3.1-6.4c0.3-0.6,0.8-1,1.4-1.2
					s1.3-0.2,1.9,0.1l0,0l5.3,2.6c0.6,0.3,1,0.8,1.2,1.4s0.2,1.3-0.1,1.9l-3.1,6.4c-0.3,0.6-0.8,1-1.4,1.2
					C194.4,96.3,193.8,96.3,193.2,96z M192.6,83.8c-0.3-0.1-0.6-0.1-0.9-0.1c-0.3,0.1-0.5,0.3-0.7,0.6l-3.1,6.4
					c-0.1,0.3-0.1,0.6-0.1,0.9c0.1,0.3,0.3,0.5,0.6,0.7l5.3,2.6l0,0l0,0c0.3,0.1,0.6,0.1,0.9,0.1c0.3-0.1,0.5-0.3,0.7-0.6l3.1-6.4
					c0.1-0.3,0.1-0.6,0.1-0.9c-0.1-0.3-0.3-0.5-0.6-0.7L192.6,83.8L192.6,83.8z"/>
			</g>
			<g>
				<path class="st2" d="M159.1,78.6l-8.3-4.1c-0.9-0.4-1.3-1.5-0.8-2.4l3.1-6.4c0.4-0.9,1.5-1.3,2.4-0.8l8.3,4.1
					c0.9,0.4,1.3,1.5,0.8,2.4l-3.1,6.4C161.1,78.6,160,79,159.1,78.6z"/>
				<path class="st1" d="M158.8,79.2L158.8,79.2L158.8,79.2l-8.3-4.1c-0.6-0.3-1-0.8-1.2-1.4s-0.2-1.3,0.1-1.9l3.1-6.4
					c0.3-0.6,0.8-1,1.4-1.2c0.6-0.2,1.3-0.2,1.9,0.1l0,0l8.3,4.1c0.6,0.3,1,0.8,1.2,1.4s0.2,1.3-0.1,1.9l-3.1,6.4
					C161.6,79.3,160.1,79.8,158.8,79.2z M159.4,78L159.4,78c0.6,0.3,1.2,0.1,1.5-0.5l3.1-6.4c0.1-0.3,0.1-0.6,0.1-0.9
					c-0.1-0.3-0.3-0.5-0.6-0.7l-8.3-4.1l0,0c-0.3-0.1-0.6-0.1-0.9-0.1c-0.3,0.1-0.5,0.3-0.7,0.6l-3.1,6.4c-0.1,0.3-0.1,0.6-0.1,0.9
					c0.1,0.3,0.3,0.5,0.6,0.7L159.4,78z"/>
			</g>
			<g>
				<path class="st2" d="M170,83.9l-5.3-2.6c-0.9-0.4-1.3-1.5-0.8-2.4l3.1-6.4c0.4-0.9,1.5-1.3,2.4-0.8l5.3,2.6
					c0.9,0.4,1.3,1.5,0.8,2.4l-3.1,6.4C171.9,83.9,170.9,84.3,170,83.9z"/>
				<path class="st1" d="M169.7,84.5L169.7,84.5l-5.3-2.6c-0.6-0.3-1-0.8-1.2-1.4s-0.2-1.3,0.1-1.9l3.1-6.4c0.3-0.6,0.8-1,1.4-1.2
					c0.6-0.2,1.3-0.1,1.9,0.1l5.3,2.6c0.6,0.3,1,0.8,1.2,1.4s0.2,1.3-0.1,1.9l-3.1,6.4c-0.3,0.6-0.8,1-1.4,1.2
					C170.9,84.8,170.3,84.8,169.7,84.5z M169.1,72.3c-0.3-0.1-0.6-0.1-0.9-0.1c-0.3,0.1-0.5,0.3-0.7,0.6l-3.1,6.4
					c-0.1,0.3-0.1,0.6-0.1,0.9c0.1,0.3,0.3,0.5,0.6,0.7l5.3,2.6l0,0l0,0c0.3,0.1,0.6,0.1,0.9,0.1c0.3-0.1,0.5-0.3,0.7-0.6l3.1-6.4
					c0.1-0.3,0.1-0.6,0.1-0.9c-0.1-0.3-0.3-0.5-0.6-0.7L169.1,72.3L169.1,72.3z"/>
			</g>
			<g>
				<path class="st2" d="M156.9,0.2l-7.3-3.6c-0.4-0.2-0.5-0.6-0.3-0.9l1-2c0.2-0.4,0.6-0.5,0.9-0.3l7.3,3.6
					c0.4,0.2,0.5,0.6,0.3,0.9l-1,2C157.6,0.2,157.2,0.4,156.9,0.2z"/>
				<path class="st1" d="M156.6,0.8L156.6,0.8L156.6,0.8l-7.3-3.6c-0.7-0.3-1-1.2-0.6-1.8l1-2c0.2-0.3,0.4-0.6,0.8-0.7
					c0.4-0.1,0.7-0.1,1.1,0.1l0,0l7.3,3.6c0.3,0.2,0.6,0.4,0.7,0.8c0.1,0.4,0.1,0.7-0.1,1.1l-1,2C158.1,0.9,157.3,1.1,156.6,0.8z
					 M150.9-6C150.9-6,150.8-6,150.9-6l-1,2c0,0,0,0,0,0.1l7.3,3.6c0,0,0,0,0.1,0l1-2c0,0,0,0,0-0.1L150.9-6L150.9-6z"/>
			</g>
			<g>
				<path class="st2" d="M168.1,5.8l-7.3-3.6c-0.4-0.2-0.5-0.6-0.3-0.9l1-2c0.2-0.4,0.6-0.5,0.9-0.3l7.3,3.6
					c0.4,0.2,0.5,0.6,0.3,0.9l-1,2C168.9,5.8,168.5,5.9,168.1,5.8z"/>
				<path class="st1" d="M167.9,6.4C167.8,6.3,167.8,6.3,167.9,6.4L167.9,6.4l-7.3-3.6c-0.7-0.3-1-1.2-0.6-1.8l1-2
					c0.2-0.3,0.4-0.6,0.8-0.7c0.4-0.1,0.7-0.1,1.1,0.1l7.3,3.6c0.3,0.2,0.6,0.4,0.7,0.8c0.1,0.4,0.1,0.7-0.1,1.1l-1,2
					C169.3,6.4,168.5,6.7,167.9,6.4z M162.2-0.4C162.1-0.4,162.1-0.4,162.2-0.4l-1,2c0,0,0,0,0,0.1l7.3,3.6c0,0,0,0,0.1,0l1-2V3.2
					L162.2-0.4L162.2-0.4z"/>
			</g>
			<g>
				<path class="st2" d="M179.4,11.3l-7.3-3.6c-0.4-0.2-0.5-0.6-0.3-0.9l1-2c0.2-0.4,0.6-0.5,0.9-0.3L181,8c0.4,0.2,0.5,0.6,0.3,0.9
					l-1,2C180.2,11.3,179.7,11.4,179.4,11.3z"/>
				<path class="st1" d="M179.1,11.9L179.1,11.9l-7.3-3.6c-0.3-0.2-0.6-0.4-0.7-0.8s-0.1-0.7,0.1-1.1l1-2c0.2-0.3,0.4-0.6,0.8-0.7
					c0.4-0.1,0.7-0.1,1.1,0.1l0,0l7.3,3.6c0.3,0.2,0.6,0.4,0.7,0.8c0.1,0.4,0.1,0.7-0.1,1.1l-1,2C180.6,11.9,179.8,12.2,179.1,11.9z
					 M173.4,5.1C173.4,5.1,173.3,5.1,173.4,5.1l-1,2c0,0,0,0,0,0.1l7.3,3.6l0,0l0,0c0,0,0,0,0.1,0l1-2c0,0,0,0,0-0.1L173.4,5.1
					L173.4,5.1z"/>
			</g>
			<g>
				<path class="st2" d="M190.6,16.8l-7.3-3.6c-0.4-0.2-0.5-0.6-0.3-0.9l1-2c0.2-0.4,0.6-0.5,0.9-0.3l7.3,3.6
					c0.4,0.2,0.5,0.6,0.3,0.9l-1,2C191.4,16.8,191,17,190.6,16.8z"/>
				<path class="st1" d="M190.3,17.4L190.3,17.4l-7.3-3.6c-0.3-0.2-0.6-0.4-0.7-0.8c-0.1-0.4-0.1-0.7,0.1-1.1l1-2
					c0.3-0.7,1.2-1,1.8-0.6l0,0l7.3,3.6c0.7,0.3,1,1.2,0.6,1.8l-1,2c-0.2,0.3-0.4,0.6-0.8,0.7C191.1,17.6,190.7,17.6,190.3,17.4z
					 M184.7,10.6C184.7,10.6,184.6,10.6,184.7,10.6l-1,2v0.1l7.3,3.6l0,0l0,0c0,0,0,0,0.1,0l1-2c0,0,0,0,0-0.1L184.7,10.6
					L184.7,10.6z"/>
			</g>
			<g>
				<path class="st2" d="M202.3,22.5L195,19c-0.4-0.2-0.5-0.6-0.3-0.9l1-2c0.2-0.4,0.6-0.5,0.9-0.3l7.3,3.6c0.4,0.2,0.5,0.6,0.3,0.9
					l-1,2C203,22.6,202.6,22.7,202.3,22.5z"/>
				<path class="st1" d="M202,23.1L202,23.1L202,23.1l-7.3-3.6c-0.7-0.3-1-1.2-0.6-1.8l1-2c0.3-0.7,1.2-1,1.8-0.6l0,0l7.3,3.6
					c0.7,0.3,1,1.2,0.6,1.8l-1,2c-0.2,0.3-0.4,0.6-0.8,0.7C202.7,23.3,202.3,23.3,202,23.1z M196.3,16.3L196.3,16.3l-1,2
					c0,0,0,0,0,0.1l7.3,3.6c0,0,0,0,0.1,0l1-2c0,0,0,0,0-0.1L196.3,16.3L196.3,16.3z"/>
			</g>
			<g>
				<path id="keyboard_8_" class="st2" d="M133.1,139.1l-75.7-37.2c-1.2-0.6-1.6-2-1.1-3.1l24.3-49.5c0.6-1.2,2-1.6,3.1-1.1
					l75.7,37.2c1.2,0.6,1.6,2,1.1,3.1L136.2,138C135.6,139.1,134.3,139.6,133.1,139.1z"/>
				<path class="st1" d="M132.8,139.7L132.8,139.7L132.8,139.7l-75.7-37.2c-1.5-0.7-2.1-2.5-1.4-4L80.1,49c0.4-0.7,1-1.3,1.7-1.5
					c0.8-0.3,1.6-0.2,2.3,0.1l0,0l75.7,37.2c0.7,0.4,1.3,1,1.5,1.7c0.3,0.8,0.2,1.6-0.1,2.3l-24.4,49.4
					C136.1,139.8,134.3,140.4,132.8,139.7z M133.4,138.5L133.4,138.5c0.8,0.4,1.8,0.1,2.3-0.8L160,88.3c0.2-0.4,0.2-0.9,0.1-1.3
					s-0.5-0.8-0.9-1L83.5,48.8l0,0c-0.4-0.2-0.9-0.2-1.3-0.1c-0.4,0.1-0.8,0.5-1,0.9L56.9,99c-0.4,0.8-0.1,1.8,0.8,2.3L133.4,138.5z
					"/>
			</g>
		</g>
	</g>
</g>
</svg>
