<?xml version="1.0" encoding="utf-8"?>
<!-- Generator: Adobe Illustrator 22.0.1, SVG Export Plug-In . SVG Version: 6.00 Build 0)  -->
<svg version="1.1" id="Layer_1" xmlns="http://www.w3.org/2000/svg" xmlns:xlink="http://www.w3.org/1999/xlink" x="0px" y="0px"
	 viewBox="0 0 81.8 66.5" style="enable-background:new 0 0 81.8 66.5;" xml:space="preserve">
<style type="text/css">
	.st0{fill:#21B0BE;}
	.st1{fill:#D8FEFF;}
</style>
<g id="outline-stroke">
	<g id="mug_1_">
		<path class="st0" d="M17.1,46.1c-7.3-16.3,0-35.3,16.1-42.5S68.4,3.8,75.6,20c7.2,16.2,0,35.3-16.2,42.5
			C43.3,69.7,24.4,62.4,17.1,46.1z M18.5,45.6c6.8,15.4,25,22.5,40.3,15.6s22.2-25,15.3-40.5C67.2,5.2,49.2-1.8,33.8,5
			C18.5,11.9,11.7,30.2,18.5,45.6z"/>
		<path id="handle" class="st0" d="M5.3,55.9l-3.7-8.3c-0.2-0.4,0-0.9,0.4-1.1l13.2-5.9c0.4-0.2,0.9,0,1.1,0.4l3.7,8.3
			c0.2,0.4,0,0.9-0.4,1.1L6.4,56.3C5.9,56.5,5.4,56.3,5.3,55.9z"/>
		<path id="tea" class="st1" d="M21.2,44.3c6.3,14,22.6,20.3,36.4,14.1s20-22.5,13.8-36.5C65.2,7.9,48.9,1.6,35.1,7.8
			C21.2,14,15,30.3,21.2,44.3z M34.7,15.3c-0.3-0.7-0.1-1.4,0.6-1.7c0.7-0.3,1.4-0.1,1.7,0.6c0.3,0.7,0.1,1.4-0.6,1.7
			C35.8,16.2,35,15.9,34.7,15.3z M26.4,41.6c-3.8-8.4-1.9-18.3,4.5-24.7c0.5-0.5,1.3-0.5,1.8,0s0.5,1.3,0,1.8
			c-5.7,5.7-7.3,14.5-4,21.9c0.3,0.7,0.1,1.4-0.6,1.7S26.7,42.3,26.4,41.6z"/>
	</g>
</g>
</svg>
