<?xml version="1.0" encoding="utf-8"?>
<!-- Generator: Adobe Illustrator 22.0.1, SVG Export Plug-In . SVG Version: 6.00 Build 0)  -->
<svg version="1.1" id="Layer_1" xmlns="http://www.w3.org/2000/svg" xmlns:xlink="http://www.w3.org/1999/xlink" x="0px" y="0px"
	 viewBox="0 0 158.3 181.5" style="enable-background:new 0 0 158.3 181.5;" xml:space="preserve">
<style type="text/css">
	.st0{fill:#FFFFFF;}
	.st1{fill:#21B0BE;}
	.st2{fill:#7CE5E5;}
</style>
<g id="outline-stroke_1_">
	<g id="notebook_1_">
		<g id="pages">
			<g id="outer">
				<g>
					<path id="l_1_" class="st0" d="M126.5,152.7L95.5,25c-0.7-2.6,1-5.3,3.6-6l79.3-19.1c2.6-0.7,5.3,1,6,3.6l30.9,127.7
						c0.7,2.6-1,5.3-3.6,6l-79.3,19.2C129.7,157,127,155.4,126.5,152.7z"/>
					<path class="st1" d="M128,156.8c-1.4-0.9-2.4-2.3-2.7-3.8l-31-127.7c-0.8-3.3,1.2-6.7,4.5-7.5l79.3-19.2
						c3.3-0.8,6.7,1.2,7.5,4.5l30.9,127.7c0.4,1.6,0.2,3.3-0.7,4.7c-0.9,1.4-2.2,2.4-3.8,2.8l-79.3,19.2c-0.5,0.1-1,0.2-1.5,0.2
						C130.1,157.7,128.9,157.4,128,156.8z M178.7,1L99.4,20.2c-1.9,0.5-3.2,2.6-2.7,4.6l31,127.7c0.2,0.9,0.8,1.7,1.6,2.2
						c0.9,0.6,1.9,0.7,2.9,0.5l0,0l79.3-19.2c1-0.2,1.8-0.8,2.3-1.7s0.6-1.9,0.4-2.9L183.3,3.7c-0.4-1.6-2-2.8-3.7-2.8
						C179.3,0.9,179,0.9,178.7,1z"/>
				</g>
				<g>
					<path id="r_3_" class="st0" d="M33.1,175.3L2.1,47.6c-0.7-2.6,1-5.3,3.6-6L85,22.4c2.6-0.7,5.3,1,6,3.6l30.8,127.8
						c0.7,2.6-1,5.3-3.6,6L38.9,179C36.3,179.7,33.5,178,33.1,175.3z"/>
					<path class="st1" d="M34.5,179.5c-1.4-0.9-2.4-2.3-2.7-3.8L0.8,48C0,44.7,2,41.3,5.3,40.5l79.3-19.2c3.3-0.8,6.7,1.2,7.5,4.5
						L123,153.5c0.4,1.6,0.2,3.3-0.7,4.7c-0.9,1.4-2.2,2.4-3.8,2.8l-79.2,19.2c-0.5,0.1-1,0.2-1.5,0.2
						C36.6,180.4,35.5,180,34.5,179.5z M85.2,23.6L5.9,42.8c-1.9,0.5-3.2,2.6-2.7,4.6l31,127.7c0.2,0.9,0.8,1.7,1.6,2.2
						c0.9,0.6,1.9,0.7,2.9,0.5l0,0l79.3-19.2c1-0.2,1.8-0.8,2.3-1.7s0.6-1.9,0.4-2.9L89.8,26.3c-0.4-1.6-2-2.8-3.7-2.8
						C85.8,23.5,85.5,23.5,85.2,23.6z"/>
				</g>
			</g>
			<g id="inner">
				<g>
					
						<rect x="116.7" y="12.9" transform="matrix(0.9718 -0.2356 0.2356 0.9718 -14.033 38.8023)" class="st2" width="77.3" height="130.4"/>
					<path class="st1" d="M132,150.9L101.4,24.1c-0.1-0.3-0.1-0.6,0.1-0.9c0.1-0.2,0.4-0.4,0.7-0.5l75-18.2c0.7-0.1,1.3,0.3,1.5,0.9
						l30.7,126.8c0.1,0.3,0.1,0.6-0.1,0.9c-0.1,0.2-0.4,0.4-0.7,0.5l-75.1,18.2c-0.1,0-0.2,0-0.3,0
						C132.7,151.8,132.2,151.5,132,150.9z M176.7,7.2l-72.8,17.6l30.2,124.3l72.8-17.6L176.7,7.2z"/>
				</g>
				<g>
					
						<rect id="r_2_" x="23.5" y="35.5" transform="matrix(0.9718 -0.2356 0.2356 0.9718 -21.9686 17.4721)" class="st2" width="77.3" height="130.4"/>
					<path class="st1" d="M39.3,174.1c-0.2-0.1-0.4-0.4-0.5-0.7L8.1,46.6C8,46.3,8,46,8.2,45.7c0.1-0.2,0.4-0.4,0.7-0.5L84,27
						c0.7-0.1,1.3,0.3,1.5,0.9l30.7,126.8c0.1,0.7-0.3,1.3-0.9,1.5l-75.1,18.2c-0.1,0-0.2,0-0.3,0C39.7,174.4,39.4,174.3,39.3,174.1
						z M83.4,29.6L10.6,47.3l30.2,124.4l72.8-17.6L83.4,29.6z"/>
				</g>
			</g>
		</g>
		<g>
			
				<rect x="29.5" y="76.9" transform="matrix(0.9718 -0.2356 0.2356 0.9718 -17.0117 13.8712)" class="st1" width="40" height="2.4"/>
			
				<rect x="31" y="82.3" transform="matrix(0.9717 -0.2363 0.2363 0.9717 -18.1313 15.6549)" class="st1" width="50.4" height="2.4"/>
			
				<rect x="32.8" y="91.7" transform="matrix(0.9724 -0.2332 0.2332 0.9724 -20.3996 13.2307)" class="st1" width="25.8" height="2.4"/>
			
				<rect x="38.8" y="114.9" transform="matrix(0.9718 -0.2356 0.2356 0.9718 -25.6942 17.1173)" class="st1" width="40" height="2.4"/>
			
				<rect x="40.3" y="120.2" transform="matrix(0.9716 -0.2364 0.2364 0.9716 -26.847 18.9213)" class="st1" width="50.4" height="2.4"/>
			
				<rect x="42.1" y="129.7" transform="matrix(0.9715 -0.2372 0.2372 0.9715 -29.4881 16.7877)" class="st1" width="25.8" height="2.4"/>
			
				<rect x="34.2" y="95.5" transform="matrix(0.9717 -0.2361 0.2361 0.9717 -21.237 16.0844)" class="st1" width="44.7" height="2.4"/>
			
				<rect x="35.5" y="100.6" transform="matrix(0.9717 -0.236 0.236 0.9717 -22.216 17.9178)" class="st1" width="56.4" height="2.4"/>
			
				<rect x="37.3" y="109" transform="matrix(0.9716 -0.2366 0.2366 0.9716 -24.4786 16.4923)" class="st1" width="38.3" height="2.4"/>
			<g>
				<path class="st1" d="M46.1,62.6l0.3,1L44.9,64l1,4.1l-1.1,0.3l-1-4.1l-1.7,0.3l-0.3-1L46.1,62.6z"/>
				<path class="st1" d="M52.2,63.9c0.4,1.4-0.5,2.9-2.1,3.2c-1.5,0.4-3-0.5-3.3-1.9c-0.4-1.5,0.5-2.9,2.1-3.2
					C50.3,61.6,51.7,62.4,52.2,63.9z M47.9,64.9c0.2,0.9,1.1,1.5,2,1.2c0.9-0.2,1.5-1.1,1.2-2c-0.2-0.9-1.1-1.5-1.9-1.1
					C48.1,63.1,47.6,64,47.9,64.9z"/>
				<path class="st1" d="M59.8,61.9c0.4,1.5-0.6,2.8-2.1,3.2l-2.1,0.5l-1.3-5.1l2.1-0.5C58,59.8,59.4,60.4,59.8,61.9z M58.6,62.3
					c-0.2-0.9-1-1.5-1.8-1.2l-1,0.3l0.7,3.1l1-0.3C58.4,64,58.8,63.2,58.6,62.3z"/>
				<path class="st1" d="M65.4,60.6c0.4,1.4-0.5,2.9-2.1,3.2s-3-0.5-3.3-1.9c-0.4-1.5,0.5-2.9,2.1-3.2
					C63.6,58.4,65.1,59.1,65.4,60.6z M61.2,61.5c0.2,0.9,1.1,1.5,2,1.2c0.9-0.2,1.5-1.1,1.2-2c-0.2-0.9-1.1-1.5-1.9-1.1
					C61.6,59.9,61,60.7,61.2,61.5z"/>
			</g>
		</g>
		<g>
			<path class="st1" d="M88.7,29.7l-0.4-1.8c-0.1-0.3,0.1-0.5,0.3-0.5l9.3-2.3c0.3-0.1,0.5,0.1,0.5,0.3l0.4,1.8
				c0.1,0.3-0.1,0.5-0.3,0.5L89.2,30C89,30.1,88.8,29.9,88.7,29.7z"/>
			<path class="st1" d="M90.4,36.5L90,34.7c-0.1-0.3,0.1-0.5,0.3-0.5l9.3-2.3c0.3-0.1,0.5,0.1,0.5,0.3l0.4,1.8
				c0.1,0.3-0.1,0.5-0.3,0.5l-9.3,2.3C90.6,36.9,90.4,36.8,90.4,36.5z"/>
			<path class="st1" d="M92.2,43.5l-0.4-1.9c-0.1-0.3,0.1-0.5,0.3-0.5l9.3-2.3c0.3-0.1,0.5,0.1,0.5,0.3l0.4,1.8
				c0.1,0.3-0.1,0.5-0.3,0.5l-9.4,2.3C92.3,43.8,92.1,43.6,92.2,43.5z"/>
			<path class="st1" d="M93.8,50.3l-0.4-1.8c-0.1-0.3,0.1-0.5,0.3-0.5l9.3-2.3c0.3-0.1,0.5,0.1,0.5,0.3l0.4,1.8
				c0.1,0.3-0.1,0.5-0.3,0.5l-9.3,2.3C93.9,50.6,93.8,50.5,93.8,50.3z"/>
			<path class="st1" d="M95.4,57.1L95,55.3c-0.1-0.3,0.1-0.5,0.3-0.5l9.3-2.3c0.3-0.1,0.5,0.1,0.5,0.3l0.4,1.8
				c0.1,0.3-0.1,0.5-0.3,0.5l-9.3,2.3C95.7,57.6,95.5,57.4,95.4,57.1z"/>
			<path class="st1" d="M97,64l-0.3-1.7c-0.1-0.3,0.1-0.5,0.3-0.5l9.3-2.3c0.3-0.1,0.5,0.1,0.5,0.3l0.4,1.8c0.1,0.3-0.1,0.5-0.3,0.5
				l-9.3,2.3C97.3,64.4,97.1,64.2,97,64z"/>
			<path class="st1" d="M98.7,70.9l-0.4-1.8c-0.1-0.3,0.1-0.5,0.3-0.5l9.3-2.3c0.3-0.1,0.5,0.1,0.5,0.3l0.4,1.8
				c0.1,0.3-0.1,0.5-0.3,0.5l-9.3,2.3C99,71.3,98.8,71.2,98.7,70.9z"/>
			<path class="st1" d="M100.4,77.8L100,76c-0.1-0.3,0.1-0.5,0.3-0.5l9.3-2.3c0.3-0.1,0.5,0.1,0.5,0.3l0.4,1.8
				c0.1,0.3-0.1,0.5-0.3,0.5l-9.3,2.3C100.6,78.1,100.4,78,100.4,77.8z"/>
			<path class="st1" d="M102.1,84.6l-0.4-1.8c-0.1-0.3,0.1-0.5,0.3-0.5l9.3-2.3c0.3-0.1,0.5,0.1,0.5,0.3l0.4,1.8
				c0.1,0.3-0.1,0.5-0.3,0.5l-9.3,2.3C102.3,85,102.1,84.8,102.1,84.6z"/>
			<path class="st1" d="M103.8,91.5l-0.4-1.8c-0.1-0.3,0.1-0.5,0.3-0.5l9.3-2.3c0.3-0.1,0.5,0.1,0.5,0.3l0.4,1.8
				c0.1,0.3-0.1,0.5-0.3,0.5l-9.3,2.3C103.9,91.9,103.7,91.7,103.8,91.5z"/>
			<path class="st1" d="M105.4,98.4l-0.4-1.8c-0.1-0.3,0.1-0.5,0.3-0.5l9.3-2.3c0.3-0.1,0.5,0.1,0.5,0.3l0.4,1.8
				c0.1,0.3-0.1,0.5-0.3,0.5l-9.3,2.3C105.7,98.7,105.5,98.6,105.4,98.4z"/>
			<path class="st1" d="M107,105.2l-0.3-1.8c-0.1-0.3,0.1-0.5,0.3-0.5l9.3-2.3c0.3-0.1,0.5,0.1,0.5,0.3l0.4,1.8
				c0.1,0.3-0.1,0.5-0.3,0.5l-9.3,2.3C107.3,105.6,107.1,105.4,107,105.2z"/>
			<path class="st1" d="M108.8,112.2l-0.5-1.8c-0.1-0.3,0.1-0.5,0.3-0.5l9.3-2.3c0.3-0.1,0.5,0.1,0.5,0.3l0.4,1.8
				c0.1,0.3-0.1,0.5-0.3,0.5l-9.3,2.3C109,112.5,108.8,112.3,108.8,112.2z"/>
			<path class="st1" d="M110.4,119l-0.4-1.8c-0.1-0.3,0.1-0.5,0.3-0.5l9.3-2.3c0.3-0.1,0.5,0.1,0.5,0.3l0.4,1.8
				c0.1,0.3-0.1,0.5-0.3,0.5l-9.4,2.3C110.6,119.4,110.4,119.2,110.4,119z"/>
			<path class="st1" d="M112.1,125.9l-0.4-1.8c-0.1-0.3,0.1-0.5,0.3-0.5l9.3-2.3c0.3-0.1,0.5,0.1,0.5,0.3l0.4,1.8
				c0.1,0.3-0.1,0.5-0.3,0.5l-9.3,2.3C112.3,126.2,112.1,126.1,112.1,125.9z"/>
			<path class="st1" d="M113.8,132.7l-0.4-1.8c-0.1-0.3,0.1-0.5,0.3-0.5l9.3-2.3c0.3-0.1,0.5,0.1,0.5,0.3l0.4,1.8
				c0.1,0.3-0.1,0.5-0.3,0.5l-9.3,2.3C113.9,133.1,113.8,133,113.8,132.7z"/>
			<path class="st1" d="M115.4,139.6l-0.4-1.8c-0.1-0.3,0.1-0.5,0.3-0.5l9.3-2.3c0.3-0.1,0.5,0.1,0.5,0.3l0.4,1.8
				c0.1,0.3-0.1,0.5-0.3,0.5l-9.3,2.3C115.6,139.9,115.5,139.8,115.4,139.6z"/>
			<path class="st1" d="M117,146.4l-0.4-1.8c-0.1-0.3,0.1-0.5,0.3-0.5l9.3-2.3c0.3-0.1,0.5,0.1,0.5,0.3l0.4,1.8
				c0.1,0.3-0.1,0.5-0.3,0.5l-9.3,2.3C117.3,146.8,117.1,146.7,117,146.4z"/>
			<path class="st1" d="M118.7,153.3l-0.4-1.8c-0.1-0.3,0.1-0.5,0.3-0.5l9.3-2.3c0.3-0.1,0.5,0.1,0.5,0.3l0.4,1.8
				c0.1,0.3-0.1,0.5-0.3,0.5l-9.3,2.3C119,153.6,118.8,153.5,118.7,153.3z"/>
		</g>
	</g>
</g>
</svg>
