<?xml version="1.0" encoding="utf-8"?>
<!-- Generator: Adobe Illustrator 22.0.1, SVG Export Plug-In . SVG Version: 6.00 Build 0)  -->
<svg version="1.1" id="Layer_1" xmlns="http://www.w3.org/2000/svg" xmlns:xlink="http://www.w3.org/1999/xlink" x="0px" y="0px"
	 viewBox="0 0 103.9 183.2" style="enable-background:new 0 0 103.9 183.2;" xml:space="preserve">
<style type="text/css">
	.st0{fill:#7CE5E5;}
	.st1{fill:#21B0BE;}
</style>
<g id="outline-stroke_2_">
	<g id="headphohnes_1_">
		<g id="fill_3_">
			<g>
				<path class="st0" d="M66.8,36.6c-0.2,0.4-0.1,0.8,0.3,0.9l3,1.5c0.7,0.4,5-11.2,5.3-12c2-5.6,4.2-11.4,3.2-17.6
					C78.1,7,77,4.1,75.1,2.6c-2.3-1.7-4.6,0-6.1,1.9c-1.8,2-3.2,4.7-3,7.6c0.1,1.8,0.8,4.2,2.4,5c1.1,0.7,2,0.4,3.1,0
					c0.6-0.2,2.4-1.3,2.9-0.7c0.7,0.8-1.4,5.1-1.6,5.7C72.2,23.7,68,33.9,66.8,36.6z"/>
				<path class="st1" d="M70.3,39.4L70.3,39.4c-0.2,0.1-0.3,0-0.4,0l-3-1.5c-0.5-0.2-0.7-0.9-0.5-1.5c1.2-2.5,5.3-12.8,5.9-14.3
					c0.1-0.1,0.1-0.3,0.2-0.5c1.6-3.6,1.6-4.6,1.4-4.7c0-0.1-0.4-0.2-2,0.6c-0.2,0.1-0.4,0.1-0.4,0.3c-0.9,0.3-2.2,0.7-3.5,0
					c-1.7-1-2.5-3.5-2.6-5.4c-0.2-2.6,0.8-5.3,3.1-8c2.3-2.8,4.6-3.5,6.7-2c2.5,1.9,3.4,5.6,3.7,7.2c1,6.2-1.1,12-3.1,17.7l0,0.2
					C75.6,27.3,71.5,38.6,70.3,39.4z M71.2,2.8c-0.8,0.5-1.5,1.2-2.1,1.9c-2,2.6-2.9,5.1-2.8,7.5c0.1,1.9,0.8,3.9,2.2,4.8
					c0.9,0.5,1.7,0.3,2.7-0.1c0.1,0,0.3-0.1,0.3-0.2c1-0.5,2.4-1.1,3.1-0.3c0.5,0.7,0.2,2.1-1.3,5.6c-0.1,0.3-0.2,0.4-0.2,0.5
					c-0.6,1.5-4.7,11.7-5.9,14.3l0,0c-0.1,0.1,0,0.3,0.1,0.4l2.7,1.4c1-1.2,3.9-8.7,5-11.7l0-0.2c2-5.6,4.1-11.2,3.1-17.1
					c-0.5-2.9-1.8-5.4-3.3-6.6C73.5,2,72.3,2.2,71.2,2.8z"/>
			</g>
			<g>
				<path class="st0" d="M46.4,44.7c0,0-8.9-3.3-9.9,8.2c-0.8,10.5-0.7,23.8-0.7,26.2c0.1,0.2,0.1,0.4,0.4,0.4l3.2,0.3
					c0.2,0,0.4-0.1,0.4-0.4l0.5-20c0-0.3,0.4-0.4,0.5-0.3c1.3,0.8,4.8,2.3,8.4-0.4c1.5-1.1,2.4-2.8,2.7-4.8l0.1-1.7
					c0.2-2.1-0.6-4.1-2.1-5.4C49,45.8,47.8,45,46.4,44.7z"/>
				<path class="st1" d="M39.8,80c-0.2,0.1-0.4,0.1-0.5,0.1l-3.2-0.3c-0.4-0.1-0.8-0.4-0.7-0.8c0-2.5-0.2-15.6,0.7-26
					c0.3-3.9,1.6-6.7,3.8-8c2.9-1.8,6.2-0.8,6.7-0.6c1.2,0.2,2.5,0.9,3.9,2c1.6,1.3,2.4,3.6,2.2,5.9L52.4,54c-0.2,2.1-1.3,4-2.8,5.1
					c-3.8,2.7-7.4,1.2-8.9,0.4l-0.6,19.9C40.2,79.6,40.2,79.8,39.8,80C39.9,80,39.9,80,39.8,80z M36.3,78.9l3.1,0.3l0.5-20
					c0-0.3,0.1-0.6,0.4-0.7c0.3-0.2,0.6-0.1,0.9,0c1.3,0.7,4.5,2.1,7.9-0.3c1.4-1,2.3-2.6,2.5-4.5l0.1-1.7c0.2-2-0.6-3.9-2-5.1
					c-1.2-1.1-2.4-1.7-3.4-1.9l-0.1,0c0,0-3.3-1.2-6,0.5c-2,1.2-3.1,3.7-3.4,7.4C36.2,63.4,36.2,76.3,36.3,78.9z"/>
			</g>
		</g>
		<g id="lines_1_">
			<path class="st1" d="M9.9,119.7c-3.6,2.2-6.7,3.8-9.1,4.8c-5.1,2.4-8.2,3.2-8.3,3.2l-0.2-0.9c0,0,3.2-0.9,8.3-3.2
				c4.7-2.1,11.9-6.1,20-12.5c14.3-11.4,33.9-32.7,46.6-70.3l0.8,0.2C55.2,79.1,35.4,100.6,21,112C17,115.1,13.3,117.7,9.9,119.7z"
				/>
			<path class="st1" d="M9.9,177.5c-3.6,2.2-7.5,4.1-11.5,5.6l-0.3-0.9c11.1-4,20.8-11.1,28.2-20.3c7.8-9.7,12.5-21.4,13.7-33.9
				c1.4-15-0.5-30.3-2.3-45.2l-0.1-1.3l0.8-0.1l0.1,1.3c1.9,14.9,3.7,30.4,2.3,45.4c-1.1,12.7-6,24.6-14,34.4
				C22.3,168.5,16.4,173.6,9.9,177.5z"/>
			<path class="st1" d="M69.9,11.4c-0.2,0.1-0.5,0.2-0.6,0c-0.3-0.2-0.4-0.6-0.2-0.9L71,7.3c0.2-0.3,0.6-0.4,0.9-0.2
				c0.3,0.2,0.4,0.6,0.2,0.9l-1.9,3.2C70.1,11.3,70,11.3,69.9,11.4z"/>
			<g id="largerLine">
				<path class="st1" d="M67.6,42.2c-0.3,0.2-0.5,0.2-0.7,0c-0.5-0.2-0.7-0.6-0.6-1.1l1-2.8c0.2-0.5,0.6-0.7,1.1-0.6
					c0.5,0.2,0.7,0.6,0.6,1.1l-1,2.8C68,42,67.8,42.1,67.6,42.2z"/>
				<path class="st1" d="M38.7,83.8c-0.1,0-0.3,0.1-0.4,0.1c-0.5,0.1-1-0.3-0.9-0.8l-0.3-3c-0.1-0.5,0.3-1,0.8-0.9
					c0.5-0.1,1,0.3,0.9,0.8l0.3,3C39.2,83.3,38.9,83.6,38.7,83.8z"/>
			</g>
		</g>
	</g>
</g>
</svg>
