<?xml version="1.0" encoding="utf-8"?>
<!-- Generator: Adobe Illustrator 22.0.1, SVG Export Plug-In . SVG Version: 6.00 Build 0)  -->
<svg version="1.1" id="Layer_1" xmlns="http://www.w3.org/2000/svg" xmlns:xlink="http://www.w3.org/1999/xlink" x="0px" y="0px"
	 viewBox="0 0 195 170.2" style="enable-background:new 0 0 195 170.2;" xml:space="preserve">
<style type="text/css">
	.st0{fill:#D8FEFF;}
	.st1{fill:#21B0BE;}
	.st2{fill:#7CE5E5;}
</style>
<g id="outline-stroke_3_">
	<g id="blue-keyboard_x5F_rounded">
		<g>
			<path id="keyboard_1_" class="st0" d="M11.9,166.2L-54,32.1c-1-2-0.2-4.4,1.8-5.4L122-58.9c2-1,4.4-0.2,5.4,1.8L193.3,77
				c1,2,0.2,4.4-1.8,5.4L17.3,168C15.2,169,12.8,168.2,11.9,166.2z"/>
			<path class="st1" d="M13.9,168.9c-1.2-0.4-2.2-1.3-2.7-2.4l-66-134.2c-1.1-2.3-0.1-5.2,2.2-6.3l174.3-85.6l0,0
				c1.1-0.5,2.4-0.6,3.6-0.2s2.2,1.3,2.7,2.4l66,134.1c1.1,2.3,0.1,5.2-2.2,6.3L17.5,168.7c0-0.1,0-0.1,0,0
				C16.4,169.2,15.1,169.3,13.9,168.9z M191.2,81.8c1.7-0.8,2.4-2.8,1.5-4.5L126.8-56.8c-0.4-0.8-1.1-1.4-1.9-1.7
				c-0.9-0.2-1.8-0.2-2.6,0.2l0,0L-51.9,27.3c-1.6,0.8-2.3,2.8-1.5,4.5l65.9,134.1c0.4,0.8,1.1,1.4,1.9,1.7c0.9,0.2,1.8,0.2,2.6-0.2
				l0,0L191.2,81.8z"/>
		</g>
		<g id="keyboard_6_">
			<g>
				<path class="st2" d="M62.4,2.8l-3.1-6.4c-0.5-0.9-0.1-2,0.8-2.4l5.3-2.6c0.9-0.5,2-0.1,2.4,0.8l3.1,6.4c0.5,0.9,0.1,2-0.8,2.4
					l-5.3,2.6C63.9,4.1,62.8,3.7,62.4,2.8z"/>
				<path class="st1" d="M61.8,3.1l-3.1-6.4c-0.6-1.2-0.1-2.7,1.1-3.3l5.3-2.6l0,0c1.2-0.6,2.7-0.1,3.3,1.1l3.1,6.4
					c0.3,0.6,0.3,1.3,0.1,1.9S71,1.3,70.4,1.6l-5.3,2.6l0,0l0,0C63.8,4.8,62.4,4.3,61.8,3.1z M69.8,0.5c0.3-0.2,0.5-0.4,0.6-0.7
					c0-0.3,0-0.6-0.1-0.9l-3.1-6.4C67-7.8,66.8-8,66.5-8.1c-0.3,0-0.6,0-0.9,0.1l0,0l-5.2,2.6c-0.6,0.3-0.8,0.9-0.5,1.5L63,2.5
					c0.3,0.6,0.9,0.8,1.5,0.5l0,0L69.8,0.5z"/>
			</g>
			<g>
				<path class="st2" d="M51.2,8.3l-3.1-6.4c-0.5-0.9-0.1-2,0.8-2.4l5.3-2.6c0.9-0.5,2-0.1,2.4,0.8l3.1,6.4c0.5,0.9,0.1,2-0.8,2.4
					l-5.3,2.6C52.7,9.6,51.6,9.2,51.2,8.3z"/>
				<path class="st1" d="M50.6,8.6l-3.1-6.4c-0.6-1.2-0.1-2.7,1.1-3.3l5.3-2.6l0,0C54.5-4,55.2-4,55.8-3.8c0.6,0.2,1.1,0.6,1.4,1.2
					l3.1,6.4c0.3,0.6,0.3,1.3,0.1,1.9s-0.6,1.1-1.2,1.4l-5.3,2.6l0,0l0,0C52.6,10.3,51.2,9.8,50.6,8.6z M58.6,5.9
					c0.3-0.2,0.5-0.4,0.6-0.7c0-0.3,0-0.6,0-0.8L56.1-2c-0.2-0.3-0.4-0.5-0.7-0.6c-0.3,0-0.6,0-0.9,0.1l0,0l-5.3,2.6
					c-0.6,0.3-0.8,0.9-0.5,1.5L51.8,8c0.3,0.6,0.9,0.8,1.5,0.5l0,0L58.6,5.9z"/>
			</g>
			<g>
				<path class="st2" d="M39.6,14l-3.1-6.4c-0.5-0.9-0.1-2,0.8-2.4l5.3-2.6c0.9-0.5,2-0.1,2.4,0.8l3.1,6.4c0.5,0.9,0.1,2-0.8,2.4
					L42,14.8C41.1,15.2,40,14.9,39.6,14z"/>
				<path class="st1" d="M39,14.3l-3.1-6.4c-0.6-1.2-0.1-2.7,1.1-3.3L42.3,2l0,0c1.2-0.6,2.7-0.1,3.3,1.1l3.1,6.4
					c0.3,0.6,0.3,1.3,0.1,1.9c-0.2,0.6-0.6,1.1-1.2,1.4l-5.3,2.6l0,0l0,0C41.1,16,39.6,15.5,39,14.3z M47,11.7
					c0.3-0.2,0.5-0.4,0.6-0.7c0-0.3,0-0.6-0.1-0.9l-3.1-6.4c-0.3-0.6-0.9-0.8-1.5-0.5l0,0l-5.3,2.6c-0.6,0.3-0.8,0.9-0.5,1.5
					l3.1,6.4c0.3,0.6,0.9,0.8,1.5,0.5l0,0L47,11.7z"/>
			</g>
			<g>
				<path class="st2" d="M28.4,19.5l-3.1-6.4c-0.5-0.9-0.1-2,0.8-2.4l5.3-2.6c0.9-0.5,2-0.1,2.4,0.8l3.1,6.4c0.5,0.9,0.1,2-0.8,2.4
					l-5.3,2.6C29.9,20.7,28.8,20.3,28.4,19.5z"/>
				<path class="st1" d="M27.8,19.8l-3.1-6.4c-0.6-1.2-0.1-2.7,1.1-3.3l5.3-2.6l0,0c0.6-0.3,1.3-0.3,1.9-0.1
					c0.6,0.2,1.1,0.6,1.4,1.2l3.1,6.4c0.3,0.6,0.3,1.3,0.1,1.9S37,18,36.4,18.3l-5.3,2.6l0,0l0,0C29.9,21.5,28.4,21,27.8,19.8z
					 M35.9,17.2c0.3-0.2,0.5-0.4,0.6-0.7c0-0.3,0-0.6-0.1-0.9l-3.1-6.4c-0.2-0.3-0.4-0.5-0.7-0.6c-0.3,0-0.6,0-0.9,0.1l0,0l-5.3,2.6
					c-0.6,0.3-0.8,0.9-0.5,1.5l3.1,6.4c0.3,0.6,0.9,0.8,1.5,0.5l0,0L35.9,17.2z"/>
			</g>
			<g>
				<path class="st2" d="M16.8,25.2l-3.1-6.4c-0.5-0.9-0.1-2,0.8-2.4l5.3-2.6c0.9-0.5,2-0.1,2.4,0.8l3.1,6.4c0.5,0.9,0.1,2-0.8,2.4
					L19.2,26C18.3,26.4,17.2,26,16.8,25.2z"/>
				<path class="st1" d="M16.2,25.5l-3.1-6.4c-0.3-0.6-0.3-1.3-0.1-1.9s0.6-1.1,1.2-1.4l5.3-2.6l0,0c0.6-0.3,1.3-0.3,1.9-0.1
					c0.6,0.2,1.1,0.6,1.4,1.2l3.1,6.4c0.3,0.6,0.3,1.3,0.1,1.9s-0.6,1.1-1.2,1.4l-5.3,2.6l0,0l0,0C18.3,27.1,16.8,26.6,16.2,25.5z
					 M24.3,22.8c0.3-0.2,0.5-0.4,0.6-0.7c0-0.3,0-0.6-0.1-0.9l-3.1-6.4c-0.2-0.3-0.4-0.5-0.7-0.6c-0.3,0-0.6,0-0.9,0.1l0,0l-5.3,2.6
					c-0.3,0.2-0.5,0.4-0.6,0.7c0,0.3,0,0.6,0.1,0.9l3.1,6.4c0.3,0.6,0.9,0.8,1.5,0.5l0,0L24.3,22.8z"/>
			</g>
			<g>
				<path class="st2" d="M5.2,30.8l-3.1-6.4c-0.5-0.9-0.1-2,0.8-2.4l5.3-2.6c0.9-0.5,2-0.1,2.4,0.8l3.1,6.4c0.5,0.9,0.1,2-0.8,2.4
					l-5.3,2.6C6.7,32.1,5.6,31.7,5.2,30.8z"/>
				<path class="st1" d="M4.6,31.1l-3.1-6.4c-0.6-1.2-0.1-2.7,1.1-3.3l5.3-2.6l0,0c1.2-0.6,2.7-0.1,3.3,1.1l3.1,6.4
					c0.6,1.2,0.1,2.7-1.1,3.3l-5.3,2.6l0,0l0,0C6.7,32.8,5.2,32.3,4.6,31.1z M12.7,28.4c0.6-0.3,0.8-0.9,0.5-1.5l-3.1-6.4
					c-0.2-0.3-0.4-0.5-0.7-0.6c-0.3,0-0.6,0-0.9,0.1l0,0l-5.3,2.6c-0.6,0.3-0.8,0.9-0.5,1.5l3.1,6.4c0.3,0.6,0.9,0.8,1.5,0.5l0,0
					L12.7,28.4z"/>
			</g>
			<g>
				<path class="st2" d="M-6,36.3l-3.1-6.4c-0.5-0.9-0.1-2,0.8-2.4l5.3-2.6c0.9-0.5,2-0.1,2.4,0.8l3.1,6.4c0.5,0.9,0.1,2-0.8,2.4
					l-5.3,2.6C-4.5,37.5-5.5,37.2-6,36.3z"/>
				<path class="st1" d="M-6.6,36.6l-3.1-6.4c-0.6-1.2-0.1-2.7,1.1-3.3l5.3-2.6l0,0c1.2-0.6,2.7-0.1,3.3,1.1l3.1,6.4
					C3.7,33,3.2,34.5,2,35.1l-5.3,2.6l0,0l0,0C-4.5,38.3-6,37.8-6.6,36.6z M1.5,33.9C2.1,33.6,2.3,33,2,32.4L-1.1,26
					c-0.2-0.3-0.4-0.5-0.7-0.6c-0.3,0-0.6,0-0.9,0.1l0,0L-8,28.1c-0.6,0.3-0.8,0.9-0.5,1.5l3.1,6.4c0.3,0.6,0.9,0.8,1.5,0.5l0,0
					L1.5,33.9z"/>
			</g>
			<g>
				<path class="st2" d="M96.8,1.3l-3.1-6.4c-0.5-0.9-0.1-2,0.8-2.4l5.3-2.6c0.9-0.5,2-0.1,2.4,0.8l3.1,6.4c0.5,0.9,0.1,2-0.8,2.4
					l-5.3,2.6C98.3,2.6,97.3,2.2,96.8,1.3z"/>
				<path class="st1" d="M97.6,2.9c-0.6-0.2-1.1-0.6-1.4-1.2l-3.1-6.4C92.5-5.9,93-7.4,94.2-8l5.3-2.6l0,0c0.6-0.3,1.3-0.3,1.9-0.1
					s1.1,0.6,1.4,1.2l3.1,6.4c0.3,0.6,0.3,1.2,0.1,1.8s-0.6,1.1-1.2,1.4l-5.3,2.6l0,0C98.9,3,98.3,3.1,97.6,2.9z M100.1-9.5
					l-5.4,2.7c-0.6,0.3-0.8,0.9-0.5,1.5l3.1,6.4c0.2,0.3,0.4,0.5,0.7,0.6c0.3,0,0.6,0,0.9-0.1l0,0l0,0l5.3-2.6
					c0.3-0.2,0.5-0.4,0.6-0.7c0-0.3,0-0.6-0.1-0.9L101.6-9c-0.1-0.2-0.4-0.4-0.6-0.6C100.7-9.6,100.4-9.6,100.1-9.5L100.1-9.5z"/>
			</g>
			<g>
				<path class="st2" d="M85.6,6.8l-3.1-6.4c-0.5-0.9-0.1-2,0.8-2.4l5.3-2.6c0.9-0.5,2-0.1,2.4,0.8l3.1,6.4c0.5,0.9,0.1,2-0.8,2.4
					L88,7.6C87.1,8,86.1,7.7,85.6,6.8z"/>
				<path class="st1" d="M86.4,8.3c-0.6-0.2-1.1-0.6-1.4-1.2l-3.1-6.4C81.3-0.5,81.8-2,83-2.6l5.3-2.6l0,0c0.6-0.3,1.3-0.3,1.9-0.1
					s1.1,0.6,1.4,1.2l3.1,6.4C95,2.9,95,3.6,94.8,4.2s-0.6,1.1-1.2,1.4l-5.3,2.6l0,0C87.7,8.5,87,8.6,86.4,8.3z M88.9-4l-5.3,2.7
					C83-1,82.8-0.4,83.1,0.2l3.1,6.4c0.2,0.3,0.4,0.5,0.7,0.6c0.3,0,0.6,0,0.9-0.1l0,0l0,0l5.3-2.6c0.3-0.2,0.5-0.4,0.6-0.7
					c0-0.3,0-0.6-0.1-0.9l-3.1-6.4c-0.2-0.3-0.4-0.5-0.7-0.6C89.5-4.1,89.2-4.1,88.9-4L88.9-4z"/>
			</g>
			<g>
				<path class="st2" d="M74,12.5l-3.1-6.4c-0.5-0.9-0.1-2,0.8-2.4L77,1.1c0.9-0.5,2-0.1,2.4,0.8l3.1,6.4c0.5,0.9,0.1,2-0.8,2.4
					l-5.3,2.6C75.5,13.7,74.5,13.3,74,12.5z"/>
				<path class="st1" d="M74.8,14c-0.6-0.2-1.1-0.6-1.4-1.2l-3.1-6.4C70,5.8,70,5.1,70.2,4.5s0.6-1.1,1.2-1.4l5.3-2.6l0,0
					c0.6-0.3,1.3-0.3,1.9-0.1S79.7,1,80,1.6L83.1,8c0.6,1.2,0.1,2.7-1.1,3.3l-5.3,2.6l0,0C76.1,14.2,75.5,14.3,74.8,14z M77.3,1.7
					L72,4.2c-0.3,0.2-0.5,0.4-0.6,0.7c0,0.3,0,0.6,0.1,0.9l3.1,6.4c0.2,0.3,0.4,0.5,0.7,0.6c0.3,0,0.6,0,0.9-0.1l0,0l0,0l5.3-2.6
					c0.6-0.3,0.8-0.9,0.5-1.5l-3.1-6.4c-0.2-0.3-0.4-0.5-0.7-0.6C77.9,1.6,77.6,1.6,77.3,1.7L77.3,1.7z"/>
			</g>
			<g>
				<path class="st2" d="M62.4,18.2l-3.1-6.4c-0.5-0.9-0.1-2,0.8-2.4l5.3-2.6c0.9-0.5,2-0.1,2.4,0.8l3.1,6.4c0.5,0.9,0.1,2-0.8,2.4
					L64.8,19C64,19.4,62.8,19,62.4,18.2z"/>
				<path class="st1" d="M63.2,19.7c-0.6-0.2-1.1-0.6-1.4-1.2l-3.1-6.4c-0.6-1.2-0.1-2.7,1.1-3.3l5.3-2.6l0,0
					c0.6-0.3,1.3-0.3,1.9-0.1c0.6,0.2,1.1,0.6,1.4,1.2l3.1,6.4c0.6,1.2,0.1,2.7-1.1,3.3l-5.3,2.6l0,0C64.5,19.8,63.9,19.9,63.2,19.7
					z M65.7,7.4L60.4,10c-0.6,0.3-0.8,0.9-0.5,1.5l3.1,6.4c0.2,0.3,0.4,0.5,0.7,0.6c0.3,0,0.6,0,0.9-0.1l0,0l0,0l5.3-2.6
					c0.6-0.3,0.8-0.9,0.5-1.5l-3.1-6.4c-0.2-0.3-0.4-0.5-0.7-0.6C66.3,7.3,66,7.3,65.7,7.4L65.7,7.4z"/>
			</g>
			<g>
				<path class="st2" d="M51.2,23.6l-3.1-6.4c-0.5-0.9-0.1-2,0.8-2.4l5.3-2.6c0.9-0.5,2-0.1,2.4,0.8l3.1,6.4c0.5,0.9,0.1,2-0.8,2.4
					l-5.3,2.6C52.8,24.9,51.7,24.5,51.2,23.6z"/>
				<path class="st1" d="M52,25.1c-0.6-0.2-1.1-0.6-1.4-1.2l-3.1-6.4c-0.6-1.2-0.1-2.7,1.1-3.3l5.3-2.6l0,0c0.6-0.3,1.3-0.3,1.9-0.1
					c0.6,0.2,1.1,0.6,1.4,1.2l3.1,6.4c0.3,0.6,0.3,1.3,0.1,1.9s-0.6,1.1-1.2,1.4L53.9,25l0,0C53.3,25.3,52.7,25.4,52,25.1z
					 M54.5,12.8l-5.3,2.7c-0.6,0.3-0.8,0.9-0.5,1.5l3.1,6.4c0.2,0.3,0.4,0.5,0.7,0.6c0.3,0,0.6,0,0.9-0.1l0,0l0,0l5.3-2.6
					c0.3-0.2,0.6-0.4,0.6-0.7s0-0.6-0.1-0.9l-3.1-6.4c-0.2-0.3-0.4-0.5-0.7-0.6C55.1,12.7,54.8,12.7,54.5,12.8L54.5,12.8z"/>
			</g>
			<g>
				<path class="st2" d="M40,29.1l-3.1-6.4c-0.5-0.9-0.1-2,0.8-2.4l5.3-2.6c0.9-0.5,2-0.1,2.4,0.8l3.1,6.4c0.5,0.9,0.1,2-0.8,2.4
					l-5.3,2.6C41.6,30.3,40.5,30,40,29.1z"/>
				<path class="st1" d="M40.8,30.6c-0.6-0.2-1.1-0.6-1.4-1.2L36.3,23c-0.6-1.2-0.1-2.7,1.1-3.3l5.3-2.6l0,0
					c0.6-0.3,1.3-0.3,1.9-0.1c0.6,0.2,1.1,0.6,1.4,1.2l3.1,6.4c0.3,0.6,0.3,1.3,0.1,1.9s-0.6,1.1-1.2,1.4l-5.3,2.6l0,0
					C42.1,30.8,41.5,30.9,40.8,30.6z M43.3,18.3L38,21c-0.6,0.3-0.8,0.9-0.5,1.5l3.1,6.4c0.2,0.3,0.4,0.5,0.7,0.6
					c0.3,0,0.6,0,0.9-0.1l0,0l0,0l5.3-2.6c0.3-0.2,0.5-0.4,0.6-0.7c0-0.3,0-0.6-0.1-0.9l-3.1-6.4c-0.2-0.3-0.4-0.5-0.7-0.6
					C43.9,18.2,43.6,18.2,43.3,18.3L43.3,18.3z"/>
			</g>
			<g>
				<path class="st2" d="M28.9,34.6l-3.1-6.4c-0.5-0.9-0.1-2,0.8-2.4l5.3-2.6c0.9-0.5,2-0.1,2.4,0.8l3.1,6.4c0.5,0.9,0.1,2-0.8,2.4
					l-5.3,2.6C30.3,35.8,29.3,35.5,28.9,34.6z"/>
				<path class="st1" d="M29.6,36.1c-0.6-0.2-1.1-0.6-1.4-1.2l-3.1-6.4c-0.6-1.2-0.1-2.7,1.1-3.3l5.3-2.6l0,0
					c0.6-0.3,1.3-0.3,1.9-0.1c0.6,0.2,1.1,0.6,1.4,1.2l3.1,6.4c0.3,0.6,0.3,1.3,0.1,1.9c-0.2,0.6-0.6,1.1-1.2,1.4L31.5,36l0,0
					C31,36.3,30.3,36.4,29.6,36.1z M32.1,23.8l-5.3,2.7c-0.6,0.3-0.8,0.9-0.5,1.5l3.1,6.4c0.2,0.3,0.4,0.5,0.7,0.6
					c0.3,0,0.6,0,0.9-0.1l0,0l0,0l5.3-2.6c0.3-0.2,0.5-0.4,0.6-0.7c0-0.3,0-0.6-0.1-0.9l-3.1-6.4c-0.2-0.3-0.4-0.5-0.7-0.6
					C32.7,23.7,32.4,23.7,32.1,23.8L32.1,23.8z"/>
			</g>
			<g>
				<path class="st2" d="M17.3,40.3l-3.1-6.4c-0.5-0.9-0.1-2,0.8-2.4l5.3-2.6c0.9-0.5,2-0.1,2.4,0.8l3.1,6.4c0.5,0.9,0.1,2-0.8,2.4
					l-5.3,2.6C18.8,41.5,17.7,41.2,17.3,40.3z"/>
				<path class="st1" d="M18.1,41.8c-0.6-0.2-1.1-0.6-1.4-1.2l-3.1-6.4c-0.6-1.2-0.1-2.7,1.1-3.3l5.3-2.6l0,0
					c0.6-0.3,1.3-0.3,1.9-0.1c0.6,0.2,1.1,0.6,1.4,1.2l3.1,6.4c0.3,0.6,0.3,1.3,0.1,1.9c-0.2,0.6-0.6,1.1-1.2,1.4L20,41.7l0,0
					C19.4,42,18.7,42,18.1,41.8z M20.6,29.5l-5.3,2.7c-0.6,0.3-0.8,0.9-0.5,1.5l3.1,6.4c0.2,0.3,0.4,0.5,0.7,0.6
					c0.3,0,0.6,0,0.9-0.1l0,0l0,0l5.3-2.6c0.3-0.2,0.5-0.4,0.6-0.7c0-0.3,0-0.6-0.1-0.9L22.2,30c-0.2-0.3-0.4-0.5-0.7-0.6
					C21.2,29.4,20.9,29.4,20.6,29.5L20.6,29.5z"/>
			</g>
			<g>
				<path class="st2" d="M5.7,45.9l-3.1-6.4c-0.5-0.9-0.1-2,0.8-2.4l5.3-2.6c0.9-0.5,2-0.1,2.4,0.8l3.1,6.4c0.5,0.9,0.1,2-0.8,2.4
					l-5.3,2.6C7.2,47.2,6.1,46.8,5.7,45.9z"/>
				<path class="st1" d="M6.5,47.4c-0.6-0.2-1.1-0.6-1.4-1.2L2,39.8c-0.6-1.2-0.1-2.7,1.1-3.3l5.3-2.6l0,0c1.2-0.6,2.7-0.1,3.3,1.1
					l3.1,6.4c0.3,0.6,0.3,1.3,0.1,1.9c-0.2,0.6-0.6,1.1-1.2,1.4l-5.3,2.6l0,0C7.8,47.6,7.1,47.7,6.5,47.4z M9,35.1l-5.4,2.7
					c-0.6,0.3-0.8,0.9-0.5,1.5l3.1,6.4c0.2,0.3,0.4,0.5,0.7,0.6c0.3,0,0.6,0,0.9-0.1l0,0l0,0l5.3-2.6c0.3-0.2,0.5-0.4,0.6-0.7
					c0-0.3,0-0.6-0.1-0.9l-3.1-6.4C10.2,35,9.6,34.8,9,35.1L9,35.1z"/>
			</g>
			<g>
				<path class="st2" d="M-5.1,51.2l-3.1-6.4c-0.5-0.9-0.1-2,0.8-2.4l5.3-2.6c0.9-0.5,2-0.1,2.4,0.8L3.4,47c0.5,0.9,0.1,2-0.8,2.4
					L-2.7,52C-3.6,52.5-4.7,52.1-5.1,51.2z"/>
				<path class="st1" d="M-5.7,51.5l-3.1-6.4c-0.6-1.2-0.1-2.7,1.1-3.3l5.3-2.6l0,0c0.6-0.3,1.3-0.3,1.9-0.1
					c0.6,0.2,1.1,0.6,1.4,1.2L4,46.7c0.3,0.6,0.3,1.3,0.1,1.9c-0.2,0.6-0.6,1.1-1.2,1.4l-5.3,2.6l0,0C-3.7,53.2-5.1,52.8-5.7,51.5z
					 M-1.8,40.4L-7,43.1c-0.6,0.3-0.8,0.9-0.5,1.5l3.1,6.4c0.3,0.6,0.9,0.8,1.5,0.5l0,0l0,0l5.3-2.6c0.3-0.2,0.5-0.4,0.6-0.7
					c0-0.3,0-0.6-0.1-0.9l-3.1-6.4c-0.2-0.3-0.4-0.5-0.7-0.6C-1.2,40.3-1.5,40.3-1.8,40.4L-1.8,40.4z"/>
			</g>
			<g>
				<path class="st2" d="M100.7,15.3l-3.1-6.4c-0.5-0.9-0.1-2,0.8-2.4l5.3-2.6c0.9-0.5,2-0.1,2.4,0.8l3.1,6.4c0.5,0.9,0.1,2-0.8,2.4
					l-5.3,2.6C102.2,16.6,101.1,16.2,100.7,15.3z"/>
				<path class="st1" d="M101.5,16.9c-0.6-0.2-1.1-0.6-1.4-1.2L97,9.3c-0.3-0.6-0.3-1.3-0.1-1.9s0.6-1.1,1.2-1.4l5.3-2.7l0,0
					c0.6-0.3,1.3-0.3,1.9-0.1s1.1,0.6,1.4,1.2l3.1,6.4c0.3,0.6,0.3,1.3,0.1,1.9c-0.2,0.6-0.6,1.1-1.2,1.4l-5.3,2.6l0,0
					C102.8,17,102.1,17.1,101.5,16.9z M104,4.5L98.7,7c-0.3,0.2-0.5,0.4-0.6,0.7c0,0.3,0,0.6,0.1,0.9l3.1,6.5
					c0.2,0.3,0.4,0.5,0.7,0.6c0.3,0,0.6,0,0.9-0.1l0,0l0,0l5.3-2.6c0.3-0.2,0.5-0.4,0.6-0.7c0-0.3,0-0.6-0.1-0.9L105.6,5
					c-0.2-0.3-0.4-0.5-0.7-0.6C104.6,4.4,104.3,4.4,104,4.5L104,4.5z"/>
			</g>
			<g>
				<path class="st2" d="M111.9,9.8l-3.1-6.4c-0.5-0.9-0.1-2,0.8-2.4l5.3-2.6c0.9-0.5,2-0.1,2.4,0.8l3.1,6.4c0.5,0.9,0.1,2-0.8,2.4
					l-5.3,2.6C113.4,11.1,112.3,10.7,111.9,9.8z"/>
				<path class="st1" d="M112.7,11.4c-0.6-0.2-1.1-0.6-1.4-1.2l-3.1-6.4c-0.3-0.6-0.3-1.3-0.1-1.9s0.6-1.1,1.2-1.4l5.3-2.6l0,0
					c0.6-0.3,1.3-0.3,1.9-0.1s1.1,0.6,1.4,1.2l3.1,6.3c0.3,0.6,0.3,1.3,0.1,1.9s-0.6,1.1-1.2,1.4l-5.3,2.6l0,0
					C114,11.5,113.3,11.6,112.7,11.4z M115.1-1l-5.2,2.6c-0.3,0.2-0.5,0.4-0.6,0.7s-0.1,0.6,0,0.9l3.1,6.4c0.2,0.3,0.4,0.5,0.7,0.6
					c0.3,0,0.6,0,0.9-0.1l0,0l0,0l5.3-2.6c0.3-0.2,0.5-0.4,0.6-0.7c0-0.3,0-0.6-0.1-0.9l-3.1-6.4c-0.2-0.3-0.4-0.5-0.7-0.6
					C115.7-1.1,115.4-1.1,115.1-1L115.1-1z"/>
			</g>
			<g>
				<path class="st2" d="M123,4.4L119.9-2c-0.5-0.9-0.1-2,0.9-2.5l13.9-6.8c0.9-0.5,2-0.1,2.4,0.8l3.1,6.4c0.4,0.9,0,2-0.8,2.5
					l-14,6.8C124.5,5.6,123.4,5.3,123,4.4z"/>
				<path class="st1" d="M123.9,5.9c-0.6-0.2-1.1-0.6-1.4-1.2l-3.1-6.4c-0.6-1.2-0.1-2.7,1.1-3.3l13.9-6.8l0,0
					c0.6-0.3,1.3-0.3,1.9-0.1s1.1,0.6,1.4,1.2l3.1,6.4c0.3,0.6,0.3,1.3,0.1,1.9c-0.2,0.6-0.6,1.1-1.2,1.4l-14,6.8l0,0l0,0
					C125.1,6.1,124.4,6.1,123.9,5.9z M139-2.1c0.3-0.2,0.5-0.4,0.6-0.7c0-0.3,0-0.6-0.1-0.9l-3.1-6.4c-0.2-0.3-0.4-0.5-0.7-0.6
					c-0.3,0-0.6,0-0.9,0.1l0,0l-13.9,6.8c-0.6,0.3-0.8,0.9-0.5,1.5l3.1,6.4c0.2,0.3,0.4,0.5,0.7,0.6c0.3,0,0.6,0,0.9-0.1l0,0
					L139-2.1z"/>
			</g>
			<g>
				<path class="st2" d="M89.5,20.8l-3.1-6.4c-0.5-0.9-0.1-2,0.8-2.4l5.3-2.6c0.9-0.5,2-0.1,2.4,0.8l3.1,6.4c0.5,0.9,0.1,2-0.8,2.4
					l-5.3,2.6C91,22,89.9,21.7,89.5,20.8z"/>
				<path class="st1" d="M88.9,21.1l-3.1-6.4c-0.3-0.6-0.3-1.3-0.1-1.9c0.2-0.6,0.6-1.1,1.2-1.4l5.3-2.6l0,0
					c0.6-0.3,1.3-0.3,1.9-0.1s1.1,0.6,1.4,1.2l3.1,6.4c0.3,0.6,0.3,1.3,0.1,1.9s-0.6,1.1-1.2,1.4l-5.3,2.6l0,0
					C91,22.8,89.5,22.3,88.9,21.1z M92.8,10l-5.2,2.6c-0.3,0.2-0.5,0.4-0.6,0.7c0,0.3,0,0.6,0.1,0.9l3.1,6.4
					c0.3,0.6,0.9,0.8,1.5,0.5l0,0l0,0l5.3-2.6c0.3-0.2,0.5-0.4,0.6-0.7c0-0.3,0-0.6-0.1-0.9l-3.1-6.4c-0.2-0.3-0.4-0.5-0.7-0.6
					C93.4,9.9,93.1,9.9,92.8,10L92.8,10z"/>
			</g>
			<g>
				<path class="st2" d="M77.9,26.5l-3.1-6.4c-0.5-0.9-0.1-2,0.8-2.4l5.3-2.6c0.9-0.5,2-0.1,2.4,0.8l3.1,6.4c0.5,0.9,0.1,2-0.8,2.4
					l-5.3,2.6C79.4,27.7,78.3,27.4,77.9,26.5z"/>
				<path class="st1" d="M78.7,28c-0.6-0.2-1.1-0.6-1.4-1.2l-3.1-6.4c-0.3-0.6-0.3-1.3-0.1-1.9s0.6-1.1,1.2-1.4l5.3-2.6l0,0
					c1.2-0.6,2.7-0.1,3.3,1.1L87,22c0.3,0.6,0.3,1.3,0.1,1.9s-0.6,1.1-1.2,1.4l-5.3,2.6l0,0C80,28.2,79.3,28.2,78.7,28z M81.2,15.6
					l-5.4,2.6c-0.3,0.2-0.5,0.4-0.6,0.7c0,0.3,0,0.6,0.1,0.9l3.1,6.4c0.2,0.3,0.4,0.5,0.7,0.6c0.3,0,0.6,0,0.9-0.1l0,0l0,0l5.3-2.6
					c0.3-0.2,0.5-0.4,0.6-0.7c0-0.3,0-0.6-0.1-0.9l-3.1-6.4C82.4,15.5,81.8,15.3,81.2,15.6L81.2,15.6z"/>
			</g>
			<g>
				<path class="st2" d="M66.3,32.2l-3.1-6.4c-0.5-0.9-0.1-2,0.8-2.4l5.3-2.6c0.9-0.5,2-0.1,2.4,0.8l3.1,6.4c0.5,0.9,0.1,2-0.8,2.4
					L68.7,33C67.8,33.4,66.7,33,66.3,32.2z"/>
				<path class="st1" d="M67.1,33.7c-0.6-0.2-1.1-0.6-1.4-1.2l-3.1-6.4c-0.3-0.6-0.3-1.3-0.1-1.9s0.6-1.1,1.2-1.4l5.3-2.6l0,0
					c0.6-0.3,1.3-0.3,1.9-0.1s1.1,0.6,1.4,1.2l3.1,6.4c0.3,0.6,0.3,1.3,0.1,1.9s-0.6,1.1-1.2,1.4L69,33.6l0,0
					C68.4,33.8,67.7,33.9,67.1,33.7z M69.6,21.3l-5.3,2.6c-0.3,0.2-0.5,0.4-0.6,0.7c0,0.3,0,0.6,0.1,0.9l3.1,6.4
					c0.2,0.3,0.4,0.5,0.7,0.6c0.3,0,0.6,0,0.9-0.1l0,0l0,0l5.3-2.6c0.3-0.2,0.5-0.4,0.6-0.7c0-0.3,0-0.6-0.1-0.9l-3.1-6.4
					c-0.2-0.3-0.4-0.5-0.7-0.6C70.2,21.2,69.9,21.2,69.6,21.3L69.6,21.3z"/>
			</g>
			<g>
				<path class="st2" d="M55.1,37.6L52,31.2c-0.5-0.9-0.1-2,0.8-2.4l5.3-2.6c0.9-0.5,2-0.1,2.4,0.8l3.1,6.4c0.5,0.9,0.1,2-0.8,2.4
					l-5.3,2.6C56.6,38.9,55.5,38.5,55.1,37.6z"/>
				<path class="st1" d="M55.9,39.1c-0.6-0.2-1.1-0.6-1.4-1.2l-3.1-6.4c-0.6-1.2-0.1-2.7,1.1-3.3l5.3-2.6l0,0
					c0.6-0.3,1.3-0.3,1.9-0.1c0.6,0.2,1.1,0.6,1.4,1.2l3.1,6.4c0.3,0.6,0.3,1.3,0.1,1.9c-0.2,0.6-0.6,1.1-1.2,1.4L57.8,39l0,0
					C57.2,39.3,56.5,39.4,55.9,39.1z M58.4,26.8l-5.3,2.7c-0.6,0.3-0.8,0.9-0.5,1.5l3.1,6.4c0.2,0.3,0.4,0.5,0.7,0.6
					c0.3,0,0.6,0,0.9-0.1l0,0l0,0l5.3-2.6c0.3-0.2,0.5-0.4,0.6-0.7c0-0.3,0-0.6-0.1-0.9L60,27.3c-0.2-0.3-0.4-0.5-0.7-0.6
					C59,26.7,58.7,26.7,58.4,26.8L58.4,26.8z"/>
			</g>
			<g>
				<path class="st2" d="M43.9,43.1l-3.1-6.4c-0.5-0.9-0.1-2,0.8-2.4l5.3-2.6c0.9-0.5,2-0.1,2.4,0.8l3.1,6.4c0.5,0.9,0.1,2-0.8,2.4
					l-5.3,2.6C45.4,44.4,44.4,44,43.9,43.1z"/>
				<path class="st1" d="M44.7,44.6c-0.6-0.2-1.1-0.6-1.4-1.2L40.2,37c-0.3-0.6-0.3-1.3-0.1-1.9c0.2-0.6,0.6-1.1,1.2-1.4l5.3-2.6
					l0,0c0.6-0.3,1.3-0.3,1.9-0.1c0.6,0.2,1.1,0.6,1.4,1.2l3.1,6.4c0.3,0.6,0.3,1.3,0.1,1.9c-0.2,0.6-0.6,1.1-1.2,1.4l-5.3,2.6l0,0
					C46,44.8,45.4,44.8,44.7,44.6z M47.2,32.3l-5.3,2.6c-0.3,0.2-0.5,0.4-0.6,0.7c0,0.3,0,0.6,0.1,0.9l3.1,6.4
					c0.2,0.3,0.4,0.5,0.7,0.6c0.3,0,0.6,0,0.9-0.1l0,0l0,0l5.3-2.6c0.3-0.2,0.5-0.4,0.6-0.7c0-0.3,0-0.6-0.1-0.9l-3.1-6.4
					c-0.2-0.3-0.4-0.5-0.7-0.6C47.8,32.2,47.5,32.2,47.2,32.3L47.2,32.3z"/>
			</g>
			<g>
				<path class="st2" d="M32.8,48.6l-3.1-6.4c-0.5-0.9-0.1-2,0.8-2.4l5.3-2.6c0.9-0.5,2-0.1,2.4,0.8l3,6.4c0.5,0.9,0.1,2-0.8,2.4
					l-5.3,2.6C34.2,49.8,33.2,49.5,32.8,48.6z"/>
				<path class="st1" d="M33.5,50.1c-0.6-0.2-1.1-0.6-1.4-1.2L29,42.5c-0.3-0.6-0.3-1.3-0.1-1.9c0.2-0.6,0.6-1.1,1.2-1.4l5.3-2.6
					l0,0c0.6-0.3,1.3-0.3,1.9-0.1c0.6,0.2,1.1,0.6,1.4,1.2l3.1,6.4c0.6,1.2,0.1,2.7-1.1,3.3L35.4,50l0,0
					C34.8,50.3,34.2,50.3,33.5,50.1z M36,37.8l-5.3,2.5c-0.3,0.2-0.5,0.4-0.6,0.7c0,0.3,0,0.6,0.1,0.9l3.1,6.4
					c0.2,0.3,0.4,0.5,0.7,0.6c0.3,0,0.6,0,0.9-0.1l0,0l0,0l5.3-2.6c0.6-0.3,0.8-0.9,0.5-1.5l-3.1-6.4c-0.2-0.3-0.4-0.5-0.7-0.6
					C36.6,37.7,36.3,37.7,36,37.8L36,37.8z"/>
			</g>
			<g>
				<path class="st2" d="M21.2,54.3l-3.1-6.4c-0.5-0.9-0.1-2,0.8-2.4l5.3-2.6c0.9-0.5,2-0.1,2.4,0.8l3.1,6.4c0.5,0.9,0.1,2-0.8,2.4
					l-5.3,2.6C22.6,55.5,21.6,55.1,21.2,54.3z"/>
				<path class="st1" d="M21.9,55.8c-0.6-0.2-1.1-0.6-1.4-1.2l-3.1-6.4c-0.6-1.2-0.1-2.7,1.1-3.3l5.3-2.6l0,0
					c0.6-0.3,1.3-0.3,1.9-0.1c0.6,0.2,1.1,0.6,1.4,1.2l3.1,6.4c0.6,1.2,0.1,2.7-1.1,3.3l-5.3,2.6l0,0C23.3,56,22.6,56,21.9,55.8z
					 M24.4,43.4L19.1,46c-0.6,0.3-0.8,0.9-0.5,1.5l3.1,6.4c0.2,0.3,0.4,0.5,0.7,0.6c0.3,0,0.6,0,0.9-0.1l0,0l0,0l5.3-2.6
					c0.6-0.3,0.8-0.9,0.5-1.5L26,43.9c-0.2-0.3-0.4-0.5-0.7-0.6C25,43.3,24.7,43.3,24.4,43.4L24.4,43.4z"/>
			</g>
			<g>
				<path class="st2" d="M9.5,60l-3.1-6.4c-0.5-0.9-0.1-2,0.8-2.4l5.3-2.6c0.9-0.5,2-0.1,2.4,0.8l3.1,6.4c0.5,0.9,0.1,2-0.8,2.4
					l-5.3,2.6C11.1,61.2,10,60.8,9.5,60z"/>
				<path class="st1" d="M10.3,61.5c-0.6-0.2-1.1-0.6-1.4-1.2l-3.1-6.4c-0.3-0.6-0.3-1.3-0.1-1.9c0.2-0.6,0.6-1.1,1.2-1.4l5.3-2.6
					l0,0c0.6-0.3,1.3-0.3,1.9-0.1c0.6,0.2,1.1,0.6,1.4,1.2l3.1,6.4c0.3,0.6,0.3,1.3,0.1,1.9c-0.2,0.6-0.6,1.1-1.2,1.4l-5.3,2.6l0,0
					C11.7,61.6,11,61.7,10.3,61.5z M12.8,49.1l-5.3,2.6c-0.3,0.2-0.5,0.4-0.6,0.7c0,0.3,0,0.6,0.1,0.9l3.1,6.4
					c0.2,0.3,0.4,0.5,0.7,0.6c0.3,0,0.6,0,0.9-0.1l0,0l0,0l5.3-2.6c0.3-0.2,0.5-0.4,0.6-0.7c0-0.3,0-0.6-0.1-0.9l-3.1-6.4
					c-0.2-0.3-0.4-0.5-0.7-0.6C13.4,49,13.1,49,12.8,49.1L12.8,49.1z"/>
			</g>
			<g>
				<path class="st2" d="M-2.5,65.8l-3.1-6.4c-0.5-0.9-0.1-2,0.8-2.4l5.3-2.6c0.9-0.5,2-0.1,2.4,0.8L6,61.6c0.5,0.9,0.1,2-0.8,2.4
					l-5.3,2.6C-0.9,67.1-2,66.7-2.5,65.8z"/>
				<path class="st1" d="M-3.1,66.1l-3.1-6.4c-0.3-0.6-0.3-1.3-0.1-1.9c0.2-0.6,0.6-1.1,1.2-1.4l5.3-2.6l0,0
					c0.6-0.3,1.3-0.3,1.9-0.1c0.6,0.2,1.1,0.6,1.4,1.2l3.1,6.4c0.3,0.6,0.3,1.3,0.1,1.9c-0.2,0.6-0.6,1.1-1.2,1.4l-5.3,2.6l0,0
					C-1,67.8-2.4,67.3-3.1,66.1z M0.8,55l-5.2,2.6C-4.7,57.8-4.9,58-5,58.3c0,0.3,0,0.6,0.1,0.9l3.1,6.4c0.3,0.6,0.9,0.8,1.5,0.5
					l0,0l0,0L5,63.5c0.3-0.2,0.5-0.4,0.6-0.7c0-0.3,0-0.6-0.1-0.9l-3.1-6.4C2.2,55.2,2,55,1.7,54.9C1.4,54.9,1.1,54.9,0.8,55L0.8,55
					z"/>
			</g>
			<g>
				<path class="st2" d="M111.9,25.1l-3.1-6.4c-0.5-0.9-0.1-2,0.8-2.4l5.3-2.6c0.9-0.5,2-0.1,2.4,0.8l3.1,6.4c0.5,0.9,0.1,2-0.8,2.4
					l-5.3,2.6C113.4,26.4,112.3,26,111.9,25.1z"/>
				<path class="st1" d="M112.7,26.6c-0.6-0.2-1.1-0.6-1.4-1.2l-3.1-6.4c-0.3-0.6-0.3-1.3-0.1-1.9s0.6-1.1,1.2-1.4l5.3-2.6
					c0.6-0.3,1.3-0.3,1.9-0.1s1.1,0.6,1.4,1.2l3.1,6.4c0.3,0.6,0.3,1.3,0.1,1.9s-0.6,1.1-1.2,1.4l-5.3,2.6l0,0
					C114,26.8,113.3,26.9,112.7,26.6z M115.2,14.3l-5.3,2.6c-0.3,0.2-0.5,0.4-0.6,0.7c0,0.3,0,0.6,0.1,0.9l3.1,6.4
					c0.2,0.3,0.4,0.5,0.7,0.6c0.3,0,0.6,0,0.9-0.1l0,0l0,0l5.3-2.6c0.3-0.2,0.5-0.4,0.6-0.7c0-0.3,0-0.6-0.1-0.9l-3.1-6.4
					c-0.2-0.3-0.4-0.5-0.7-0.6C115.8,14.2,115.5,14.2,115.2,14.3L115.2,14.3z"/>
			</g>
			<g>
				<path class="st2" d="M123.6,19.4l-3.1-6.4c-0.5-0.9-0.1-2,0.8-2.4L140.7,1c0.9-0.4,2,0,2.4,0.8l3.1,6.4c0.5,0.9,0.1,2-0.8,2.4
					L126,20.2C125.1,20.7,124,20.3,123.6,19.4z"/>
				<path class="st1" d="M124.5,20.9c-0.6-0.2-1.1-0.6-1.4-1.2l-3.1-6.4c-0.3-0.6-0.3-1.3-0.1-1.9c0.2-0.6,0.6-1.1,1.2-1.4l19.3-9.6
					l0,0c0.6-0.3,1.3-0.3,1.9-0.1s1.1,0.6,1.4,1.2l3.1,6.4c0.6,1.2,0.1,2.7-1.1,3.3l-19.4,9.6l0,0l0,0
					C125.7,21.1,125,21.1,124.5,20.9z M145.1,10c0.6-0.3,0.8-1,0.6-1.5l-3.1-6.4c-0.2-0.3-0.4-0.5-0.7-0.6c-0.3,0-0.6,0-0.9,0.1l0,0
					l-19.4,9.5c-0.3,0.2-0.5,0.4-0.6,0.7c0,0.3,0,0.6,0.1,0.9l3.1,6.4c0.3,0.6,0.9,0.8,1.5,0.5l0,0L145.1,10z"/>
			</g>
			<g>
				<path class="st2" d="M100.7,30.6l-3.1-6.4c-0.5-0.9-0.1-2,0.8-2.4l5.3-2.6c0.9-0.5,2-0.1,2.4,0.8l3.1,6.4c0.5,0.9,0.1,2-0.8,2.4
					l-5.3,2.6C102.2,31.8,101.1,31.5,100.7,30.6z"/>
				<path class="st1" d="M100.1,30.9L97,24.5c-0.3-0.6-0.3-1.3-0.1-1.9s0.6-1.1,1.2-1.4l5.3-2.6l0,0c0.6-0.3,1.3-0.3,1.9-0.1
					s1.1,0.6,1.4,1.2l3.1,6.4c0.3,0.6,0.3,1.3,0.1,1.9s-0.6,1.1-1.2,1.4l-5.3,2.6l0,0C102.2,32.6,100.7,32.1,100.1,30.9z M104,19.8
					l-5.2,2.6c-0.3,0.2-0.5,0.4-0.6,0.7c0,0.3,0,0.6,0.1,0.9l3.1,6.4c0.3,0.6,0.9,0.8,1.5,0.5l0,0l0,0l5.3-2.6
					c0.3-0.2,0.5-0.4,0.6-0.7c0-0.3,0-0.6-0.1-0.9l-3.1-6.4c-0.2-0.3-0.4-0.5-0.7-0.6C104.6,19.7,104.3,19.7,104,19.8L104,19.8z"/>
			</g>
			<g>
				<path class="st2" d="M89.1,36.3L86,29.9c-0.5-0.9-0.1-2,0.8-2.4l5.3-2.6c0.9-0.5,2-0.1,2.4,0.8l3.1,6.4c0.5,0.9,0.1,2-0.8,2.4
					l-5.3,2.6C90.6,37.5,89.5,37.2,89.1,36.3z"/>
				<path class="st1" d="M89.9,37.8c-0.6-0.2-1.1-0.6-1.4-1.2l-3.1-6.4c-0.3-0.6-0.3-1.3-0.1-1.9s0.6-1.1,1.2-1.4l5.3-2.6l0,0
					c1.2-0.6,2.7-0.1,3.3,1.1l3.1,6.4c0.3,0.6,0.3,1.3,0.1,1.9c-0.2,0.6-0.6,1.1-1.2,1.4l-5.3,2.6l0,0C91.2,38,90.5,38,89.9,37.8z
					 M92.4,25.5L87,28.1c-0.3,0.2-0.5,0.4-0.6,0.7c0,0.3,0,0.6,0.1,0.9l3.1,6.4c0.2,0.3,0.4,0.5,0.7,0.6c0.3,0,0.6,0,0.9-0.1l0,0
					l0,0l5.3-2.6c0.3-0.2,0.5-0.4,0.6-0.7c0-0.3,0-0.6-0.1-0.9L93.9,26C93.6,25.4,93,25.2,92.4,25.5L92.4,25.5z"/>
			</g>
			<g>
				<path class="st2" d="M77.5,42l-3.1-6.4c-0.5-0.9-0.1-2,0.8-2.4l5.3-2.6c0.9-0.5,2-0.1,2.4,0.8l3.1,6.4c0.5,0.9,0.1,2-0.8,2.4
					l-5.3,2.6C79,43.2,78,42.8,77.5,42z"/>
				<path class="st1" d="M78.3,43.5c-0.6-0.2-1.1-0.6-1.4-1.2l-3.1-6.4c-0.3-0.6-0.3-1.3-0.1-1.9c0.2-0.6,0.6-1.1,1.2-1.4l5.3-2.6
					l0,0c0.6-0.3,1.3-0.3,1.9-0.1s1.1,0.6,1.4,1.2l3.1,6.4c0.3,0.6,0.3,1.3,0.1,1.9c-0.2,0.6-0.6,1.1-1.2,1.4l-5.3,2.6l0,0
					C79.6,43.7,79,43.7,78.3,43.5z M80.8,31.1l-5.3,2.6c-0.3,0.2-0.5,0.4-0.6,0.7c0,0.3,0,0.6,0.1,0.9l3.1,6.4
					c0.2,0.3,0.4,0.5,0.7,0.6c0.3,0,0.6,0,0.9-0.1l0,0l0,0l5.3-2.6c0.3-0.2,0.5-0.4,0.6-0.7c0-0.3,0-0.6-0.1-0.9l-3.1-6.4
					c-0.2-0.3-0.4-0.5-0.7-0.6C81.4,31,81.1,31,80.8,31.1L80.8,31.1z"/>
			</g>
			<g>
				<path class="st2" d="M66.3,47.4L63.2,41c-0.5-0.9-0.1-2,0.8-2.4l5.3-2.6c0.9-0.5,2-0.1,2.4,0.8l3.1,6.4c0.5,0.9,0.1,2-0.8,2.4
					l-5.3,2.6C67.8,48.7,66.8,48.3,66.3,47.4z"/>
				<path class="st1" d="M67.1,48.9c-0.6-0.2-1.1-0.6-1.4-1.2l-3.1-6.4c-0.6-1.2-0.1-2.7,1.1-3.3l5.3-2.6l0,0
					c0.6-0.3,1.3-0.3,1.9-0.1s1.1,0.6,1.4,1.2l3.1,6.4c0.3,0.6,0.3,1.3,0.1,1.9c-0.2,0.6-0.6,1.1-1.2,1.4L69,48.8l0,0
					C68.4,49.1,67.8,49.2,67.1,48.9z M69.6,36.6l-5.3,2.7c-0.6,0.3-0.8,0.9-0.5,1.5l3.1,6.4c0.2,0.3,0.4,0.5,0.7,0.6
					c0.3,0,0.6,0,0.9-0.1l0,0l0,0l5.3-2.6c0.3-0.2,0.5-0.4,0.6-0.7c0-0.3,0-0.6-0.1-0.9l-3.1-6.4c-0.2-0.3-0.4-0.5-0.7-0.6
					C70.2,36.5,69.9,36.5,69.6,36.6L69.6,36.6z"/>
			</g>
			<g>
				<path class="st2" d="M55.2,52.9l-3.1-6.4c-0.5-0.9-0.1-2,0.8-2.4l5.3-2.6c0.9-0.5,2-0.1,2.4,0.8l3.1,6.4c0.5,0.9,0.1,2-0.8,2.4
					l-5.3,2.6C56.6,54.2,55.6,53.8,55.2,52.9z"/>
				<path class="st1" d="M55.9,54.4c-0.6-0.2-1.1-0.6-1.4-1.2l-3.1-6.4c-0.3-0.6-0.3-1.3-0.1-1.9c0.2-0.6,0.6-1.1,1.2-1.4l5.3-2.6
					l0,0c0.6-0.3,1.3-0.3,1.9-0.1c0.6,0.2,1.1,0.6,1.4,1.2l3.1,6.4c0.3,0.6,0.3,1.3,0.1,1.9c-0.2,0.6-0.6,1.1-1.2,1.4l-5.3,2.6l0,0
					C57.3,54.6,56.6,54.6,55.9,54.4z M58.4,42.1l-5.3,2.6c-0.3,0.2-0.5,0.4-0.6,0.7c0,0.3,0,0.6,0.1,0.9l3.1,6.4
					c0.2,0.3,0.4,0.5,0.7,0.6c0.3,0,0.6,0,0.9-0.1l0,0l0,0l5.3-2.6c0.3-0.2,0.5-0.4,0.6-0.7c0-0.3,0-0.6-0.1-0.9L60,42.6
					c-0.2-0.3-0.4-0.5-0.7-0.6C59,42,58.7,42,58.4,42.1L58.4,42.1z"/>
			</g>
			<g>
				<path class="st2" d="M44,58.4L40.9,52c-0.5-0.9-0.1-2,0.8-2.4L47,47c0.9-0.5,2-0.1,2.4,0.8l3.1,6.4c0.5,0.9,0.1,2-0.8,2.4
					l-5.3,2.6C45.4,59.6,44.4,59.3,44,58.4z"/>
				<path class="st1" d="M44.8,59.9c-0.6-0.2-1.1-0.6-1.4-1.2l-3.1-6.4C40,51.7,40,51,40.2,50.4c0.2-0.6,0.6-1.1,1.2-1.4l5.3-2.6
					l0,0c0.6-0.3,1.3-0.3,1.9-0.1c0.6,0.2,1.1,0.6,1.4,1.2l3.1,6.4c0.6,1.2,0.1,2.7-1.1,3.3l-5.3,2.6l0,0
					C46.1,60.1,45.4,60.1,44.8,59.9z M47.2,47.6l-5.3,2.5c-0.3,0.2-0.5,0.4-0.6,0.7c0,0.3,0,0.6,0.1,0.9l3.1,6.4
					c0.2,0.3,0.4,0.5,0.7,0.6c0.3,0,0.6,0,0.9-0.1l0,0l0,0l5.3-2.6c0.6-0.3,0.8-0.9,0.5-1.5l-3.1-6.4c-0.2-0.3-0.4-0.5-0.7-0.6
					C47.8,47.5,47.5,47.5,47.2,47.6L47.2,47.6z"/>
			</g>
			<g>
				<path class="st2" d="M32.4,64.1l-3.1-6.4c-0.5-0.9-0.1-2,0.8-2.4l5.3-2.6c0.9-0.5,2-0.1,2.4,0.8l3.1,6.4c0.5,0.9,0.1,2-0.8,2.4
					l-5.3,2.6C33.9,65.3,32.8,65,32.4,64.1z"/>
				<path class="st1" d="M33.1,65.6c-0.6-0.2-1.1-0.6-1.4-1.2L28.6,58c-0.6-1.2-0.1-2.7,1.1-3.3l5.3-2.6l0,0
					c0.6-0.3,1.3-0.3,1.9-0.1c0.6,0.2,1.1,0.6,1.4,1.2l3.1,6.4c0.6,1.2,0.1,2.7-1.1,3.3L35,65.5c0.1,0,0.1,0,0,0
					C34.5,65.8,33.8,65.8,33.1,65.6z M35.6,53.3l-5.3,2.6c-0.6,0.3-0.8,0.9-0.5,1.5l3.1,6.4c0.2,0.3,0.4,0.5,0.7,0.6
					c0.3,0,0.6,0,0.9-0.1l0,0l0,0l5.3-2.6c0.6-0.3,0.8-0.9,0.5-1.5l-3.1-6.4c-0.2-0.3-0.4-0.5-0.7-0.6
					C36.2,53.2,35.9,53.2,35.6,53.3L35.6,53.3z"/>
			</g>
			<g>
				<path class="st2" d="M20.7,69.8l-3.1-6.4c-0.5-0.9-0.1-2,0.8-2.4l5.3-2.6c0.9-0.5,2-0.1,2.4,0.8l3.1,6.4c0.5,0.9,0.1,2-0.8,2.4
					l-5.3,2.6C22.3,71,21.2,70.6,20.7,69.8z"/>
				<path class="st1" d="M21.6,71.2C21,71,20.5,70.6,20.2,70L17,63.7c-0.3-0.6-0.3-1.3-0.1-1.9c0.2-0.6,0.6-1.1,1.2-1.4l5.3-2.6l0,0
					c0.6-0.3,1.3-0.3,1.9-0.1c0.6,0.2,1.1,0.6,1.4,1.2l3.1,6.4c0.3,0.6,0.3,1.3,0.1,1.9s-0.6,1.1-1.2,1.4l-5.3,2.6l0,0
					C22.9,71.4,22.2,71.5,21.6,71.2z M24,58.9l-5.3,2.5c-0.3,0.2-0.5,0.4-0.6,0.7c0,0.3,0,0.6,0.1,0.9l3.1,6.5
					c0.2,0.3,0.4,0.5,0.7,0.6c0.3,0,0.6,0,0.9-0.1l0,0l0,0l5.3-2.6c0.3-0.2,0.5-0.4,0.6-0.7c0-0.3,0-0.6-0.1-0.9l-3.1-6.4
					c-0.2-0.3-0.4-0.5-0.7-0.6C24.6,58.8,24.3,58.8,24,58.9L24,58.9z"/>
			</g>
			<g>
				<path class="st2" d="M9.2,75.4L6.1,69c-0.5-0.9-0.1-2,0.8-2.4l5.3-2.6c0.9-0.5,2-0.1,2.4,0.8l3.1,6.4c0.5,0.9,0.1,2-0.8,2.4
					l-5.3,2.6C10.7,76.7,9.6,76.3,9.2,75.4z"/>
				<path class="st1" d="M8.6,75.7l-3.1-6.4c-0.3-0.6-0.3-1.3-0.1-1.9S6,66.3,6.6,66l5.3-2.6c0.6-0.3,1.3-0.3,1.9-0.1
					c0.6,0.2,1.1,0.6,1.4,1.2l3.1,6.4c0.3,0.6,0.3,1.3,0.1,1.9s-0.6,1.1-1.2,1.4l-5.3,2.6l0,0C10.7,77.4,9.2,76.9,8.6,75.7z
					 M12.4,64.6l-5.2,2.6c-0.3,0.2-0.5,0.4-0.6,0.7c0,0.3,0,0.6,0.1,0.9l3.1,6.4c0.3,0.6,0.9,0.8,1.5,0.5l0,0l0,0l5.3-2.6
					c0.3-0.2,0.5-0.4,0.6-0.7c0-0.3,0-0.6-0.1-0.9L14,65.1c-0.2-0.3-0.4-0.5-0.7-0.6C13,64.5,12.7,64.5,12.4,64.6L12.4,64.6z"/>
			</g>
			<g>
				<path class="st2" d="M-16,87.8l-3.1-6.4c-0.5-0.9-0.1-2,0.8-2.4l19.7-9.7c0.9-0.5,2-0.1,2.4,0.8l3.1,6.4c0.5,0.9,0.1,2-0.8,2.4
					l-19.7,9.7C-14.5,89-15.6,88.6-16,87.8z"/>
				<path class="st1" d="M-16.7,88.1l-3.1-6.4c-0.6-1.2-0.1-2.7,1.1-3.3L1,68.7l0,0c0.6-0.3,1.3-0.3,1.9-0.1
					c0.6,0.2,1.1,0.6,1.4,1.2l3.1,6.4c0.3,0.6,0.3,1.3,0.1,1.9s-0.6,1.1-1.2,1.4l-19.7,9.7l0,0l0,0C-14.5,89.8-16,89.3-16.7,88.1z
					 M5.9,78.4c0.3-0.2,0.5-0.4,0.6-0.7c0-0.3,0-0.6-0.1-0.9l-3.1-6.4c-0.2-0.3-0.4-0.5-0.7-0.6c-0.3,0-0.6,0-0.9,0.1l0,0L-18,79.6
					c-0.6,0.3-0.8,0.9-0.5,1.5l3.1,6.4c0.3,0.6,0.9,0.8,1.5,0.5l0,0L5.9,78.4z"/>
			</g>
			<g>
				<path class="st2" d="M121.1,35.9l-3.1-6.4c-0.5-0.9-0.1-2,0.8-2.4l5.3-2.6c0.9-0.5,2-0.1,2.4,0.8l3.1,6.4c0.5,0.9,0.1,2-0.8,2.4
					l-5.3,2.6C122.7,37.2,121.5,36.8,121.1,35.9z"/>
				<path class="st1" d="M121.9,37.4c-0.6-0.2-1.1-0.6-1.4-1.2l-3.1-6.4c-0.3-0.6-0.3-1.3-0.1-1.9s0.6-1.1,1.2-1.4l5.3-2.6l0,0
					c0.6-0.3,1.3-0.3,1.9-0.1s1.1,0.6,1.4,1.2l3.1,6.4c0.3,0.6,0.3,1.3,0.1,1.9c-0.2,0.6-0.6,1.1-1.2,1.4l-5.3,2.6l0,0
					C123.2,37.6,122.6,37.6,121.9,37.4z M124.4,25.1l-5.4,2.6c-0.3,0.2-0.5,0.4-0.6,0.7c0,0.3,0,0.6,0.1,0.9l3.1,6.4
					c0.2,0.3,0.4,0.5,0.7,0.6c0.3,0,0.6,0,0.9-0.1l0,0l0,0l5.3-2.6c0.3-0.2,0.5-0.4,0.6-0.7c0-0.3,0-0.6-0.1-0.9l-3-6.4
					c-0.2-0.3-0.4-0.5-0.7-0.6C125,25,124.7,25,124.4,25.1L124.4,25.1z"/>
			</g>
			<g>
				<path class="st2" d="M107.2,42.8l-3.1-6.4c-0.5-0.9-0.1-2,0.8-2.4l7.7-3.8c0.9-0.5,2-0.1,2.4,0.8l3.1,6.4c0.5,0.9,0.1,2-0.8,2.4
					l-7.7,3.8C108.7,44,107.6,43.6,107.2,42.8z"/>
				<path class="st1" d="M106.6,43l-3.2-6.3c-0.3-0.6-0.3-1.3-0.1-1.9c0.2-0.6,0.6-1.1,1.2-1.4l7.7-3.8l0,0c0.6-0.3,1.3-0.3,1.9-0.1
					s1.1,0.6,1.4,1.2l3.1,6.4c0.3,0.6,0.3,1.3,0.1,1.9c-0.2,0.6-0.6,1.1-1.2,1.4l-7.7,3.8l0,0l0,0C108.6,44.8,107.1,44.3,106.6,43z
					 M117.1,39.2c0.3-0.2,0.5-0.4,0.6-0.7c0-0.3,0-0.6-0.1-0.9l-3.1-6.4c-0.2-0.3-0.4-0.5-0.7-0.6c-0.3,0-0.6,0-0.9,0.1l0,0
					l-7.7,3.8c-0.3,0.2-0.5,0.4-0.6,0.7c0,0.3,0,0.6,0.1,0.9l3.1,6.4c0.3,0.6,0.9,0.8,1.5,0.5l0,0L117.1,39.2z"/>
			</g>
			<g>
				<path class="st2" d="M143.8,24.8l-3.1-6.4c-0.5-0.9-0.1-2,0.8-2.4l5.3-2.6c0.9-0.5,2-0.1,2.4,0.8l3.1,6.4c0.5,0.9,0.1,2-0.8,2.4
					l-5.3,2.6C145.4,26,144.2,25.7,143.8,24.8z"/>
				<path class="st1" d="M144.6,26.3c-0.6-0.2-1.1-0.6-1.4-1.2l-3.1-6.4c-0.3-0.6-0.3-1.3-0.1-1.9s0.6-1.1,1.2-1.4l5.3-2.6l0,0
					c0.6-0.3,1.3-0.3,1.9-0.1c0.6,0.2,1.1,0.6,1.4,1.2l3.1,6.4c0.3,0.6,0.3,1.3,0.1,1.9s-0.6,1.1-1.2,1.4l-5.3,2.6l0,0
					C145.9,26.5,145.3,26.5,144.6,26.3z M147.1,14l-5.3,2.6c-0.3,0.2-0.5,0.4-0.6,0.7c0,0.3,0,0.6,0.1,0.9l3.1,6.4
					c0.2,0.3,0.4,0.5,0.7,0.6c0.3,0,0.6,0,0.9-0.1l0,0l0,0l5.3-2.6c0.3-0.2,0.5-0.4,0.6-0.7c0-0.3,0-0.6-0.1-0.9l-3.1-6.4
					c-0.2-0.3-0.4-0.5-0.7-0.6C147.7,13.9,147.4,13.9,147.1,14L147.1,14z"/>
			</g>
			<g>
				<path class="st2" d="M132.2,30.5l-3.1-6.4c-0.5-0.9-0.1-2,0.8-2.4l5.3-2.6c0.9-0.5,2-0.1,2.4,0.8l3.1,6.4c0.5,0.9,0.1,2-0.8,2.4
					l-5.3,2.6C133.8,31.7,132.7,31.4,132.2,30.5z"/>
				<path class="st1" d="M131.6,30.8l-3.1-6.4c-0.3-0.6-0.3-1.3-0.1-1.9s0.6-1.1,1.2-1.4l5.3-2.6l0,0c0.6-0.3,1.3-0.3,1.9-0.1
					c0.6,0.2,1.1,0.6,1.4,1.2l3.1,6.4c0.3,0.6,0.3,1.3,0.1,1.9c-0.2,0.6-0.6,1.1-1.2,1.4l-5.3,2.6l0,0
					C133.7,32.5,132.2,32,131.6,30.8z M135.5,19.7l-5.2,2.5c-0.3,0.2-0.5,0.4-0.6,0.7c0,0.3,0,0.6,0.1,0.9l3.1,6.4
					c0.3,0.6,0.9,0.8,1.5,0.5l0,0l0,0l5.3-2.6c0.3-0.2,0.5-0.4,0.6-0.7c0-0.3,0-0.6-0.1-0.9l-3.1-6.3c-0.2-0.3-0.4-0.5-0.7-0.6
					C136.1,19.6,135.8,19.6,135.5,19.7L135.5,19.7z"/>
			</g>
			<g>
				<path class="st2" d="M50.4,70.6l-3.1-6.4c-0.5-0.9-0.1-2,0.8-2.4L98.5,37c0.9-0.5,2-0.1,2.4,0.8l3.1,6.4c0.5,0.9,0.1,2-0.8,2.4
					L52.8,71.4C51.9,71.8,50.8,71.5,50.4,70.6z"/>
				<path class="st1" d="M49.8,70.9l-3.1-6.4c-0.6-1.2-0.1-2.7,1.1-3.3l50.4-24.8l0,0c1.2-0.6,2.7-0.1,3.3,1.1l3.1,6.4
					c0.6,1.2,0.1,2.7-1.1,3.3L53.1,72l0,0l0,0C51.9,72.6,50.4,72.1,49.8,70.9z M102.9,46c0.6-0.3,0.8-0.9,0.5-1.5l-3.1-6.4
					c-0.3-0.6-0.9-0.8-1.5-0.5l0,0L48.4,62.4c-0.6,0.3-0.8,0.9-0.5,1.5l3.1,6.4c0.3,0.6,0.9,0.8,1.5,0.5l0,0L102.9,46z"/>
			</g>
			<g>
				<path class="st2" d="M12.9,88.9l-3.1-6.4c-0.5-0.9-0.1-2,0.8-2.4l5.3-2.6c0.9-0.5,2-0.1,2.4,0.8l3.1,6.4c0.5,0.9,0.1,2-0.8,2.4
					l-5.3,2.6C14.4,90.1,13.4,89.8,12.9,88.9z"/>
				<path class="st1" d="M13.7,90.4c-0.6-0.2-1.1-0.6-1.4-1.2l-3.1-6.4c-0.6-1.2-0.1-2.7,1.1-3.3l5.3-2.6l0,0
					c0.6-0.3,1.3-0.3,1.9-0.1c0.6,0.2,1.1,0.6,1.4,1.2l3.1,6.4c0.6,1.2,0.1,2.7-1.1,3.3l-5.3,2.6l0,0C15,90.6,14.4,90.6,13.7,90.4z
					 M16.2,78.1l-5.3,2.6c-0.6,0.3-0.8,0.9-0.5,1.5l3.1,6.4c0.2,0.3,0.4,0.5,0.7,0.6c0.3,0,0.6,0,0.9-0.1l0,0l0,0l5.3-2.6
					c0.6-0.3,0.8-0.9,0.5-1.5l-3.1-6.4c-0.2-0.3-0.4-0.5-0.7-0.6C16.8,78,16.5,78,16.2,78.1L16.2,78.1z"/>
			</g>
			<g>
				<path class="st2" d="M1.3,94.6l-3.1-6.4c-0.5-0.9-0.1-2,0.8-2.4l5.3-2.6c0.9-0.5,2-0.1,2.4,0.8l3.1,6.4c0.5,0.9,0.1,2-0.8,2.4
					l-5.3,2.6C2.8,95.8,1.8,95.5,1.3,94.6z"/>
				<path class="st1" d="M2.1,96.1c-0.6-0.2-1.1-0.6-1.4-1.2l-3.1-6.4c-0.3-0.6-0.3-1.3-0.1-1.9s0.6-1.1,1.2-1.4L4,82.6l0,0
					c0.6-0.3,1.3-0.3,1.9-0.1s1.1,0.6,1.4,1.2l3.1,6.4c0.3,0.6,0.3,1.3,0.1,1.9s-0.6,1.1-1.2,1.4L4,96l0,0
					C3.4,96.3,2.8,96.3,2.1,96.1z M4.6,83.8l-5.3,2.6c-0.3,0.2-0.5,0.4-0.6,0.7c0,0.3,0,0.6,0.1,0.9l3.1,6.4
					c0.2,0.3,0.4,0.5,0.7,0.6c0.3,0,0.6,0,0.9-0.1l0,0l0,0l5.3-2.6c0.3-0.2,0.5-0.4,0.6-0.7c0-0.3,0-0.6-0.1-0.9l-3.1-6.4
					C6,84,5.8,83.8,5.5,83.7C5.2,83.7,4.9,83.7,4.6,83.8L4.6,83.8z"/>
			</g>
			<g>
				<path class="st2" d="M35.7,77.8l-3.1-6.4c-0.5-0.9-0.1-2,0.8-2.4l8.3-4.1c0.9-0.5,2-0.1,2.4,0.8l3.1,6.4c0.5,0.9,0.1,2-0.8,2.4
					l-8.3,4.1C37.2,79,36.1,78.6,35.7,77.8z"/>
				<path class="st1" d="M35.1,78.1L32,71.7c-0.3-0.6-0.3-1.3-0.1-1.9s0.6-1.1,1.2-1.4l8.3-4.1l0,0c0.6-0.3,1.3-0.3,1.9-0.1
					c0.6,0.2,1.1,0.6,1.4,1.2l3.1,6.4c0.3,0.6,0.3,1.3,0.1,1.9s-0.6,1.1-1.2,1.4l-8.3,4.1l0,0l0,0C37.1,79.8,35.6,79.3,35.1,78.1z
					 M46.2,73.9c0.3-0.2,0.5-0.4,0.6-0.7c0-0.3,0-0.6-0.1-0.9l-3.1-6.4c-0.2-0.3-0.4-0.5-0.7-0.6c-0.3,0-0.6,0-0.9,0.1l0,0l-8.3,4.1
					c-0.3,0.2-0.5,0.4-0.6,0.7c0,0.3,0,0.6,0.1,0.9l3.1,6.4c0.3,0.6,0.9,0.8,1.5,0.5l0,0L46.2,73.9z"/>
			</g>
			<g>
				<path class="st2" d="M24.8,83.1l-3.1-6.4c-0.5-0.9-0.1-2,0.8-2.4l5.3-2.6c0.9-0.5,2-0.1,2.4,0.8l3.1,6.4c0.5,0.9,0.1,2-0.8,2.4
					l-5.3,2.6C26.3,84.3,25.3,83.9,24.8,83.1z"/>
				<path class="st1" d="M25.6,84.6c-0.6-0.2-1.1-0.6-1.4-1.2L21.1,77c-0.3-0.6-0.3-1.3-0.1-1.9s0.6-1.1,1.2-1.4l5.3-2.6
					c0.6-0.2,1.3-0.3,1.9-0.1c0.6,0.2,1.1,0.6,1.4,1.2l3.1,6.4c0.3,0.6,0.3,1.3,0.1,1.9s-0.6,1.1-1.2,1.4l-5.3,2.6l0,0
					C26.9,84.8,26.3,84.8,25.6,84.6z M28.1,72.3l-5.3,2.6c-0.3,0.2-0.5,0.4-0.6,0.7c0,0.3,0,0.6,0.1,0.9l3.1,6.4
					c0.2,0.3,0.4,0.5,0.7,0.6c0.3,0,0.6,0,0.9-0.1l0,0l0,0l5.3-2.6c0.3-0.2,0.5-0.4,0.6-0.7c0-0.3,0-0.6-0.1-0.9l-3.1-6.4
					c-0.2-0.3-0.4-0.5-0.7-0.6C28.7,72.2,28.4,72.2,28.1,72.3L28.1,72.3z"/>
			</g>
			<g>
				<path class="st2" d="M39.4-0.1l-1-2c-0.2-0.3-0.1-0.7,0.3-0.9L46-6.6c0.3-0.2,0.7-0.1,0.9,0.3l1,2C48.1-4,48-3.6,47.6-3.4
					l-7.3,3.6C40,0.4,39.6,0.2,39.4-0.1z"/>
				<path class="st1" d="M38.7,0.3l-1-2c-0.2-0.4-0.2-0.7-0.1-1.1c0.1-0.4,0.4-0.6,0.7-0.8l7.3-3.6l0,0c0.4-0.2,0.7-0.2,1.1-0.1
					c0.4,0.1,0.6,0.4,0.8,0.7l1,2c0.4,0.6,0.1,1.5-0.6,1.8l-7.3,3.6l0,0l0,0C39.9,1.1,39.1,0.9,38.7,0.3z M46.3-6l-7.4,3.6
					c0,0.1,0,0.1,0,0.1l1,2c0.1,0,0.1,0,0.1,0l7.3-3.6c0-0.1,0-0.1,0-0.1L46.3-6C46.4-6,46.3-6,46.3-6L46.3-6z"/>
			</g>
			<g>
				<path class="st2" d="M28.2,5.5l-1-2c-0.2-0.3-0.1-0.7,0.3-0.9L34.8-1c0.3-0.2,0.7-0.1,0.9,0.3l1,2c0.2,0.3,0.1,0.7-0.3,0.9
					l-7.3,3.6C28.7,5.9,28.3,5.8,28.2,5.5z"/>
				<path class="st1" d="M27.4,5.9l-1-2c-0.2-0.4-0.2-0.7-0.1-1.1C26.4,2.4,26.7,2.2,27,2l7.3-3.6c0.4-0.2,0.7-0.2,1.1-0.1
					C35.8-1.6,36-1.3,36.2-1l1,2c0.4,0.6,0.1,1.5-0.6,1.8l-7.3,3.6l0,0c0.1-0.1,0.1-0.1,0,0C28.7,6.7,27.9,6.4,27.4,5.9z M35-0.4
					l-7.4,3.6v0.1l1,2c0.1,0,0.1,0,0.1,0L36,1.7c0-0.1,0-0.1,0-0.1L35-0.4C35.1-0.4,35.1-0.4,35-0.4L35-0.4z"/>
			</g>
			<g>
				<path class="st2" d="M16.9,10.9l-1-2c-0.2-0.3-0.1-0.7,0.3-0.9l7.3-3.5c0.3-0.2,0.7-0.1,0.9,0.3l1,2c0.2,0.3,0.1,0.7-0.3,0.9
					l-7.3,3.6C17.5,11.4,17,11.3,16.9,10.9z"/>
				<path class="st1" d="M16.2,11.3l-1-2C15,8.9,15,8.6,15.1,8.2c0.1-0.4,0.4-0.6,0.7-0.8l7.3-3.6l0,0c0.4-0.2,0.7-0.2,1.1-0.1
					c0.4,0.1,0.6,0.4,0.8,0.7l1,2c0.2,0.4,0.2,0.7,0.1,1.1s-0.4,0.6-0.7,0.8l-7.3,3.6l0,0C17.4,12.2,16.6,11.9,16.2,11.3z M23.8,5.1
					l-7.4,3.6c0,0.1,0,0.1,0,0.1l1,2c0.1,0,0.1,0,0.1,0l0,0l0,0l7.3-3.6c0-0.1,0-0.1,0-0.1L23.8,5.1C23.9,5.1,23.8,5.1,23.8,5.1
					L23.8,5.1z"/>
			</g>
			<g>
				<path class="st2" d="M5.7,16.5l-1-2c-0.2-0.3-0.1-0.7,0.3-0.9l7.3-3.6c0.3-0.2,0.7-0.1,0.9,0.3l1,2c0.2,0.3,0.1,0.7-0.3,0.9
					l-7.3,3.6C6.2,17,5.8,16.8,5.7,16.5z"/>
				<path class="st1" d="M5.9,17.4c-0.4-0.1-0.6-0.4-0.8-0.7l-1-2c-0.4-0.6-0.1-1.5,0.6-1.8L12,9.3l0,0c0.6-0.4,1.5-0.1,1.8,0.6l1,2
					c0.2,0.4,0.2,0.7,0.1,1.1c-0.1,0.4-0.4,0.6-0.7,0.8l-7.3,3.6l0,0C6.5,17.6,6.1,17.6,5.9,17.4z M12.5,10.6l-7.4,3.6
					c0,0.1,0,0.1,0,0.1l1,2c0.1,0,0.1,0,0.1,0l0,0l0,0l7.3-3.6v-0.1L12.5,10.6C12.6,10.6,12.5,10.6,12.5,10.6L12.5,10.6z"/>
			</g>
			<g>
				<path class="st2" d="M-6,22.3l-1-2c-0.2-0.3-0.1-0.7,0.3-0.9l7.3-3.6c0.3-0.2,0.7-0.1,0.9,0.3l1,2c0.2,0.3,0.1,0.7-0.3,0.9
					l-7.3,3.5C-5.4,22.7-5.8,22.6-6,22.3z"/>
				<path class="st1" d="M-5.8,23.2c-0.4-0.1-0.6-0.4-0.8-0.7l-1-2C-8,19.9-7.7,19-7,18.7l7.3-3.6l0,0c0.6-0.4,1.5-0.1,1.8,0.6l1,2
					c0.4,0.6,0.1,1.5-0.6,1.8l-7.3,3.6l0,0l0,0C-5.1,23.3-5.5,23.3-5.8,23.2z M0.9,16.3l-7.4,3.6c0,0.1,0,0.1,0,0.1l1,2
					c0.1,0,0.1,0,0.1,0l7.3-3.6c0-0.1,0-0.1,0-0.1L0.9,16.3L0.9,16.3L0.9,16.3z"/>
			</g>
			<g>
				<path id="keyboard_8_" class="st2" d="M61,138L36.7,88.5c-0.5-1.1-0.1-2.5,1.1-3.1l75.7-37.2c1.1-0.5,2.5-0.1,3.1,1.1l24.3,49.5
					c0.5,1.1,0.1,2.5-1.1,3.1l-75.7,37.2C62.9,139.6,61.6,139.1,61,138z"/>
				<path class="st1" d="M60.4,138.2L36,88.8c-0.3-0.7-0.4-1.5-0.1-2.3c0.2-0.7,0.8-1.3,1.5-1.7l75.7-37.2l0,0
					c0.7-0.3,1.5-0.4,2.3-0.1c0.7,0.2,1.3,0.8,1.7,1.5l24.4,49.5c0.7,1.5,0.1,3.3-1.4,4l-75.7,37.2l0,0l0,0
					C62.9,140.4,61.1,139.8,60.4,138.2z M139.5,101.3c0.9-0.5,1.2-1.5,0.8-2.3L116,49.6c-0.2-0.4-0.6-0.8-1-0.9
					c-0.4-0.1-0.9-0.1-1.3,0.1l0,0L38,86c-0.4,0.2-0.8,0.6-0.9,1s-0.1,0.9,0.1,1.3l24.3,49.4c0.5,0.9,1.5,1.2,2.3,0.8l0,0
					L139.5,101.3z"/>
			</g>
		</g>
	</g>
</g>
</svg>
