<?xml version="1.0" encoding="utf-8"?>
<!-- Generator: Adobe Illustrator 22.0.1, SVG Export Plug-In . SVG Version: 6.00 Build 0)  -->
<svg version="1.1" id="Layer_1" xmlns="http://www.w3.org/2000/svg" xmlns:xlink="http://www.w3.org/1999/xlink" x="0px" y="0px"
	 viewBox="0 0 158.3 181.5" style="enable-background:new 0 0 158.3 181.5;" xml:space="preserve">
<style type="text/css">
	.st0{fill:#FFFFFF;}
	.st1{fill:#21B0BE;}
	.st2{fill:#7CE5E5;}
</style>
<g id="outline-stroke_1_">
	<g id="notebook_1_">
		<g id="pages">
			<g id="outer">
				<g>
					<path id="l_1_" class="st0" d="M26.6,157.4l-79.3-19.2c-2.6-0.7-4.3-3.4-3.6-6L-25.4,4.5c0.7-2.6,3.4-4.3,6-3.6L59.9,20
						c2.6,0.7,4.3,3.4,3.6,6l-31,127.7C32,156.4,29.3,158,26.6,157.4z"/>
					<path class="st1" d="M27.8,158.7c-0.5,0-1-0.1-1.5-0.2L-53,139.3c-1.6-0.4-2.9-1.4-3.8-2.8c-0.9-1.4-1.1-3.1-0.7-4.7L-26.6,4.1
						c0.8-3.3,4.2-5.3,7.5-4.5l79.3,19.2c3.3,0.8,5.3,4.2,4.5,7.5L33.7,154c-0.3,1.5-1.3,2.9-2.7,3.8
						C30.1,158.4,28.9,158.7,27.8,158.7z M-20.6,1.9c-1.7,0-3.3,1.2-3.7,2.8l-30.9,127.7c-0.2,1-0.1,2,0.4,2.9
						c0.5,0.9,1.3,1.5,2.3,1.7l79.3,19.2l0,0c1,0.2,2,0.1,2.9-0.5c0.8-0.5,1.4-1.3,1.6-2.2l31-127.7c0.5-2-0.8-4.1-2.7-4.6L-19.7,2
						C-20,1.9-20.3,1.9-20.6,1.9z"/>
				</g>
				<g>
					<path id="r_3_" class="st0" d="M120.1,180l-79.3-19.2c-2.6-0.7-4.3-3.4-3.6-6L68,27c0.7-2.6,3.4-4.3,6-3.6l79.3,19.2
						c2.6,0.7,4.3,3.4,3.6,6l-31,127.7C125.5,179,122.7,180.7,120.1,180z"/>
					<path class="st1" d="M121.2,181.4c-0.5,0-1-0.1-1.5-0.2L40.5,162c-1.6-0.4-2.9-1.4-3.8-2.8c-0.9-1.4-1.1-3.1-0.7-4.7L66.9,26.8
						c0.8-3.3,4.2-5.3,7.5-4.5l79.3,19.2c3.3,0.8,5.3,4.2,4.5,7.5l-31,127.7c-0.3,1.5-1.3,2.9-2.7,3.8
						C123.5,181,122.4,181.4,121.2,181.4z M72.9,24.5c-1.7,0-3.3,1.2-3.7,2.8L38.3,155c-0.2,1-0.1,2,0.4,2.9s1.3,1.5,2.3,1.7
						l79.3,19.2l0,0c1,0.2,2,0.1,2.9-0.5c0.8-0.5,1.4-1.3,1.6-2.2l31-127.7c0.5-2-0.8-4.1-2.7-4.6L73.8,24.6
						C73.5,24.5,73.2,24.5,72.9,24.5z"/>
				</g>
			</g>
			<g id="inner">
				<g>
					
						<rect x="-61.6" y="40.5" transform="matrix(0.2356 -0.9718 0.9718 0.2356 -74.1561 63.9736)" class="st2" width="130.4" height="77.3"/>
					<path class="st1" d="M25.8,152.8c-0.1,0-0.2,0-0.3,0l-75.1-18.2c-0.3-0.1-0.6-0.3-0.7-0.5c-0.2-0.3-0.2-0.6-0.1-0.9L-19.7,6.4
						c0.2-0.6,0.8-1,1.5-0.9l75,18.2c0.3,0.1,0.6,0.3,0.7,0.5c0.2,0.3,0.2,0.6,0.1,0.9L27,151.9C26.8,152.5,26.3,152.8,25.8,152.8z
						 M-47.9,132.5l72.8,17.6L55.1,25.8L-17.7,8.2L-47.9,132.5z"/>
				</g>
				<g>
					
						<rect id="r_2_" x="31.7" y="63" transform="matrix(0.2356 -0.9718 0.9718 0.2356 -24.7787 171.8832)" class="st2" width="130.4" height="77.3"/>
					<path class="st1" d="M119.1,175.4c-0.1,0-0.2,0-0.3,0l-75.1-18.2c-0.6-0.2-1-0.8-0.9-1.5L73.5,28.9c0.2-0.6,0.8-1,1.5-0.9
						l75.1,18.2c0.3,0.1,0.6,0.3,0.7,0.5c0.2,0.3,0.2,0.6,0.1,0.9l-30.7,126.8c-0.1,0.3-0.3,0.6-0.5,0.7
						C119.6,175.3,119.3,175.4,119.1,175.4z M45.4,155.1l72.8,17.6l30.2-124.4L75.6,30.6L45.4,155.1z"/>
				</g>
			</g>
		</g>
		<g id="writing_2_">
			
				<rect x="96.7" y="44.4" transform="matrix(0.2361 -0.9717 0.9717 0.2361 12.2471 144.336)" class="st1" width="2.4" height="40"/>
			
				<rect x="100.2" y="47" transform="matrix(0.2354 -0.9719 0.9719 0.2354 7.4044 153.7871)" class="st1" width="2.4" height="50.4"/>
			
				<rect x="86.6" y="62.9" transform="matrix(0.2385 -0.9711 0.9711 0.2385 -6.743 142.9782)" class="st1" width="2.4" height="25.8"/>
			
				<rect x="87.5" y="82.4" transform="matrix(0.2361 -0.9717 0.9717 0.2361 -31.6912 164.3904)" class="st1" width="2.4" height="40"/>
			<rect x="91" y="85" transform="matrix(0.2353 -0.9719 0.9719 0.2353 -36.5396 173.866)" class="st1" width="2.4" height="50.4"/>
			
				<rect x="77.4" y="100.9" transform="matrix(0.2345 -0.9721 0.9721 0.2345 -50.4576 163.5717)" class="st1" width="2.4" height="25.8"/>
			
				<rect x="94.4" y="61.8" transform="matrix(0.2356 -0.9719 0.9719 0.2356 -8.673 157.224)" class="st1" width="2.4" height="44.7"/>
			
				<rect x="98.5" y="63.7" transform="matrix(0.2357 -0.9718 0.9718 0.2357 -13.0861 167.1547)" class="st1" width="2.4" height="56.4"/>
			
				<rect x="88.2" y="76.9" transform="matrix(0.2351 -0.972 0.972 0.2351 -24.998 160.434)" class="st1" width="2.4" height="38.3"/>
		</g>
		<g id="fill_1_">
			<g>
				<path class="st1" d="M102,49l-0.2,1l-1.5-0.3l-1,4.1l-1.1-0.2l1-4.1L97.5,49l0.2-1L102,49z"/>
				<path class="st1" d="M106.8,53c-0.3,1.4-1.8,2.3-3.3,1.9c-1.5-0.3-2.4-1.8-2.1-3.2c0.3-1.5,1.8-2.3,3.3-1.9
					C106.2,50.1,107.1,51.4,106.8,53z M102.5,51.9c-0.2,0.9,0.3,1.8,1.2,2c0.9,0.2,1.8-0.3,2-1.2c0.2-0.9-0.3-1.8-1.2-1.9
					C103.6,50.4,102.7,51,102.5,51.9z"/>
				<path class="st1" d="M114.5,54.7c-0.3,1.5-1.8,2.2-3.3,1.9l-2.1-0.5l1.2-5.1l2.1,0.5C113.9,52,114.8,53.2,114.5,54.7z
					 M113.3,54.5c0.2-0.9-0.2-1.8-1.1-1.9l-1-0.2l-0.8,3.1l1,0.2C112.3,55.9,113,55.4,113.3,54.5z"/>
				<path class="st1" d="M120.1,56.1c-0.3,1.4-1.8,2.3-3.3,1.9c-1.5-0.4-2.4-1.8-2.1-3.2c0.3-1.5,1.8-2.3,3.3-1.9
					C119.5,53.3,120.5,54.7,120.1,56.1z M115.9,55c-0.2,0.9,0.3,1.8,1.2,2c0.9,0.2,1.8-0.3,2-1.2s-0.3-1.8-1.2-1.9
					C117,53.7,116.1,54.2,115.9,55z"/>
			</g>
			<g>
				<path class="st1" d="M69.8,31l-9.3-2.3c-0.2,0-0.4-0.2-0.3-0.5l0.4-1.8c0-0.2,0.2-0.4,0.5-0.3l9.3,2.3c0.2,0,0.4,0.2,0.3,0.5
					l-0.4,1.8C70.2,30.9,70,31.1,69.8,31z"/>
				<path class="st1" d="M68.1,37.8l-9.3-2.3c-0.2,0-0.4-0.2-0.3-0.5l0.4-1.8c0-0.2,0.2-0.4,0.5-0.3l9.3,2.3c0.2,0,0.4,0.2,0.3,0.5
					l-0.4,1.8C68.6,37.8,68.4,37.9,68.1,37.8z"/>
				<path class="st1" d="M66.4,44.7L57,42.4c-0.2,0-0.4-0.2-0.3-0.5l0.4-1.8c0-0.2,0.2-0.4,0.5-0.3l9.3,2.3c0.2,0,0.4,0.2,0.3,0.5
					l-0.4,1.9C66.9,44.6,66.7,44.8,66.4,44.7z"/>
				<path class="st1" d="M64.7,51.6l-9.3-2.3c-0.2,0-0.4-0.2-0.3-0.5l0.4-1.8c0-0.2,0.2-0.4,0.5-0.3l9.3,2.3c0.2,0,0.4,0.2,0.3,0.5
					l-0.4,1.8C65.2,51.5,65.1,51.6,64.7,51.6z"/>
				<path class="st1" d="M63.1,58.4l-9.3-2.3c-0.2,0-0.4-0.2-0.3-0.5l0.4-1.8c0-0.2,0.2-0.4,0.5-0.3l9.3,2.3c0.2,0,0.4,0.2,0.3,0.5
					l-0.4,1.8C63.5,58.4,63.3,58.6,63.1,58.4z"/>
				<path class="st1" d="M61.4,65.4l-9.3-2.3c-0.2,0-0.4-0.2-0.3-0.5l0.4-1.8c0-0.2,0.2-0.4,0.5-0.3l9.3,2.3c0.2,0,0.4,0.2,0.3,0.5
					L62,65C61.9,65.2,61.7,65.4,61.4,65.4z"/>
				<path class="st1" d="M59.8,72.2l-9.3-2.3c-0.2,0-0.4-0.2-0.3-0.5l0.4-1.8c0-0.2,0.2-0.4,0.5-0.3l9.3,2.3c0.2,0,0.4,0.2,0.3,0.5
					l-0.4,1.8C60.2,72.2,60,72.3,59.8,72.2z"/>
				<path class="st1" d="M58.1,79.1l-9.3-2.3c-0.2,0-0.4-0.2-0.3-0.5l0.4-1.8c0-0.2,0.2-0.4,0.5-0.3l9.3,2.3c0.2,0,0.4,0.2,0.3,0.5
					l-0.4,1.8C58.6,79,58.4,79.1,58.1,79.1z"/>
				<path class="st1" d="M56.4,85.9l-9.3-2.3c-0.2,0-0.4-0.2-0.3-0.5l0.4-1.8c0-0.2,0.2-0.4,0.5-0.3l9.3,2.3c0.2,0,0.4,0.2,0.3,0.5
					l-0.4,1.8C56.9,85.8,56.7,86,56.4,85.9z"/>
				<path class="st1" d="M54.7,92.8l-9.3-2.3c-0.2,0-0.4-0.2-0.3-0.5l0.4-1.8c0-0.2,0.2-0.4,0.5-0.3l9.3,2.3c0.2,0,0.4,0.2,0.3,0.5
					l-0.4,1.8C55.3,92.7,55.1,92.9,54.7,92.8z"/>
				<path class="st1" d="M53.1,99.7l-9.3-2.3c-0.2,0-0.4-0.2-0.3-0.5l0.4-1.8c0-0.2,0.2-0.4,0.5-0.3l9.3,2.3c0.2,0,0.4,0.2,0.3,0.5
					l-0.4,1.8C53.5,99.6,53.3,99.7,53.1,99.7z"/>
				<path class="st1" d="M51.4,106.5l-9.3-2.3c-0.2,0-0.4-0.2-0.3-0.5l0.4-1.8c0-0.2,0.2-0.4,0.5-0.3l9.3,2.3c0.2,0,0.4,0.2,0.3,0.5
					l-0.3,1.8C51.9,106.4,51.7,106.6,51.4,106.5z"/>
				<path class="st1" d="M49.8,113.5l-9.3-2.3c-0.2,0-0.4-0.2-0.3-0.5l0.4-1.8c0-0.2,0.2-0.4,0.5-0.3l9.3,2.3c0.2,0,0.4,0.2,0.3,0.5
					l-0.5,1.8C50.2,113.3,50,113.5,49.8,113.5z"/>
				<path class="st1" d="M48.2,120.3l-9.4-2.3c-0.2,0-0.4-0.2-0.3-0.5l0.4-1.8c0-0.2,0.2-0.4,0.5-0.3l9.3,2.3c0.2,0,0.4,0.2,0.3,0.5
					l-0.4,1.8C48.6,120.2,48.4,120.4,48.2,120.3z"/>
				<path class="st1" d="M46.4,127.2l-9.3-2.3c-0.2,0-0.4-0.2-0.3-0.5l0.4-1.8c0-0.2,0.2-0.4,0.5-0.3l9.3,2.3c0.2,0,0.4,0.2,0.3,0.5
					l-0.4,1.8C46.9,127.1,46.7,127.2,46.4,127.2z"/>
				<path class="st1" d="M44.7,134l-9.3-2.3c-0.2,0-0.4-0.2-0.3-0.5l0.4-1.8c0-0.2,0.2-0.4,0.5-0.3l9.3,2.3c0.2,0,0.4,0.2,0.3,0.5
					l-0.4,1.8C45.2,134,45.1,134.1,44.7,134z"/>
				<path class="st1" d="M43.1,140.9l-9.3-2.3c-0.2,0-0.4-0.2-0.3-0.5l0.4-1.8c0-0.2,0.2-0.4,0.5-0.3l9.3,2.3c0.2,0,0.4,0.2,0.3,0.5
					l-0.4,1.8C43.5,140.8,43.4,140.9,43.1,140.9z"/>
				<path class="st1" d="M41.5,147.7l-9.3-2.3c-0.2,0-0.4-0.2-0.3-0.5l0.4-1.8c0-0.2,0.2-0.4,0.5-0.3l9.3,2.3c0.2,0,0.4,0.2,0.3,0.5
					l-0.4,1.8C41.9,147.7,41.7,147.8,41.5,147.7z"/>
				<path class="st1" d="M39.8,154.6l-9.3-2.3c-0.2,0-0.4-0.2-0.3-0.5l0.4-1.8c0-0.2,0.2-0.4,0.5-0.3l9.3,2.3c0.2,0,0.4,0.2,0.3,0.5
					l-0.4,1.8C40.2,154.5,40,154.6,39.8,154.6z"/>
			</g>
		</g>
	</g>
</g>
</svg>
