<?xml version="1.0" encoding="utf-8"?>
<!-- Generator: Adobe Illustrator 22.0.1, SVG Export Plug-In . SVG Version: 6.00 Build 0)  -->
<svg version="1.1" id="Layer_1" xmlns="http://www.w3.org/2000/svg" xmlns:xlink="http://www.w3.org/1999/xlink" x="0px" y="0px"
	 viewBox="0 0 103.9 183.2" style="enable-background:new 0 0 103.9 183.2;" xml:space="preserve">
<style type="text/css">
	.st0{fill:#7CE5E5;}
	.st1{fill:#21B0BE;}
</style>
<g id="outline-stroke_2_">
	<g id="headphohnes_1_">
		<g id="fill_3_">
			<g>
				<path class="st0" d="M29.7,22.1c-0.2-0.6-2.3-4.9-1.6-5.7c0.5-0.6,2.3,0.5,2.9,0.7c1.1,0.4,2,0.7,3.1,0c1.6-0.8,2.3-3.2,2.4-5
					c0.2-2.9-1.2-5.6-3-7.6c-1.5-1.9-3.8-3.6-6.1-1.9c-1.9,1.5-3,4.4-3.5,6.8c-1,6.2,1.2,12,3.2,17.6c0.3,0.8,4.6,12.4,5.3,12l3-1.5
					c0.4-0.1,0.5-0.5,0.3-0.9C34.5,33.9,30.3,23.7,29.7,22.1z"/>
				<path class="st1" d="M26.7,27.5v-0.2c-2-5.7-4.1-11.5-3.1-17.7c0.3-1.6,1.2-5.3,3.7-7.2c2.1-1.5,4.4-0.8,6.7,2
					c2.3,2.7,3.3,5.4,3.1,8c-0.1,1.9-0.9,4.4-2.6,5.4c-1.3,0.7-2.6,0.3-3.5,0c0-0.2-0.2-0.2-0.4-0.3c-1.6-0.8-2-0.7-2-0.6
					C28.4,17,28.4,18,30,21.6c0.1,0.2,0.1,0.4,0.2,0.5c0.6,1.5,4.7,11.8,5.9,14.3c0.2,0.6,0,1.3-0.5,1.5l-3,1.5
					c-0.1,0-0.2,0.1-0.4,0l0,0C31,38.6,26.9,27.3,26.7,27.5z M27.7,3c-1.5,1.2-2.8,3.7-3.3,6.6c-1,5.9,1.1,11.5,3.1,17.1v0.2
					c1.1,3,4,10.5,5,11.7l2.7-1.4c0.1-0.1,0.2-0.3,0.1-0.4l0,0C34.1,34.2,30,24,29.4,22.5c0-0.1-0.1-0.2-0.2-0.5
					c-1.5-3.5-1.8-4.9-1.3-5.6c0.7-0.8,2.1-0.2,3.1,0.3c0,0.1,0.2,0.2,0.3,0.2c1,0.4,1.8,0.6,2.7,0.1c1.4-0.9,2.1-2.9,2.2-4.8
					c0.1-2.4-0.8-4.9-2.8-7.5c-0.6-0.7-1.3-1.4-2.1-1.9C30.2,2.2,29,2,27.7,3z"/>
			</g>
			<g>
				<path class="st0" d="M52.6,46.8c-1.5,1.3-2.3,3.3-2.1,5.4l0.1,1.7c0.3,2,1.2,3.7,2.7,4.8c3.6,2.7,7.1,1.2,8.4,0.4
					c0.1-0.1,0.5,0,0.5,0.3l0.5,20c0,0.3,0.2,0.4,0.4,0.4l3.2-0.3c0.3,0,0.3-0.2,0.4-0.4c0-2.4,0.1-15.7-0.7-26.2
					c-1-11.5-9.9-8.2-9.9-8.2C54.7,45,53.5,45.8,52.6,46.8z"/>
				<path class="st1" d="M62.7,80c-0.4-0.2-0.4-0.4-0.3-0.6l-0.6-19.9c-1.5,0.8-5.1,2.3-8.9-0.4c-1.5-1.1-2.6-3-2.8-5.1l-0.3-1.7
					c-0.2-2.3,0.6-4.6,2.2-5.9c1.4-1.1,2.7-1.8,3.9-2c0.5-0.2,3.8-1.2,6.7,0.6c2.2,1.3,3.5,4.1,3.8,8c0.9,10.4,0.7,23.5,0.7,26
					c0.1,0.4-0.3,0.7-0.7,0.8l-3.2,0.3C63.1,80.1,62.9,80.1,62.7,80C62.6,80,62.6,80,62.7,80z M65.7,52.9c-0.3-3.7-1.4-6.2-3.4-7.4
					c-2.7-1.7-6-0.5-6-0.5h-0.1c-1,0.2-2.2,0.8-3.4,1.9c-1.4,1.2-2.2,3.1-2,5.1l0.1,1.7c0.2,1.9,1.1,3.5,2.5,4.5
					c3.4,2.4,6.6,1,7.9,0.3c0.3-0.1,0.6-0.2,0.9,0c0.3,0.1,0.4,0.4,0.4,0.7l0.5,20l3.1-0.3C66.3,76.3,66.3,63.4,65.7,52.9z"/>
			</g>
		</g>
		<g id="lines_1_">
			<path class="st1" d="M81.5,112c-14.4-11.4-34.2-32.9-47-71l0.8-0.2C48,78.4,67.6,99.7,81.9,111.1c8.1,6.4,15.3,10.4,20,12.5
				c5.1,2.3,8.3,3.2,8.3,3.2l-0.2,0.9c-0.1,0-3.2-0.8-8.3-3.2c-2.4-1-5.5-2.6-9.1-4.8C89.2,117.7,85.5,115.1,81.5,112z"/>
			<path class="st1" d="M75.7,162.5c-8-9.8-12.9-21.7-14-34.4c-1.4-15,0.4-30.5,2.3-45.4l0.1-1.3l0.8,0.1l-0.1,1.3
				C63,97.7,61.1,113,62.5,128c1.2,12.5,5.9,24.2,13.7,33.9c7.4,9.2,17.1,16.3,28.2,20.3l-0.3,0.9c-4-1.5-7.9-3.4-11.5-5.6
				C86.1,173.6,80.2,168.5,75.7,162.5z"/>
			<path class="st1" d="M32.3,11.2L30.4,8c-0.2-0.3-0.1-0.7,0.2-0.9c0.3-0.2,0.7-0.1,0.9,0.2l1.9,3.2c0.2,0.3,0.1,0.7-0.2,0.9
				c-0.1,0.2-0.4,0.1-0.6,0C32.5,11.3,32.4,11.3,32.3,11.2z"/>
			<g id="largerLine">
				<path class="st1" d="M34.5,41.6l-1-2.8c-0.1-0.5,0.1-0.9,0.6-1.1c0.5-0.1,0.9,0.1,1.1,0.6l1,2.8c0.1,0.5-0.1,0.9-0.6,1.1
					c-0.2,0.2-0.4,0.2-0.7,0C34.7,42.1,34.5,42,34.5,41.6z"/>
				<path class="st1" d="M63.4,83l0.3-3c-0.1-0.5,0.4-0.9,0.9-0.8c0.5-0.1,0.9,0.4,0.8,0.9l-0.3,3c0.1,0.5-0.4,0.9-0.9,0.8
					c-0.1,0-0.3-0.1-0.4-0.1C63.6,83.6,63.3,83.3,63.4,83z"/>
			</g>
		</g>
	</g>
</g>
</svg>
