<?xml version="1.0" encoding="utf-8"?>
<!-- Generator: Adobe Illustrator 22.0.1, SVG Export Plug-In . SVG Version: 6.00 Build 0)  -->
<svg version="1.1" id="Layer_1" xmlns="http://www.w3.org/2000/svg" xmlns:xlink="http://www.w3.org/1999/xlink" x="0px" y="0px"
	 viewBox="0 0 107.9 145.2" style="enable-background:new 0 0 107.9 145.2;" xml:space="preserve">
<style type="text/css">
	.st0{fill:#21B0BE;}
	.st1{fill:#7CE5E5;}
	.st2{fill:#FFFFFF;stroke:#21B0BE;stroke-width:3;stroke-linejoin:round;stroke-miterlimit:10;}
	.st3{fill:#7CE5E5;stroke:#21B0BE;stroke-width:3;stroke-linejoin:round;stroke-miterlimit:10;}
	.st4{fill:none;stroke:#21B0BE;stroke-width:3;stroke-linejoin:round;stroke-miterlimit:10;}
	.st5{fill:#D8FEFF;}
</style>
<g id="outline-stroke_2_">
	<g id="headphohnes_1_">
		<g id="fill_3_">
			<g>
				<path class="st1" d="M87.1,32.2c-0.3,0.3-0.3,0.7,0,1l2.3,2.4c0.5,0.6,8.4-9,8.9-9.6c3.7-4.6,7.7-9.4,8.8-15.6
					c0.4-2.5,0.3-5.6-1.1-7.6c-1.6-2.4-4.3-1.5-6.4-0.2C97.3,3.9,95,6,94.3,8.8c-0.5,1.7-0.6,4.2,0.6,5.5c0.8,1,1.8,1,2.9,1
					c0.6,0,2.7-0.4,3,0.3c0.4,1-3,4.4-3.4,4.9C96.4,21.8,89.1,30.1,87.1,32.2z"/>
				<path class="st0" d="M89.5,36L89.5,36c-0.2,0-0.3-0.1-0.4-0.1l-2.3-2.4c-0.4-0.4-0.4-1.1,0-1.6c2-2,9.2-10.4,10.2-11.6
					c0.1-0.1,0.2-0.2,0.4-0.4c2.7-2.9,3-3.8,2.9-4c0-0.1-0.3-0.3-2.1-0.1c-0.2,0-0.4,0-0.5,0.1c-1,0-2.3,0-3.3-1.1
					c-1.3-1.5-1.2-4.1-0.7-5.9c0.7-2.5,2.5-4.7,5.5-6.6c3.1-1.9,5.5-1.8,7,0.3c1.8,2.6,1.4,6.4,1.2,8c-1.1,6.2-4.9,11-8.7,15.7
					l-0.1,0.2C98.5,26.3,90.9,35.6,89.5,36z M102.3,1.7c-0.9,0.2-1.8,0.7-2.6,1.1C97,4.6,95.3,6.7,94.6,9c-0.5,1.8-0.5,4,0.5,5.2
					c0.7,0.8,1.5,0.8,2.6,0.8c0.1,0,0.3,0,0.4-0.1c1.1-0.1,2.6-0.3,3,0.7c0.3,0.8-0.5,2.1-3.1,4.9c-0.2,0.2-0.3,0.3-0.4,0.4
					c-1,1.2-8.2,9.5-10.2,11.6l0,0c-0.1,0.1-0.1,0.3,0,0.4l2.1,2.2c1.3-0.8,6.5-7,8.5-9.4l0.1-0.2c3.7-4.6,7.5-9.3,8.5-15.2
					c0.5-2.9,0.1-5.7-1-7.3C104.7,1.7,103.5,1.5,102.3,1.7z"/>
			</g>
			<g>
				<path class="st1" d="M65.2,33.3c0,0-7.4-6-12,4.5C49,47.5,44.8,60.1,44,62.3c0,0.2,0,0.4,0.2,0.5l2.9,1.3c0.2,0.1,0.4,0,0.5-0.2
					l7-18.7c0.1-0.3,0.5-0.3,0.6-0.1c1,1.2,3.8,3.7,8.1,2.4c1.8-0.5,3.2-1.9,4.1-3.7l0.7-1.6c0.9-1.9,0.8-4.1-0.2-5.8
					C67.3,35.1,66.4,34,65.2,33.3z"/>
				<path class="st0" d="M47.5,64.5c-0.2,0-0.4,0-0.5-0.1l-2.9-1.3c-0.4-0.2-0.6-0.6-0.4-1c0.8-2.4,4.9-14.8,9.1-24.4
					c1.6-3.6,3.7-5.8,6.2-6.3c3.3-0.8,6.1,1.3,6.5,1.6c1.1,0.6,2.1,1.7,3,3.2c1.1,1.8,1.1,4.2,0.2,6.3L67.9,44
					c-0.9,1.9-2.5,3.4-4.3,3.9c-4.5,1.3-7.4-1.3-8.5-2.5L48.1,64c-0.1,0.2-0.2,0.4-0.5,0.5C47.6,64.5,47.6,64.5,47.5,64.5z
					 M44.5,62.3l2.8,1.3l7-18.7c0.1-0.3,0.3-0.5,0.6-0.5c0.3-0.1,0.6,0.1,0.8,0.3c1,1.1,3.6,3.5,7.6,2.3c1.6-0.5,3-1.7,3.8-3.5
					l0.7-1.6c0.8-1.8,0.7-3.9-0.2-5.5c-0.8-1.4-1.7-2.4-2.6-2.9l-0.1,0c0,0-2.7-2.2-5.8-1.5c-2.3,0.5-4.1,2.5-5.6,5.9
					C49.5,47.6,45.3,59.8,44.5,62.3z"/>
			</g>
		</g>
		<g id="lines_1_">
			<path class="st0" d="M6.3,92.3c-4.1,0.9-7.6,1.4-10.2,1.6c-5.6,0.6-8.8,0.4-8.9,0.3l0.1-0.9c0,0,3.3,0.2,8.9-0.3
				c5.1-0.5,13.2-1.9,23-5.3c17.2-6.1,42.7-19.9,66.9-51.3l0.7,0.5C62.3,68.6,36.6,82.5,19.3,88.6C14.5,90.3,10.1,91.5,6.3,92.3z"/>
			<path class="st0" d="M-12.5,147c-4.1,0.9-8.4,1.4-12.7,1.5l0-0.9c11.8-0.2,23.3-3.7,33.3-10c10.5-6.6,18.8-16.2,24-27.6
				c6.2-13.7,9.4-28.8,12.5-43.5l0.3-1.3l0.8,0.2l-0.3,1.3c-3.1,14.7-6.4,30-12.6,43.7c-5.2,11.6-13.7,21.3-24.4,28
				C2.1,142.5-5.1,145.4-12.5,147z"/>
			<path class="st0" d="M98.3,9.4c-0.2,0-0.5,0-0.6-0.2c-0.2-0.3-0.2-0.7,0.1-0.9l2.8-2.4c0.3-0.2,0.7-0.2,0.9,0.1
				c0.2,0.3,0.2,0.7-0.1,0.9l-2.8,2.4C98.5,9.4,98.4,9.4,98.3,9.4z"/>
			<g id="largerLine">
				<path class="st0" d="M86.1,37.8c-0.3,0.1-0.5,0-0.7-0.2c-0.4-0.3-0.5-0.8-0.2-1.2l1.8-2.3c0.3-0.4,0.8-0.5,1.2-0.2
					c0.4,0.3,0.5,0.8,0.2,1.2l-1.8,2.3C86.5,37.7,86.3,37.8,86.1,37.8z"/>
				<path class="st0" d="M45.2,67.7c-0.1,0-0.3,0-0.4,0c-0.5-0.1-0.8-0.6-0.6-1.1l0.7-2.9c0.1-0.5,0.6-0.8,1.1-0.6
					c0.5,0.1,0.8,0.6,0.6,1.1l-0.7,2.9C45.8,67.4,45.5,67.6,45.2,67.7z"/>
			</g>
		</g>
	</g>
</g>
</svg>
