<?xml version="1.0" encoding="utf-8"?>
<!-- Generator: Adobe Illustrator 22.0.1, SVG Export Plug-In . SVG Version: 6.00 Build 0)  -->
<svg version="1.1" id="Layer_1" xmlns="http://www.w3.org/2000/svg" xmlns:xlink="http://www.w3.org/1999/xlink" x="0px" y="0px"
	 viewBox="0 0 230.5 100.4" style="enable-background:new 0 0 230.5 100.4;" xml:space="preserve">
<style type="text/css">
	.st0{fill:#D9D8FF;}
	.st1{fill:url(#l_2_);}
	.st2{fill:url(#SVGID_1_);}
	.st3{fill:url(#y_1_);}
	.st4{fill:url(#d_1_);}
	.st5{fill:url(#s_1_);}
	.st6{fill:url(#SVGID_2_);}
	.st7{fill:url(#SVGID_3_);}
</style>
<g id="logo_1_">
	<g id="fearnall_1_">
		<path class="st0" d="M88.9,81.9h8.8v1.8h-6.9V88h6.4v1.8h-6.4v6h-1.9V81.9z"/>
		<path class="st0" d="M107.8,81.9h9v1.8h-7.1v4.2h6.6v1.8h-6.6v4.5h7.5V96h-9.4V81.9z"/>
		<path class="st0" d="M131.4,81.9h1.7l6,14h-2.2l-1.4-3.5h-6.7l-1.4,3.5h-2.2L131.4,81.9z M134.8,90.7l-2.6-6.4l0,0l-2.6,6.4H134.8
			z"/>
		<path class="st0" d="M146.6,81.9h4.9c0.9,0,1.6,0.1,2.2,0.4c0.6,0.2,1,0.6,1.4,0.9c0.3,0.4,0.6,0.8,0.7,1.3
			c0.1,0.5,0.2,0.9,0.2,1.4c0,0.4-0.1,0.9-0.2,1.3s-0.4,0.8-0.7,1.1c-0.3,0.3-0.7,0.6-1.1,0.8s-0.9,0.4-1.4,0.4l4,6.4h-2.4l-3.6-6.2
			h-2.1v6.2h-1.9L146.6,81.9L146.6,81.9z M148.5,88h2.5c0.4,0,0.7,0,1.1-0.1s0.7-0.2,1-0.3c0.3-0.2,0.5-0.4,0.7-0.7
			c0.2-0.3,0.3-0.7,0.3-1.2s-0.1-0.9-0.3-1.2c-0.2-0.3-0.4-0.5-0.7-0.7s-0.6-0.3-1-0.3c-0.4-0.1-0.7-0.1-1.1-0.1h-2.5V88z"/>
		<path class="st0" d="M164.8,81.9h2.5l7.7,11.5l0,0V81.9h1.9v14h-2.4l-7.8-11.5l0,0v11.5h-1.9V81.9z"/>
		<path class="st0" d="M189.5,81.9h1.7l6,14H195l-1.4-3.5h-6.7l-1.4,3.5h-2.2L189.5,81.9z M192.9,90.7l-2.6-6.4l0,0l-2.6,6.4H192.9z
			"/>
		<path class="st0" d="M204.8,81.9h1.9v12.2h6.4v1.8h-8.3L204.8,81.9L204.8,81.9z"/>
		<path class="st0" d="M220.6,81.9h1.9v12.2h6.4v1.8h-8.3L220.6,81.9L220.6,81.9z"/>
	</g>
	<g id="lyndsayTrace_2_">
		
			<linearGradient id="l_2_" gradientUnits="userSpaceOnUse" x1="4.0038" y1="75.3866" x2="30.6705" y2="6.0532" gradientTransform="matrix(1 0 0 -1 0 102)">
			<stop  offset="0" style="stop-color:#3BD6DB"/>
			<stop  offset="1" style="stop-color:#B1AEF7"/>
		</linearGradient>
		<path id="l_1_" class="st1" d="M48.4,86.8c1.8-0.5,3,1.9,1.5,3.1l0,0c-5.3,4.1-22.5,10.9-29.5,10.5C14,100,7.8,95.4,5.3,89.5
			c-1-2.5-1.2-5.3-1.4-8c-1-13.9-1.2-27.9-2.4-41.7C1.2,33.7,1,27.6,0.8,21.5c0-2.1-0.3-4.2-0.7-6.3c-0.4-1.6,0.2-2.3,2-2.2
			c1.6,0,3.2,0,4.9,0.1c10.7,0.5,10.9,11.1,11.2,19.2c0.4,10.8,0.8,21.6,1.1,32.4c0.2,5.3,0.4,10.6,0.6,15.9
			c0.1,3.6-1.4,9.9,3.5,10.3c3.4,0.3,6.8,0.2,10.1-0.5C35.6,90.1,43.2,88,48.4,86.8z"/>
		
			<linearGradient id="SVGID_1_" gradientUnits="userSpaceOnUse" x1="38.7708" y1="64.9623" x2="60.7708" y2="20.2956" gradientTransform="matrix(1 0 0 -1 0 102)">
			<stop  offset="0" style="stop-color:#3BD6DB"/>
			<stop  offset="1" style="stop-color:#B1AEF7"/>
		</linearGradient>
		<path class="st2" d="M54.1,70.8c0.8-11.1,1.6-22,1.1-33.1c-0.2-5.2,1.4-17.5-4.9-19.4c-1.2-0.4-2.4-0.4-3.3,0.6
			c-3.3,3.4-5.5,7.8-8.3,11.6c-2.1,2.8-4.5,6.9-7.4,9c-2.1,1.6-1.9,0.4-1.8-2c0.1-1.7,0.5-3.4,0.7-5.1c0.5-5.4-1-9-6.9-8.5
			c-0.3,0-0.6,0.1-0.8,0.2c-0.2,0.2-0.3,0.5-0.3,0.8c-0.7,8-1.4,16,0.4,24c0.2,0.9,0.4,1.8,0.7,2.6c3.8,9.4,13.7-2.2,16.5-6.1
			c1.3-1.8,2.5-3.7,3.7-5.6c0.8-1.2,1.6-2.5,2.8-3.3l0,0c1.5,2.4,0.4,8.2,0.4,11.1c-0.1,4-0.2,8.1-0.5,12.1
			c-0.4,6.7-1.6,13.4-0.9,20.1c0.2,1.6,2.7,5.2,4.6,4.3C54.8,81.5,53.7,75.5,54.1,70.8z"/>
		
			<linearGradient id="y_1_" gradientUnits="userSpaceOnUse" x1="213.914" y1="80.2664" x2="224.5806" y2="40.9331" gradientTransform="matrix(1 0 0 -1 0 102)">
			<stop  offset="0" style="stop-color:#3BD6DB"/>
			<stop  offset="1" style="stop-color:#B1AEF7"/>
		</linearGradient>
		<path id="y_2_" class="st3" d="M221.2,18.5c-1.6,1.3-2.6,3.1-3.6,4.9c-2.4,4.2-14.5,22.6-19.4,11.1c-0.4-0.8-0.6-1.8-0.8-2.6
			c-1.5-7.5-1.8-15.2-0.9-22.7c0.4-3.7,4.8-3,6.8-0.8c1.8,2.1,1.6,5.1,1.4,7.8c-0.2,2.2-0.4,4.3-0.6,6.5c-0.3,3.1,3.1-1.6,3.5-2.1
			c1.5-1.7,3-3.5,4.3-5.4c2.2-3.3,4.8-6.3,6.6-9.9c1.8-3.5,6.9-6.9,9.5-2.1c0.8,1.4,0.9,3.2,1.1,4.8c0.7,10.7,1.2,21.4,1.3,32.1
			c0,5.1-0.2,10.2,0.1,15.3c0.2,3.9,0.6,8.7-2.5,11.6c-5.6,5.3-7.5-6.5-7.2-9.8c0.5-6.7,0.7-13.4,0.8-20.2c0-3.3,0-6.5,0-9.8
			C221.4,26.2,220.6,19,221.2,18.5z"/>
		
			<linearGradient id="d_1_" gradientUnits="userSpaceOnUse" x1="115.2469" y1="73.3617" x2="119.7863" y2="33.2639" gradientTransform="matrix(1 0 0 -1 0 102)">
			<stop  offset="0" style="stop-color:#3BD6DB"/>
			<stop  offset="1" style="stop-color:#B1AEF7"/>
		</linearGradient>
		<path id="d_2_" class="st4" d="M126.3,19.1c-4.6-4.5-12-8.2-22.2-3.4l-2.6,1.4c-0.6,0.3-0.8,1-0.6,1.6c1,2.3,3.1,8.8,2,21.4
			c-1.3,16.6-2.8,28.7,5.6,29.4c7.5,0.6,22.7-11.7,24-33.4C133,29.7,130.8,23.5,126.3,19.1z M110.3,62.9c0.8-2.8,3.3-43.8,3.3-43.8
			c9.4,1.6,10.6,12.7,10.6,12.7C126.7,51.2,109.5,65.7,110.3,62.9z"/>
		
			<linearGradient id="s_1_" gradientUnits="userSpaceOnUse" x1="145.3882" y1="75.3712" x2="148.7215" y2="34.0379" gradientTransform="matrix(1 0 0 -1 0 102)">
			<stop  offset="0" style="stop-color:#3BD6DB"/>
			<stop  offset="1" style="stop-color:#B1AEF7"/>
		</linearGradient>
		<path id="s_2_" class="st5" d="M142.1,67.7c0.9,0.2,2.2-0.1,4.1-1.1c3.6-2,6.3-5.4,7.8-9.2c3.3-8.6,1.2-17.9-6.2-23.4
			c-4.3-3.2-9.7-6-13.2-10c-2.9-3.3-3.7-8.2-2.5-12.4c1.3-4.8,4.7-9.5,9.8-11c3-0.9,5.8-0.7,8.7,0.2c2.5,0.8,4.9,2.2,6.5,4.4
			c1.6,2.3,2.6,9.2-2.1,8.9c-1.3-0.1-2.3-1.2-3.3-2c-4.2-3.5-11-2.4-10.5,4.2c0.2,3,2.2,5.7,4.6,7.5c2.4,1.9,5.1,3.2,7.7,4.8
			c6.3,3.9,11.4,10.2,12.3,17.5c0.7,6.1-1.7,12.2-5.2,17.2c-3,4.2-7,7.8-11.9,9.6c-5.1,1.9-11.5,1.7-15.9-1.8
			c-1.5-1.2-2.6-2.8-3-4.6c-0.9-4.6,2.5-10.9,4.5-14.9c2.2-4.6,5.1-8.9,8.8-12.4c1.5-1.4,3.9-2.7,5.5-1.3c1.4,1.3,0.7,3.6-0.2,5.3
			c-1.9,4-4,8.1-5.7,12.1C141.2,58.6,138.6,66.9,142.1,67.7z"/>
		<g id="a_2_">
			
				<linearGradient id="SVGID_2_" gradientUnits="userSpaceOnUse" x1="180.1046" y1="62.4739" x2="183.4379" y2="36.4739" gradientTransform="matrix(1 0 0 -1 0 102)">
				<stop  offset="0" style="stop-color:#3BD6DB"/>
				<stop  offset="1" style="stop-color:#B1AEF7"/>
			</linearGradient>
			<path class="st6" d="M201.4,59.6c0.4,1,0.6,1.9,0.7,2.6c0.1,1.6-0.9,3-2.2,4c-0.3,0.2-0.6,0.5-1,0.6c-3.6,1.3-6.1-4.6-6.6-7.1
				c-1.1-4.8-2.3-8.7-3.6-11.9c-3.6,0.5-7.6,0.5-10.8,2.3c-1.6,0.9-1.8,2.7-2.1,4.4c-0.5,2.3-1,4.7-1.5,7.1
				c-0.9,4.6-1.8,8.2-2.7,10.6c-0.5,1.2-1.5,1.5-3.2,1.1c-2.1-0.6-3.2-1.5-3.4-2.7c-0.3-2.4,0.3-5.6,1.7-9.7c1.7-4.7,2.6-8,2.7-9.9
				c0-0.6-0.4-1.2-1.3-1.8c-0.9-0.7-1.4-1.2-1.4-1.6c0-0.3,0.1-0.7,0.4-1c0.3-0.4,0.9-0.7,2-0.9c1-0.3,1.6-0.6,1.7-1.1
				c1-3.2,2.6-9.1,4.7-17.8c1.8-7.5,3.4-13.3,4.9-17.3c0.3-0.9,1.1-1.4,2.3-1.4c0.9,0,1.7,0.2,2.4,0.8c1.8,1.4,3,3.7,3.7,6.7
				c0.5,2.6,0.9,5.1,1.3,7.7C193.9,38,197.6,50.1,201.4,59.6z M186.9,42.1c-0.3-2.3-0.8-4.9-1.5-7.8c-0.7-2.5-1.4-5-2.1-7.5
				c-1.7,5.3-3.1,10.6-4.3,15.9C180,42.4,182.6,42.2,186.9,42.1z"/>
		</g>
		<g>
			
				<linearGradient id="SVGID_3_" gradientUnits="userSpaceOnUse" x1="78.5308" y1="65.6976" x2="85.1975" y2="33.6976" gradientTransform="matrix(1 0 0 -1 0 102)">
				<stop  offset="0" style="stop-color:#3BD6DB"/>
				<stop  offset="1" style="stop-color:#B1AEF7"/>
			</linearGradient>
			<path class="st7" d="M97.9,24.3c0,1.3-0.3,2.6-0.5,3.8c-0.3,1.7-0.7,3.6-1.1,5.8c-0.4,2.1-0.8,4.4-1.2,6.7
				c-0.4,2.3-0.6,4.5-0.7,6.6c-0.2,6.9,0.9,13.3,1.8,20c0.1,1-0.1,2.1-0.9,2.6c-3.8,2.2-9.7-4.5-11.8-6.8c-2-2.3-4.2-5.3-6.4-9
				c-2.2-3.7-4.5-8-6.8-13.1c-0.4,3.4-0.7,6.9-0.8,10.5c-0.1,4,0.5,7.9,0.9,11.9c0.3,2.6,2.3,10-2.6,8.6c-5.3-1.5-5.7-9-6.5-13.4
				c-0.4-2.5-0.8-5.1-1.1-7.7c-0.4-4.3-0.6-8.3-0.6-11.8c0-4.4,0.4-9,2.1-13.2c0.6-1.5,1.7-3,3.3-3.6c5.9-2.3,7.6,4.1,9.2,7.9
				c0.6,1.6,1.3,3,1.9,4.3s1.2,2.6,1.8,3.7c0.6,1.1,1.2,2.3,1.9,3.4c0.7,1.1,1.4,2.3,2.2,3.5c0.8,1.2,1.7,2.6,2.6,4
				c-0.1-4.4-0.1-8.4,0.1-12s0.6-6.7,1.3-9.4c0.6-2.6,1.5-4.7,2.6-6.2c1.7-2.3,5.4-3.6,7.8-1.5c0.9,0.8,1.3,2.1,1.4,3.3
				C97.9,23.6,97.9,24,97.9,24.3z"/>
		</g>
	</g>
</g>
</svg>
